{
.appVersion = "1359";
classes = (
{
code = "u1D160 u1D161 u1D162 u1D163 u1D164 u1D1BD u1D1BE u1D1BF u1D1C0";
name = class1;
},
{
code = "u1D206 u1D209 u1D213 u1D215 u1D221 u1D228 u1D22A u1D22B u1D22C u1D22E u1D230 u1D23F";
name = class2;
},
{
code = "u1D129 u1D13A u1D13B u1D13C u1D13D u1D13E u1D13F u1D140 u1D141 u1D142";
name = class3;
},
{
code = "null_notehead u1D143 u1D144 u1D145 u1D146 u1D147 u1D148 u1D149 u1D14A u1D14B u1D14C u1D14D u1D14E u1D14F u1D150 u1D151 u1D152 u1D153 u1D154 u1D155 u1D156 u1D157 u1D158 u1D15A u1D15B u1D15C u1D15D u1D1B9 u1D1BA";
name = class6;
},
{
code = "u1D165 u1D165_b u1D165_ext u1D165_ext2 u1D165_short u1D165_short.alt u1D165_short2 u1D166 u1D166_b u1D166_ext u1D166_ext2 u1D166_short u1D166_short.alt u1D166_short2";
name = class7;
},
{
code = "u1D15E u1D15F u1D160 u1D161 u1D162 u1D163 u1D164 u1D1BB u1D1BC u1D1BD u1D1BE u1D1BF u1D1C0";
name = class27;
},
{
code = "u1D16D u1D16E u1D16F u1D170 u1D171 u1D172";
name = markAttachmentSet1;
},
{
code = "u1D165_b u1D165_ext u1D165_ext2 u1D165_short u1D165_short.alt u1D165_short2 u1D166_b u1D166_ext u1D166_ext2 u1D166_short u1D166_short.alt u1D166_short2";
name = class31;
},
{
code = "u1D167 u1D167_low u1D168 u1D168_low u1D169 u1D169_low";
name = class32;
},
{
code = "u1D17B u1D17C u1D17D u1D17E u1D17F u1D180 u1D181 u1D182 u1D18A u1D18B";
name = class43;
},
{
code = "u1D14A u1D14B u1D14C u1D14D u1D150 u1D151";
name = class49;
},
{
code = "u1D185 u1D186 u1D187 u1D188 u1D189 u1D1AA u1D1AB u1D1AC u1D1AD";
name = class64;
}
);
copyright = "Copyright 2018-2022 Google LLC. All Rights Reserved.";
customParameters = (
{
name = unicodeRanges;
value = (
0,
1,
45,
46,
57,
88
);
},
{
name = codePageRanges;
value = (
1252
);
},
{
name = glyphOrder;
value = (
.notdef,
NULL,
CR,
space,
uni25CC,
uni2669,
musicalnote,
musicalnotedbl,
uni266C,
uni266D,
uni266E,
uni266F,
u1D000,
u1D001,
u1D002,
u1D003,
u1D004,
u1D005,
u1D006,
u1D007,
u1D008,
u1D009,
u1D00A,
u1D00B,
u1D00C,
u1D00D,
u1D00E,
u1D00F,
u1D010,

glyphs = (
{
glyphname = .notdef;
lastChange = "2018-08-24 12:55:27 +0000";
layers = (
{
layerId = "2208DBFF-11B0-48D9-BA6B-B988DFB8211A";
paths = (
{
closed = 1;
nodes = (
"94 0 LINE",
"505 0 LINE",
"505 714 LINE",
"94 714 LINE"
);
},
{
closed = 1;
nodes = (
"145 663 LINE",
"454 663 LINE",
"454 51 LINE",
"145 51 LINE"
);
}
);
width = 600;
}
);
note = .notdef;
},
{
glyphname = uni25CC;
lastChange = "2018-08-27 13:38:43 +0000";
layers = (
{
anchors = (
{
name = Anchor11;
position = "{297, 567}";
},
{
name = Anchor13;
position = "{297, -46}";
},
{
name = Anchor15;
position = "{297, -20}";
},
{
name = Anchor17;
position = "{597, 178}";
},
{
name = exit;
position = "{432, 1009}";
}
);
layerId = "2208DBFF-11B0-48D9-BA6B-B988DFB8211A";
paths = (
{
closed = 1;
nodes = (
"437 475 OFFCURVE",
"428 466 OFFCURVE",
"428 448 CURVE SMOOTH",
"428 431 OFFCURVE",
"437 422 OFFCURVE",
"455 422 CURVE SMOOTH",
"472 422 OFFCURVE",
"480 431 OFFCURVE",
"480 448 CURVE SMOOTH",
"480 466 OFFCURVE",
"472 475 OFFCURVE",
"455 475 CURVE SMOOTH"
);
},
{
closed = 1;
nodes = (
"364 523 OFFCURVE",
"355 514 OFFCURVE",
"355 496 CURVE SMOOTH",
"355 479 OFFCURVE",
"364 470 OFFCURVE",
"383 470 CURVE SMOOTH",
"400 470 OFFCURVE",
"408 479 OFFCURVE",
"408 496 CURVE SMOOTH",
"408 514 OFFCURVE",
"400 523 OFFCURVE",
"383 523 CURVE SMOOTH"
);
},
{
closed = 1;
nodes = (
"485 402 OFFCURVE",
"476 393 OFFCURVE",
"476 376 CURVE SMOOTH",
"476 358 OFFCURVE",
"485 349 OFFCURVE",
"502 349 CURVE SMOOTH",
"520 349 OFFCURVE",
"529 358 OFFCURVE",
"529 376 CURVE SMOOTH",
"529 393 OFFCURVE",
"520 402 OFFCURVE",
"503 402 CURVE SMOOTH"
);
},
{
closed = 1;
nodes = (
"503 317 OFFCURVE",
"494 308 OFFCURVE",
"494 291 CURVE SMOOTH",
"494 274 OFFCURVE",
"503 265 OFFCURVE",
"521 265 CURVE SMOOTH",
"538 265 OFFCURVE",
"546 274 OFFCURVE",
"546 291 CURVE SMOOTH",
"546 308 OFFCURVE",
"538 317 OFFCURVE",
"521 317 CURVE SMOOTH"
);
},
{
closed = 1;
nodes = (
"280 540 OFFCURVE",
"271 531 OFFCURVE",
"271 514 CURVE SMOOTH",
"271 496 OFFCURVE",
"280 487 OFFCURVE",
"297 487 CURVE SMOOTH",
"314 487 OFFCURVE",
"323 496 OFFCURVE",
"323 514 CURVE SMOOTH",
"323 531 OFFCURVE",
"314 540 OFFCURVE",
"297 540 CURVE SMOOTH"
);
},
{
closed = 1;
nodes = (
"195 523 OFFCURVE",
"186 514 OFFCURVE",
"186 496 CURVE SMOOTH",
"186 479 OFFCURVE",
"195 470 OFFCURVE",
"212 470 CURVE SMOOTH",
"230 470 OFFCURVE",
"239 479 OFFCURVE",
"239 496 CURVE SMOOTH",
"239 514 OFFCURVE",
"230 523 OFFCURVE",
"212 523 CURVE SMOOTH"
);
},
{
closed = 1;
nodes = (
"485 233 OFFCURVE",
"476 224 OFFCURVE",
"476 206 CURVE SMOOTH",
"476 189 OFFCURVE",
"485 180 OFFCURVE",
"502 180 CURVE SMOOTH",
"520 180 OFFCURVE",
"529 189 OFFCURVE",
"529 206 CURVE SMOOTH",
"529 224 OFFCURVE",
"520 233 OFFCURVE",
"502 233 CURVE SMOOTH"
);
},
{
closed = 1;
nodes = (
"123 475 OFFCURVE",
"114 466 OFFCURVE",
"114 447 CURVE SMOOTH",
"114 430 OFFCURVE",
"123 422 OFFCURVE",
"140 422 CURVE SMOOTH",
"158 422 OFFCURVE",
"167 431 OFFCURVE",
"167 448 CURVE SMOOTH",
"167 466 OFFCURVE",
"158 475 OFFCURVE",
"140 475 CURVE SMOOTH"
);
},
{
closed = 1;
nodes = (
"437 160 OFFCURVE",
"428 151 OFFCURVE",
"428 133 CURVE SMOOTH",
"428 116 OFFCURVE",
"437 107 OFFCURVE",
"455 107 CURVE SMOOTH",
"472 107 OFFCURVE",
"480 116 OFFCURVE",
"480 133 CURVE SMOOTH",
"480 151 OFFCURVE",
"472 160 OFFCURVE",
"455 160 CURVE SMOOTH"
);
},
{
closed = 1;
nodes = (
"364 112 OFFCURVE",
"355 103 OFFCURVE",
"355 85 CURVE SMOOTH",
"355 68 OFFCURVE",
"364 60 OFFCURVE",
"383 60 CURVE SMOOTH",
"400 60 OFFCURVE",
"408 68 OFFCURVE",
"408 85 CURVE SMOOTH",
"408 103 OFFCURVE",
"400 112 OFFCURVE",
"383 112 CURVE SMOOTH"
);
},
{
closed = 1;
nodes = (
"74 402 OFFCURVE",
"65 393 OFFCURVE",
"65 376 CURVE SMOOTH",
"65 358 OFFCURVE",
"74 349 OFFCURVE",
"93 349 CURVE SMOOTH",
"110 349 OFFCURVE",
"118 358 OFFCURVE",
"118 376 CURVE SMOOTH",
"118 393 OFFCURVE",
"109 402 OFFCURVE",
"92 402 CURVE SMOOTH"
);
},
{
closed = 1;
nodes = (
"57 317 OFFCURVE",
"48 308 OFFCURVE",
"48 291 CURVE SMOOTH",
"48 274 OFFCURVE",
"57 265 OFFCURVE",
"75 265 CURVE SMOOTH",
"92 265 OFFCURVE",
"101 274 OFFCURVE",
"101 291 CURVE SMOOTH",
"101 308 OFFCURVE",
"92 317 OFFCURVE",
"75 317 CURVE SMOOTH"
);
},
{
closed = 1;
nodes = (
"280 95 OFFCURVE",
"271 86 OFFCURVE",
"271 69 CURVE SMOOTH",
"271 51 OFFCURVE",
"280 42 OFFCURVE",
"297 42 CURVE SMOOTH",
"314 42 OFFCURVE",
"323 51 OFFCURVE",
"323 69 CURVE SMOOTH",
"323 86 OFFCURVE",
"314 95 OFFCURVE",
"297 95 CURVE SMOOTH"
);
},
{
closed = 1;
nodes = (
"74 233 OFFCURVE",
"65 224 OFFCURVE",
"65 206 CURVE SMOOTH",
"65 189 OFFCURVE",
"74 180 OFFCURVE",
"92 180 CURVE SMOOTH",
"109 180 OFFCURVE",
"118 189 OFFCURVE",
"118 206 CURVE SMOOTH",
"118 224 OFFCURVE",
"109 233 OFFCURVE",
"92 233 CURVE SMOOTH"
);
},
{
closed = 1;
nodes = (
"195 112 OFFCURVE",
"186 103 OFFCURVE",
"186 85 CURVE SMOOTH",
"186 68 OFFCURVE",
"195 60 OFFCURVE",
"212 60 CURVE SMOOTH",
"230 60 OFFCURVE",
"239 69 OFFCURVE",
"239 87 CURVE SMOOTH",
"239 104 OFFCURVE",
"230 112 OFFCURVE",
"212 112 CURVE SMOOTH"
);
},
{
closed = 1;
nodes = (
"123 160 OFFCURVE",
"114 151 OFFCURVE",
"114 133 CURVE SMOOTH",
"114 116 OFFCURVE",
"123 107 OFFCURVE",
"140 107 CURVE SMOOTH",
"158 107 OFFCURVE",
"167 116 OFFCURVE",
"167 133 CURVE SMOOTH",
"167 151 OFFCURVE",
"158 160 OFFCURVE",
"140 160 CURVE SMOOTH"
);
}
);
width = 594;
}
);
note = uni25CC;
unicode = 25CC;
category = Letter;
},
{
glyphname = uni2669;
lastChange = "2018-08-27 13:38:23 +0000";
layers = (
{
anchors = (
{
name = Anchor13;
position = "{194, 583}";
},
{
name = Anchor15;
position = "{136, -5}";
},
{
name = Anchor17;
position = "{282, 114}";
}
);
layerId = "2208DBFF-11B0-48D9-BA6B-B988DFB8211A";
paths = (
{
closed = 1;
nodes = (
"194 148 LINE",
"179 154 OFFCURVE",
"164 157 OFFCURVE",
"150 157 CURVE SMOOTH",
"99 157 OFFCURVE",
"51 114 OFFCURVE",
"51 63 CURVE SMOOTH",
"51 34 OFFCURVE",
"70 14 OFFCURVE",
"107 14 CURVE SMOOTH",
"177 14 OFFCURVE",
"231 68 OFFCURVE",
"231 148 CURVE SMOOTH",
"231 563 LINE",
"194 563 LINE"
);
}
);
width = 282;
}
);
note = uni2669;
unicode = 2669;
category = Letter;
},
{
glyphname = musicalnote;
lastChange = "2018-08-27 13:38:23 +0000";
layers = (
{
anchors = (
{
name = Anchor13;
position = "{194, 583}";
},
{
name = Anchor15;
position = "{136, -5}";
},
{
name = Anchor17;
position = "{409, 163}";
}
);
layerId = "2208DBFF-11B0-48D9-BA6B-B988DFB8211A";
paths = (
{
closed = 1;
nodes = (
"194 148 LINE",
"179 154 OFFCURVE",
"164 157 OFFCURVE",
"150 157 CURVE SMOOTH",
"99 157 OFFCURVE",
"51 114 OFFCURVE",
"51 63 CURVE SMOOTH",
"51 34 OFFCURVE",
"70 14 OFFCURVE",
"107 14 CURVE SMOOTH",
"177 14 OFFCURVE",
"231 68 OFFCURVE",
"231 148 CURVE SMOOTH",
"231 395 LINE",
"272 389 OFFCURVE",
"318 332 OFFCURVE",
"318 254 CURVE SMOOTH",
"318 214 OFFCURVE",
"309 174 OFFCURVE",
"290 133 CURVE",
"313 133 LINE",
"344 172 OFFCURVE",
"359 216 OFFCURVE",
"359 265 CURVE SMOOTH",
"359 320 OFFCURVE",
"342 374 OFFCURVE",
"305 420 CURVE SMOOTH",
"231 514 LINE",
"231 563 LINE",
"194 563 LINE"
);
}
);
width = 410;
}
);
note = musicalnote;
unicode = 266A;
category = Letter;
},
{
glyphname = musicalnotedbl;
lastChange = "2018-08-27 13:38:21 +0000";
layers = (
{
anchors = (
{
name = Anchor11;
position = "{365, 566}";
},
{
name = Anchor15;
position = "{276, -31}";
},
{
name = Anchor17;
position = "{586, 69}";
}
);
layerId = "2208DBFF-11B0-48D9-BA6B-B988DFB8211A";
paths = (
{
closed = 1;
nodes = (
"499 113 LINE",
"485 119 OFFCURVE",
"470 122 OFFCURVE",
"455 122 CURVE SMOOTH",
"404 122 OFFCURVE",
"357 81 OFFCURVE",
"357 28 CURVE SMOOTH",
"357 -3 OFFCURVE",
"375 -21 OFFCURVE",
"413 -21 CURVE SMOOTH",
"474 -21 OFFCURVE",
"535 30 OFFCURVE",
"535 113 CURVE SMOOTH",
"535 521 LINE",
"194 566 LINE",
"194 157 LINE",
"179 163 OFFCURVE",
"164 166 OFFCURVE",
"147 166 CURVE SMOOTH",
"95 166 OFFCURVE",
"51 120 OFFCURVE",
"51 72 CURVE SMOOTH",
"51 42 OFFCURVE",
"70 24 OFFCURVE",
"107 24 CURVE SMOOTH",
"182 24 OFFCURVE",
"230 81 OFFCURVE",
"230 157 CURVE SMOOTH",
"230 486 LINE",
"499 451 LINE"
);
}
);
width = 586;
}
);
note = musicalnotedbl;
unicode = 266B;
category = Letter;
},
{
glyphname = uni266C;
lastChange = "2018-08-27 13:38:21 +0000";
layers = (
{
anchors = (
{
name = Anchor11;
position = "{364, 566}";
},
{
name = Anchor15;
position = "{312, -31}";
},
{
name = Anchor17;
position = "{586, 114}";
}
);
layerId = "2208DBFF-11B0-48D9-BA6B-B988DFB8211A";
paths = (
{
closed = 1;
nodes = (
"535 566 LINE",
"194 479 LINE",
"194 112 LINE",
"179 118 OFFCURVE",
"164 121 OFFCURVE",
"147 121 CURVE SMOOTH",
"95 121 OFFCURVE",
"51 75 OFFCURVE",
"51 27 CURVE SMOOTH",
"51 -2 OFFCURVE",
"70 -21 OFFCURVE",
"107 -21 CURVE SMOOTH",
"182 -21 OFFCURVE",
"230 36 OFFCURVE",
"230 112 CURVE SMOOTH",
"230 304 LINE",
"499 377 LINE",
"499 158 LINE",
"485 164 OFFCURVE",
"470 167 OFFCURVE",
"455 167 CURVE SMOOTH",
"404 167 OFFCURVE",
"357 126 OFFCURVE",
"357 73 CURVE SMOOTH",
"357 42 OFFCURVE",
"375 24 OFFCURVE",
"413 24 CURVE SMOOTH",
"474 24 OFFCURVE",
"535 74 OFFCURVE",
"535 158 CURVE SMOOTH"
);
},
{
closed = 1;
nodes = (
"230 422 LINE",
"499 496 LINE",
"499 439 LINE",
"230 366 LINE"
);
}
);
width = 586;
}
);
note = uni266C;
unicode = 266C;
category = Letter;
},
{
glyphname = uni266D;
lastChange = "2022-02-22 01:35:00 +0000";
layers = (
{
layerId = "2208DBFF-11B0-48D9-BA6B-B988DFB8211A";
paths = (
{
closed = 1;
nodes = (
"50 -55 LINE",
"65 -36 OFFCURVE",
"84 -16 OFFCURVE",
"110 6 CURVE SMOOTH",
"179 65 LINE SMOOTH",
"221 101 OFFCURVE",
"249 135 OFFCURVE",
"249 178 CURVE SMOOTH",
"249 232 OFFCURVE",
"208 262 OFFCURVE",
"165 262 CURVE SMOOTH",
"134 262 OFFCURVE",
"106 250 OFFCURVE",
"81 225 CURVE",
"81 615 LINE",
"50 615 LINE"
);
},
{
closed = 1;
nodes = (
"81 180 LINE",
"89 207 OFFCURVE",
"112 223 OFFCURVE",
"134 223 CURVE SMOOTH",
"154 223 OFFCURVE",
"175 207 OFFCURVE",
"175 170 CURVE SMOOTH",
"175 151 OFFCURVE",
"167 130 OFFCURVE",
"153 105 CURVE SMOOTH",
"139 81 OFFCURVE",
"115 49 OFFCURVE",
"81 12 CURVE"
);
}
);
width = 299;
}
);
note = uni266D;
unicode = 266D;
category = Letter;
},
{
glyphname = uni266E;
lastChange = "2022-02-22 00:43:37 +0000";
layers = (
{
layerId = "2208DBFF-11B0-48D9-BA6B-B988DFB8211A";
paths = (
{
closed = 1;
nodes = (
"83 279 LINE",
"83 486 LINE",
"50 486 LINE",
"50 -46 LINE",
"195 -9 LINE",
"195 -221 LINE",
"226 -221 LINE",
"226 316 LINE"
);
},
{
closed = 1;
nodes = (
"81 56 LINE",
"81 183 LINE",
"197 212 LINE",
"197 84 LINE"
);
}
);
width = 276;
}
);
note = uni266E;
unicode = 266E;
category = Letter;
},
{
glyphname = uni266F;
lastChange = "2022-02-22 00:55:00 +0000";
layers = (
{
layerId = "2208DBFF-11B0-48D9-BA6B-B988DFB8211A";
paths = (
{
closed = 1;
nodes = (
"50 32 LINE",
"50 -71 LINE",
"97 -59 LINE",
"97 -247 LINE",
"128 -247 LINE",
"128 -52 LINE",
"195 -34 LINE",
"195 -214 LINE",
"226 -214 LINE",
"226 -26 LINE",
"275 -14 LINE",
"275 89 LINE",
"226 77 LINE",
"226 220 LINE",
"275 234 LINE",
"275 333 LINE",
"226 322 LINE",
"226 509 LINE",
"195 509 LINE",
"195 314 LINE",
"128 298 LINE",
"128 486 LINE",
"97 486 LINE",
"97 290 LINE",
"50 277 LINE",
"50 177 LINE",
"97 189 LINE",
"97 46 LINE"
);
},
{
closed = 1;
nodes = (
"128 54 LINE",
"128 197 LINE",
"195 214 LINE",
"195 70 LINE"
);
}
);
width = 325;
}
);
note = uni266F;
unicode = 266F;
category = Letter;
},
{
glyphname = u1D000;
lastChange = "2018-08-24 12:55:27 +0000";
layers = (
{
layerId = "2208DBFF-11B0-48D9-BA6B-B988DFB8211A";
paths = (
{
closed = 1;
nodes = (
"274 614 LINE",
"124 604 LINE",
"103 569 LINE",
"276 574 LINE",
"278 528 OFFCURVE",
"280 500 OFFCURVE",
"284 492 CURVE SMOOTH",
"289 482 OFFCURVE",
"292 478 OFFCURVE",
"301 478 CURVE SMOOTH",
"313 478 OFFCURVE",
"344 490 OFFCURVE",
"354 498 CURVE",
"372 691 LINE",
"361 706 OFFCURVE",
"347 714 OFFCURVE",
"330 714 CURVE SMOOTH",
"292 714 OFFCURVE",
"274 679 OFFCURVE",
"274 639 CURVE SMOOTH"
);
}
);
width = 475;
}
);
note = u1D000;
unicode = 1D000;
category = Letter;
},
{
glyphname = u1D001;
lastChange = "2018-08-24 12:55:27 +0000";
layers = (
{
layerId = "2208DBFF-11B0-48D9-BA6B-B988DFB8211A";
paths = (
{
closed = 1;
nodes = (
"352 589 LINE",
"372 624 LINE",
"199 619 LINE",
"197 665 LINE SMOOTH",
"196 698 OFFCURVE",
"188 714 OFFCURVE",
"174 714 CURVE SMOOTH",
"160 714 OFFCURVE",
"142 707 OFFCURVE",
"121 694 CURVE",
"103 502 LINE",
"115 486 OFFCURVE",
"129 478 OFFCURVE",
"145 478 CURVE SMOOTH",
"183 478 OFFCURVE",
"201 514 OFFCURVE",
"201 551 CURVE SMOOTH",
"201 560 OFFCURVE",
"201 568 OFFCURVE",
"200 577 CURVE"
);
}
);
width = 475;
}
);
note = u1D001;
unicode = 1D001;
category = Letter;
},
{
glyphname = u1D002;
lastChange = "2018-08-24 12:55:27 +0000";
layers = (
{
layerId = "2208DBFF-11B0-48D9-BA6B-B988DFB8211A";
paths = (
{
closed = 1;
nodes = (
"203 566 OFFCURVE",
"255 602 OFFCURVE",
"330 602 CURVE SMOOTH",
"405 602 OFFCURVE",
"456 567 OFFCURVE",
"499 485 CURVE",
"526 494 OFFCURVE",
"545 505 OFFCURVE",
"556 518 CURVE",
"520 611 OFFCURVE",
"437 667 OFFCURVE",
"330 667 CURVE SMOOTH",
"225 667 OFFCURVE",
"140 614 OFFCURVE",
"103 518 CURVE",
"116 504 OFFCURVE",
"134 493 OFFCURVE",
"158 485 CURVE"
);
}
);
width = 660;
}
);
note = u1D002;
unicode = 1D002;
category = Letter;
},
{
glyphname = u1D003;
lastChange = "2018-08-24 12:55:27 +0000";
layers = (
{
layerId = "2208DBFF-11B0-48D9-BA6B-B988DFB8211A";
paths = (
{
closed = 1;
nodes = (
"604 446 LINE SMOOTH",
"607 432 OFFCURVE",
"615 425 OFFCURVE",
"629 425 CURVE SMOOTH",
"636 425 OFFCURVE",
"648 433 OFFCURVE",
"664 449 CURVE SMOOTH",
"669 455 OFFCURVE",
"673 461 OFFCURVE",
"677 467 CURVE",
"697 620 LINE",
"612 620 LINE",
"103 142 LINE",
"166 144 LINE",
"588 509 LINE"
);
}
);
width = 800;
}
);
note = u1D003;
unicode = 1D003;
category = Letter;
},
{
glyphname = u1D004;
lastChange = "2018-08-24 12:55:27 +0000";
layers = (
{
layerId = "2208DBFF-11B0-48D9-BA6B-B988DFB8211A";
paths = (
{
closed = 1;
nodes = (
"689 527 LINE",
"718 500 OFFCURVE",
"734 486 OFFCURVE",
"738 484 CURVE SMOOTH",
"741 482 OFFCURVE",
"746 481 OFFCURVE",
"750 481 CURVE SMOOTH",
"758 481 OFFCURVE",
"765 487 OFFCURVE",
"772 495 CURVE SMOOTH",
"779 504 OFFCURVE",
"788 522 OFFCURVE",
"798 550 CURVE",
"785 631 LINE",
"750 635 LINE SMOOTH",
"738 636 OFFCURVE",
"723 631 OFFCURVE",
"712 625 CURVE",
"210 146 LINE",
"274 152 LINE"
);
},
{
closed = 1;
nodes = (
"547 543 LINE SMOOTH",
"561 532 OFFCURVE",
"573 528 OFFCURVE",
"578 528 CURVE SMOOTH",
"593 528 OFFCURVE",
"603 550 OFFCURVE",
"607 559 CURVE SMOOTH",
"620 589 LINE",
"620 647 LINE",
"612 650 OFFCURVE",
"600 652 OFFCURVE",
"585 652 CURVE SMOOTH",
"569 652 OFFCURVE",
"554 648 OFFCURVE",
"541 642 CURVE",
"103 188 LINE",
"163 193 LINE",
"535 553 LINE"
);
}
);
width = 901;
}
);
note = u1D004;
unicode = 1D004;
category = Letter;
},
{
glyphname = u1D005;
lastChange = "2018-08-24 12:55:27 +0000";
layers = (
{
layerId = "2208DBFF-11B0-48D9-BA6B-B988DFB8211A";
paths = (
{
closed = 1;
nodes = (
"131 538 LINE",
"568 154 LINE",
"560 208 LINE",
"239 518 LINE SMOOTH",
"229 528 OFFCURVE",
"218 546 OFFCURVE",
"208 570 CURVE SMOOTH",
"199 593 OFFCURVE",
"181 607 OFFCURVE",
"161 607 CURVE SMOOTH",
"159 607 OFFCURVE",
"152 606 OFFCURVE",
"148 605 CURVE SMOOTH",
"103 598 LINE"
);
}
);
width = 671;
}
);
note = u1D005;
unicode = 1D005;
category = Letter;
},
{
glyphname = u1D006;
lastChange = "2018-08-24 12:55:27 +0000";
layers = (
{
layerId = "2208DBFF-11B0-48D9-BA6B-B988DFB8211A";
paths = (
{
closed = 1;
nodes = (
"288 538 LINE",
"725 154 LINE",
"718 208 LINE",
"396 518 LINE SMOOTH",
"385 529 OFFCURVE",
"377 543 OFFCURVE",
"371 558 CURVE SMOOTH",
"359 588 OFFCURVE",
"341 607 OFFCURVE",
"321 607 CURVE SMOOTH",
"319 607 OFFCURVE",
"313 606 OFFCURVE",
"308 605 CURVE SMOOTH",
"260 598 LINE"
);
},
{
closed = 1;
nodes = (
"131 520 LINE",
"568 154 LINE",
"560 208 LINE",
"239 502 LINE SMOOTH",
"228 512 OFFCURVE",
"218 531 OFFCURVE",
"208 554 CURVE SMOOTH",
"199 575 OFFCURVE",
"182 590 OFFCURVE",
"163 590 CURVE SMOOTH",
"161 590 OFFCURVE",
"154 589 OFFCURVE",
"149 588 CURVE SMOOTH",
"103 581 LINE"
);
}
);
width = 828;
}
);
note = u1D006;
unicode = 1D006;
category = Letter;
},
{
glyphname = u1D007;
lastChange = "2018-08-24 12:55:27 +0000";
layers = (
{
layerId = "2208DBFF-11B0-48D9-BA6B-B988DFB8211A";
paths = (
{
closed = 1;
nodes = (
"136 476 LINE",
"114 445 OFFCURVE",
"103 410 OFFCURVE",
"103 375 CURVE SMOOTH",
"103 343 OFFCURVE",
"145 322 OFFCURVE",
"211 322 CURVE SMOOTH",
"220 322 OFFCURVE",
"230 322 OFFCURVE",
"241 323 CURVE SMOOTH",
"428 337 LINE SMOOTH",
"439 338 OFFCURVE",
"450 338 OFFCURVE",
"453 338 CURVE SMOOTH",
"489 338 OFFCURVE",
"495 314 OFFCURVE",
"505 292 CURVE SMOOTH",
"512 277 OFFCURVE",
"517 265 OFFCURVE",
"532 251 CURVE SMOOTH",
"542 242 OFFCURVE",
"559 239 OFFCURVE",
"589 239 CURVE",
"589 247 OFFCURVE",
"590 254 OFFCURVE",
"590 262 CURVE SMOOTH",
"589 312 OFFCURVE",
"583 349 OFFCURVE",
"573 375 CURVE SMOOTH",
"563 402 OFFCURVE",
"549 415 OFFCURVE",
"533 415 CURVE SMOOTH",
"522 415 OFFCURVE",
"483 406 OFFCURVE",
"426 392 CURVE SMOOTH",
"359 376 LINE SMOOTH",
"296 361 OFFCURVE",
"253 353 OFFCURVE",
"232 353 CURVE SMOOTH",
"205 353 OFFCURVE",
"189 360 OFFCURVE",
"185 373 CURVE",
"208 444 LINE"
);
}
);
width = 694;
}
);
note = u1D007;
unicode = 1D007;
category = Letter;
},
{
glyphname = u1D008;
lastChange = "2018-08-24 12:55:27 +0000";
layers = (
{
layerId = "2208DBFF-11B0-48D9-BA6B-B988DFB8211A";
paths = (
{
closed = 1;
nodes = (
"415 425 OFFCURVE",
"455 401 OFFCURVE",
"579 319 CURVE SMOOTH",
"628 286 OFFCURVE",
"683 269 OFFCURVE",
"743 269 CURVE SMOOTH",
"812 269 OFFCURVE",
"901 314 OFFCURVE",
"977 390 CURVE",
"960 413 LINE",
"915 366 OFFCURVE",
"831 323 OFFCURVE",
"780 323 CURVE SMOOTH",
"724 323 OFFCURVE",
"684 344 OFFCURVE",
"595 401 CURVE SMOOTH",
"505 458 OFFCURVE",
"451 474 OFFCURVE",
"373 474 CURVE SMOOTH",
"299 474 OFFCURVE",
"243 450 OFFCURVE",
"197 420 CURVE SMOOTH",
"174 405 OFFCURVE",
"143 376 OFFCURVE",
"103 334 CURVE",
"128 310 LINE",
"203 392 OFFCURVE",
"271 425 OFFCURVE",
"338 425 CURVE SMOOTH"
);
}
);
width = 1080;
}
);
note = u1D008;
unicode = 1D008;
category = Letter;
},
{
glyphname = u1D009;
lastChange = "2018-08-24 12:55:27 +0000";
layers = (
{
layerId = "2208DBFF-11B0-48D9-BA6B-B988DFB8211A";
paths = (
{
closed = 1;
nodes = (
"145 521 LINE",
"117 497 OFFCURVE",
"103 472 OFFCURVE",
"103 446 CURVE SMOOTH",
"103 398 OFFCURVE",
"147 371 OFFCURVE",
"219 370 CURVE SMOOTH",
"232 370 OFFCURVE",
"244 371 OFFCURVE",
"257 373 CURVE",
"224 335 OFFCURVE",
"208 303 OFFCURVE",
"208 276 CURVE SMOOTH",
"208 240 OFFCURVE",
"230 210 OFFCURVE",
"274 210 CURVE SMOOTH",
"313 210 OFFCURVE",
"373 229 OFFCURVE",
"455 269 CURVE SMOOTH",
"536 309 OFFCURVE",
"689 394 OFFCURVE",
"914 526 CURVE",
"871 542 LINE",
"664 425 OFFCURVE",
"532 354 OFFCURVE",
"474 328 CURVE SMOOTH",
"416 302 OFFCURVE",
"370 290 OFFCURVE",
"336 290 CURVE SMOOTH",
"317 290 OFFCURVE",
"308 298 OFFCURVE",
"308 314 CURVE SMOOTH",
"308 345 OFFCURVE",
"344 382 OFFCURVE",
"377 415 CURVE",
"374 434 LINE",
"312 421 OFFCURVE",
"263 415 OFFCURVE",
"226 415 CURVE SMOOTH",
"199 415 OFFCURVE",
"185 426 OFFCURVE",
"185 448 CURVE SMOOTH",
"185 465 OFFCURVE",
"199 483 OFFCURVE",
"228 502 CURVE"
);
}
);
width = 1018;
}
);
note = u1D009;
unicode = 1D009;
category = Letter;
},
{
glyphname = u1D00A;
lastChange = "2018-08-24 12:55:27 +0000";
layers = (
{
layerId = "2208DBFF-11B0-48D9-BA6B-B988DFB8211A";
paths = (
{
closed = 1;
nodes = (
"128 408 LINE",
"210 408 OFFCURVE",
"283 458 OFFCURVE",
"283 518 CURVE SMOOTH",
"283 562 OFFCURVE",
"252 578 OFFCURVE",
"222 578 CURVE SMOOTH",
"193 578 OFFCURVE",
"164 563 OFFCURVE",
"164 539 CURVE SMOOTH",
"164 524 OFFCURVE",
"169 514 OFFCURVE",
"181 508 CURVE SMOOTH",
"192 503 OFFCURVE",
"197 497 OFFCURVE",
"197 491 CURVE SMOOTH",
"197 468 OFFCURVE",
"151 443 OFFCURVE",
"103 434 CURVE"
);
},
{
closed = 1;
nodes = (
"128 209 LINE",
"207 209 OFFCURVE",
"283 255 OFFCURVE",
"283 319 CURVE SMOOTH",
"283 363 OFFCURVE",
"252 380 OFFCURVE",
"222 380 CURVE SMOOTH",
"193 380 OFFCURVE",
"164 365 OFFCURVE",
"164 340 CURVE SMOOTH",
"164 325 OFFCURVE",
"169 316 OFFCURVE",
"181 310 CURVE SMOOTH",
"191 305 OFFCURVE",
"197 298 OFFCURVE",
"197 293 CURVE SMOOTH",
"197 268 OFFCURVE",
"146 242 OFFCURVE",
"103 236 CURVE"
);
}
);
width = 388;
}
);
note = u1D00A;
unicode = 1D00A;
category = Letter;
},
{
glyphname = u1D00B;
lastChange = "2018-08-24 12:55:27 +0000";
layers = (
{
layerId = "2208DBFF-11B0-48D9-BA6B-B988DFB8211A";
paths = (
{
closed = 1;
nodes = (
"170 611 LINE",
"256 611 OFFCURVE",
"325 660 OFFCURVE",
"325 719 CURVE SMOOTH",
"325 759 OFFCURVE",
"304 779 OFFCURVE",
"262 779 CURVE SMOOTH",
"235 779 OFFCURVE",
"206 766 OFFCURVE",
"206 740 CURVE SMOOTH",
"206 724 OFFCURVE",
"211 714 OFFCURVE",
"223 710 CURVE SMOOTH",
"233 707 OFFCURVE",
"239 700 OFFCURVE",
"239 692 CURVE SMOOTH",
"239 668 OFFCURVE",
"192 642 OFFCURVE",
"145 636 CURVE"
);
},
{
closed = 1;
nodes = (
"170 412 LINE",
"256 412 OFFCURVE",
"325 461 OFFCURVE",
"325 520 CURVE SMOOTH",
"325 561 OFFCURVE",
"304 581 OFFCURVE",
"262 581 CURVE SMOOTH",
"235 581 OFFCURVE",
"206 568 OFFCURVE",
"206 541 CURVE SMOOTH",
"206 527 OFFCURVE",
"211 517 OFFCURVE",
"223 511 CURVE SMOOTH",
"233 506 OFFCURVE",
"239 500 OFFCURVE",
"239 494 CURVE SMOOTH",
"239 470 OFFCURVE",
"192 443 OFFCURVE",
"145 438 CURVE"
);
},
{
closed = 1;
nodes = (
"124 145 LINE",
"292 156 OFFCURVE",
"377 204 OFFCURVE",
"377 287 CURVE SMOOTH",
"377 338 OFFCURVE",
"340 366 OFFCURVE",
"293 366 CURVE SMOOTH",
"251 366 OFFCURVE",
"215 346 OFFCURVE",
"215 314 CURVE SMOOTH",
"215 287 OFFCURVE",
"234 271 OFFCURVE",
"259 271 CURVE SMOOTH",
"278 271 OFFCURVE",
"287 266 OFFCURVE",
"287 257 CURVE SMOOTH",
"287 238 OFFCURVE",
"271 221 OFFCURVE",
"238 207 CURVE SMOOTH",
"204 193 OFFCURVE",
"160 181 OFFCURVE",
"103 175 CURVE"
);
}
);
width = 481;
}
);
note = u1D00B;
unicode = 1D00B;
category = Letter;
},
{
glyphname = u1D00C;
lastChange = "2018-08-24 12:55:27 +0000";
layers = (
{
layerId = "2208DBFF-11B0-48D9-BA6B-B988DFB8211A";
paths = (
{
closed = 1;
nodes = (
"103 282 LINE",
"116 191 OFFCURVE",
"153 146 OFFCURVE",
"216 146 CURVE SMOOTH",
"263 146 OFFCURVE",
"325 176 OFFCURVE",
"404 234 CURVE SMOOTH",
"483 292 OFFCURVE",
"582 388 OFFCURVE",
"703 512 CURVE SMOOTH",
"787 598 LINE",
"694 598 LINE",
"565 456 OFFCURVE",
"467 356 OFFCURVE",
"399 300 CURVE SMOOTH",
"331 244 OFFCURVE",
"284 215 OFFCURVE",
"257 215 CURVE SMOOTH",
"232 215 OFFCURVE",
"213 239 OFFCURVE",
"200 288 CURVE"
);
}
);
width = 892;
}
);
note = u1D00C;
unicode = 1D00C;
category = Letter;
},
{
glyphname = u1D00D;
lastChange = "2018-08-24 12:55:27 +0000";
layers = (
{
layerId = "2208DBFF-11B0-48D9-BA6B-B988DFB8211A";
paths = (
{
closed = 1;
nodes = (
"152 149 LINE",
"380 303 OFFCURVE",
"577 507 OFFCURVE",
"577 619 CURVE SMOOTH",
"577 663 OFFCURVE",
"552 685 OFFCURVE",
"502 685 CURVE SMOOTH",
"458 685 OFFCURVE",
"404 656 OFFCURVE",
"361 611 CURVE",
"397 563 LINE",
"420 583 OFFCURVE",
"439 593 OFFCURVE",
"456 593 CURVE SMOOTH",
"479 593 OFFCURVE",
"490 582 OFFCURVE",
"490 560 CURVE SMOOTH",
"490 471 OFFCURVE",
"299 291 OFFCURVE",
"103 174 CURVE"
);
}
);
width = 682;
}
);
note = u1D00D;
unicode = 1D00D;
category = Letter;
},
{
glyphname = u1D00E;
lastChange = "2018-08-24 12:55:27 +0000";
layers = (
{
layerId = "2208DBFF-11B0-48D9-BA6B-B988DFB8211A";
paths = (
{
closed = 1;
nodes = (
"136 127 LINE",
"246 333 OFFCURVE",
"395 490 OFFCURVE",
"467 490 CURVE SMOOTH",
"483 490 OFFCURVE",
"491 480 OFFCURVE",
"491 460 CURVE SMOOTH",
"491 445 OFFCURVE",
"483 427 OFFCURVE",
"468 406 CURVE",
"510 377 LINE",
"546 412 OFFCURVE",
"570 460 OFFCURVE",
"570 499 CURVE SMOOTH",
"570 546 OFFCURVE",
"549 570 OFFCURVE",
"509 570 CURVE SMOOTH",
"449 570 OFFCURVE",
"350 493 OFFCURVE",
"240 361 CURVE SMOOTH",
"185 294 OFFCURVE",
"139 231 OFFCURVE",
"103 170 CURVE"
);
}
);
width = 674;
}
);
note = u1D00E;
unicode = 1D00E;
category = Letter;
},
{
glyphname = u1D00F;
lastChange = "2018-08-24 12:55:27 +0000";
layers = (
{
layerId = "2208DBFF-11B0-48D9-BA6B-B988DFB8211A";
paths = (
{
closed = 1;
nodes = (
"216 354 LINE SMOOTH",
"175 354 OFFCURVE",
"146 350 OFFCURVE",
"129 343 CURVE SMOOTH",
"112 336 OFFCURVE",
"103 324 OFFCURVE",
"103 308 CURVE SMOOTH",
"103 277 OFFCURVE",
"121 260 OFFCURVE",
"144 260 CURVE SMOOTH",
"160 260 OFFCURVE",
"177 270 OFFCURVE",
"194 289 CURVE SMOOTH",
"211 308 OFFCURVE",
"224 318 OFFCURVE",
"232 318 CURVE SMOOTH",
"248 318 OFFCURVE",
"292 312 OFFCURVE",
"348 312 CURVE",
"350 287 OFFCURVE",
"351 272 OFFCURVE",
"355 209 CURVE",
"370 200 OFFCURVE",
"396 196 OFFCURVE",
"433 196 CURVE",
"439 221 OFFCURVE",
"442 260 OFFCURVE",
"442 312 CURVE",
"526 314 LINE SMOOTH",
"544 314 OFFCURVE",
"560 308 OFFCURVE",
"571 296 CURVE SMOOTH",
"582 284 OFFCURVE",
"590 278 OFFCURVE",
"595 278 CURVE SMOOTH",
"615 278 OFFCURVE",
"640 315 OFFCURVE",
"640 343 CURVE SMOOTH",
"640 363 OFFCURVE",
"628 373 OFFCURVE",
"604 373 CURVE SMOOTH",
"598 373 OFFCURVE",
"589 372 OFFCURVE",
"581 370 CURVE SMOOTH",
"526 359 OFFCURVE",
"479 354 OFFCURVE",
"439 352 CURVE",
"431 406 OFFCURVE",
"426 436 OFFCURVE",
"424 442 CURVE",
"409 454 OFFCURVE",
"383 465 OFFCURVE",
"348 475 CURVE",
"343 475 OFFCURVE",
"341 467 OFFCURVE",
"341 452 CURVE SMOOTH",
"341 435 OFFCURVE",
"345 423 OFFCURVE",
"354 416 CURVE",
"348 352 LINE"
);
}
);
width = 743;
}
);
note = u1D00F;
unicode = 1D00F;
category = Letter;
},
{
glyphname = u1D010;
lastChange = "2018-08-24 12:55:27 +0000";
layers = (
{
layerId = "2208DBFF-11B0-48D9-BA6B-B988DFB8211A";
paths = (
{
closed = 1;
nodes = (
"296 481 OFFCURVE",
"269 455 OFFCURVE",
"269 424 CURVE SMOOTH",
"269 391 OFFCURVE",
"296 365 OFFCURVE",
"329 365 CURVE SMOOTH",
"360 365 OFFCURVE",
"386 391 OFFCURVE",
"386 424 CURVE SMOOTH",
"386 455 OFFCURVE",
"360 481 OFFCURVE",
"329 481 CURVE SMOOTH"
);
},
{
closed = 1;
nodes = (
"131 403 OFFCURVE",
"103 375 OFFCURVE",
"103 344 CURVE SMOOTH",
"103 312 OFFCURVE",
"131 287 OFFCURVE",
"163 287 CURVE SMOOTH",
"194 287 OFFCURVE",
"218 312 OFFCURVE",
"218 344 CURVE SMOOTH",
"218 375 OFFCURVE",
"194 403 OFFCURVE",
"163 403 CURVE SMOOTH"
);
},
{
closed = 1;
nodes = (
"463 403 OFFCURVE",
"434 374 OFFCURVE",
"434 344 CURVE SMOOTH",
"434 312 OFFCURVE",
"463 287 OFFCURVE",
"494 287 CURVE SMOOTH",
"527 287 OFFCURVE",
"552 313 OFFCURVE",
"552 344 CURVE SMOOTH",
"552 375 OFFCURVE",
"526 403 OFFCURVE",
"494 403 CURVE SMOOTH"
);
}
);
width = 655;
}
);
note = u1D010;
unicode = 1D010;
category = Letter;
},
{
glyphname = u1D011;
lastChange = "2018-08-24 12:55:27 +0000";
layers = (
{
layerId = "2208DBFF-11B0-48D9-BA6B-B988DFB8211A";
paths = (
{
closed = 1;
nodes = (
"137 152 LINE",
"259 207 OFFCURVE",
"347 255 OFFCURVE",
"400 296 CURVE SMOOTH",
"453 337 OFFCURVE",
"481 372 OFFCURVE",
"481 403 CURVE SMOOTH",
"481 438 OFFCURVE",
"432 452 OFFCURVE",
"383 452 CURVE SMOOTH",
"336 452 OFFCURVE",
"295 445 OFFCURVE",
"260 430 CURVE",
"282 383 LINE",
"294 385 OFFCURVE",
"306 386 OFFCURVE",
"318 386 CURVE SMOOTH",
"361 386 OFFCURVE",
"383 376 OFFCURVE",
"383 355 CURVE SMOOTH",
"383 340 OFFCURVE",
"360 317 OFFCURVE",
"315 286 CURVE SMOOTH",
"270 255 OFFCURVE",
"199 218 OFFCURVE",
"103 174 CURVE"
);
}
);
width = 584;
}
);
note = u1D011;
unicode = 1D011;
category = Letter;
},
{
glyphname = u1D012;
lastChange = "2018-08-24 12:55:27 +0000";
layers = (
{
layerId = "2208DBFF-11B0-48D9-BA6B-B988DFB8211A";
paths = (
{
closed = 1;
nodes = (
"334 149 LINE",
"459 206 OFFCURVE",
"553 258 OFFCURVE",
"613 303 CURVE SMOOTH",
"673 348 OFFCURVE",
"703 387 OFFCURVE",
"703 418 CURVE SMOOTH",
"703 446 OFFCURVE",
"678 469 OFFCURVE",
"613 469 CURVE SMOOTH",
"584 469 OFFCURVE",
"558 463 OFFCURVE",
"535 452 CURVE",
"539 406 LINE",
"546 407 OFFCURVE",
"554 408 OFFCURVE",
"561 408 CURVE SMOOTH",
"584 408 OFFCURVE",
"598 398 OFFCURVE",
"598 383 CURVE SMOOTH",
"598 366 OFFCURVE",
"569 336 OFFCURVE",
"511 295 CURVE SMOOTH",
"453 254 OFFCURVE",
"383 213 OFFCURVE",
"301 173 CURVE"
);
},
{
closed = 1;
nodes = (
"137 170 LINE",
"383 281 OFFCURVE",
"506 371 OFFCURVE",
"506 439 CURVE SMOOTH",
"506 467 OFFCURVE",
"481 491 OFFCURVE",
"416 491 CURVE SMOOTH",
"388 491 OFFCURVE",
"362 485 OFFCURVE",
"338 474 CURVE",
"343 426 LINE",
"356 428 OFFCURVE",
"358 428 OFFCURVE",
"366 428 CURVE SMOOTH",
"389 428 OFFCURVE",
"401 420 OFFCURVE",
"401 404 CURVE SMOOTH",
"401 386 OFFCURVE",
"372 357 OFFCURVE",
"313 315 CURVE SMOOTH",
"255 274 OFFCURVE",
"185 233 OFFCURVE",
"103 193 CURVE"
);
}
);
width = 806;
}
);
note = u1D012;
unicode = 1D012;
category = Letter;
},
{
glyphname = u1D013;
lastChange = "2018-08-24 12:55:27 +0000";
layers = (
{
layerId = "2208DBFF-11B0-48D9-BA6B-B988DFB8211A";
paths = (
{
closed = 1;
nodes = (
"136 466 LINE SMOOTH",
"115 466 OFFCURVE",
"104 459 OFFCURVE",
"104 446 CURVE SMOOTH",
"104 403 OFFCURVE",
"221 298 OFFCURVE",
"340 251 CURVE SMOOTH",
"399 228 OFFCURVE",
"466 217 OFFCURVE",
"541 217 CURVE SMOOTH",
"677 217 OFFCURVE",
"855 301 OFFCURVE",
"941 418 CURVE",
"941 484 LINE",
"845 349 OFFCURVE",
"688 271 OFFCURVE",
"541 271 CURVE SMOOTH",
"451 271 OFFCURVE",
"370 305 OFFCURVE",
"296 366 CURVE SMOOTH",
"260 396 OFFCURVE",
"232 421 OFFCURVE",
"215 439 CURVE SMOOTH",
"198 457 OFFCURVE",
"179 466 OFFCURVE",
"158 466 CURVE SMOOTH"
);
}
);
width = 1044;
}
);
note = u1D013;
unicode = 1D013;
category = Letter;
},
{
glyphname = u1D014;
lastChange = "2018-08-24 12:55:27 +0000";
layers = (
{
layerId = "2208DBFF-11B0-48D9-BA6B-B988DFB8211A";
paths = (
{
closed = 1;
nodes = (
"158 458 OFFCURVE",
"172 465 OFFCURVE",
"175 475 CURVE",
"164 496 LINE",
"235 496 LINE",
"235 484 LINE SMOOTH",
"235 381 OFFCURVE",
"263 330 OFFCURVE",
"318 330 CURVE SMOOTH",
"373 330 OFFCURVE",
"401 381 OFFCURVE",
"401 484 CURVE SMOOTH",
"401 496 LINE",
"494 496 LINE",
"499 521 LINE",
"397 521 LINE",
"389 607 OFFCURVE",
"354 672 OFFCURVE",
"318 672 CURVE SMOOTH",
"282 672 OFFCURVE",
"244 601 OFFCURVE",
"236 521 CURVE",
"103 521 LINE",
"103 512 OFFCURVE",
"106 503 OFFCURVE",
"112 495 CURVE SMOOTH",
"118 486 OFFCURVE",
"130 474 OFFCURVE",
"149 458 CURVE"
);
},
{
closed = 1;
nodes = (
"360 427 OFFCURVE",
"346 395 OFFCURVE",
"318 395 CURVE SMOOTH",
"290 395 OFFCURVE",
"276 427 OFFCURVE",
"276 490 CURVE SMOOTH",
"276 496 LINE",
"360 496 LINE",
"360 490 LINE SMOOTH"
);
},
{
closed = 1;
nodes = (
"279 549 OFFCURVE",
"285 573 OFFCURVE",
"293 592 CURVE SMOOTH",
"301 611 OFFCURVE",
"310 620 OFFCURVE",
"318 620 CURVE SMOOTH",
"326 620 OFFCURVE",
"334 611 OFFCURVE",
"342 592 CURVE SMOOTH",
"350 573 OFFCURVE",
"354 549 OFFCURVE",
"355 521 CURVE",
"276 521 LINE"
);
}
);
width = 604;
}
);
note = u1D014;
unicode = 1D014;
category = Letter;
},
{
glyphname = u1D015;
lastChange = "2018-08-24 12:55:27 +0000";
layers = (
{
layerId = "2208DBFF-11B0-48D9-BA6B-B988DFB8211A";
paths = (
{
closed = 1;
nodes = (
"141 475 OFFCURVE",
"175 484 OFFCURVE",
"208 484 CURVE SMOOTH",
"259 484 OFFCURVE",
"292 464 OFFCURVE",
"318 396 CURVE SMOOTH",
"354 301 LINE SMOOTH",
"375 246 OFFCURVE",
"426 208 OFFCURVE",
"475 208 CURVE SMOOTH",
"488 208 OFFCURVE",
"502 210 OFFCURVE",
"516 216 CURVE",
"463 230 OFFCURVE",
"422 266 OFFCURVE",
"403 320 CURVE SMOOTH",
"373 404 LINE SMOOTH",
"344 486 OFFCURVE",
"293 528 OFFCURVE",
"224 528 CURVE SMOOTH",
"176 528 OFFCURVE",
"117 495 OFFCURVE",
"103 456 CURVE"
);
},
{
closed = 1;
nodes = (
"261 304 OFFCURVE",
"293 336 OFFCURVE",
"293 373 CURVE SMOOTH",
"293 412 OFFCURVE",
"261 442 OFFCURVE",
"206 442 CURVE SMOOTH",
"149 442 OFFCURVE",
"118 412 OFFCURVE",
"118 373 CURVE SMOOTH",
"118 336 OFFCURVE",
"149 304 OFFCURVE",
"206 304 CURVE SMOOTH"
);
},
{
closed = 1;
nodes = (
"233 406 OFFCURVE",
"247 392 OFFCURVE",
"247 373 CURVE SMOOTH",
"247 354 OFFCURVE",
"233 340 OFFCURVE",
"206 340 CURVE SMOOTH",
"179 340 OFFCURVE",
"163 354 OFFCURVE",
"163 373 CURVE SMOOTH",
"163 392 OFFCURVE",
"179 406 OFFCURVE",
"206 406 CURVE SMOOTH"
);
}
);
width = 619;
}
);
note = u1D015;
unicode = 1D015;
category = Letter;
},
{
glyphname = u1D016;
lastChange = "2018-08-24 12:55:27 +0000";
layers = (
{
layerId = "2208DBFF-11B0-48D9-BA6B-B988DFB8211A";
paths = (
{
closed = 1;
nodes = (
"347 301 OFFCURVE",
"374 330 OFFCURVE",
"374 362 CURVE SMOOTH",
"374 397 OFFCURVE",
"347 425 OFFCURVE",
"296 425 CURVE SMOOTH",
"247 425 OFFCURVE",
"217 397 OFFCURVE",
"217 362 CURVE SMOOTH",
"217 330 OFFCURVE",
"247 301 OFFCURVE",
"296 301 CURVE SMOOTH"
);
},
{
closed = 1;
nodes = (
"321 391 OFFCURVE",
"334 381 OFFCURVE",
"334 362 CURVE SMOOTH",
"334 343 OFFCURVE",
"321 334 OFFCURVE",
"296 334 CURVE SMOOTH",
"271 334 OFFCURVE",
"258 343 OFFCURVE",
"258 362 CURVE SMOOTH",
"258 381 OFFCURVE",
"271 391 OFFCURVE",
"296 391 CURVE SMOOTH"
);
},
{
closed = 1;
nodes = (
"390 469 LINE SMOOTH",
"405 469 OFFCURVE",
"413 477 OFFCURVE",
"413 491 CURVE SMOOTH",
"413 501 OFFCURVE",
"403 516 OFFCURVE",
"383 516 CURVE SMOOTH",
"370 516 OFFCURVE",
"357 509 OFFCURVE",
"344 496 CURVE",
"103 516 LINE",
"109 469 OFFCURVE",
"109 415 OFFCURVE",
"109 391 CURVE SMOOTH",
"107 294 LINE",
"114 287 OFFCURVE",
"127 283 OFFCURVE",
"146 283 CURVE SMOOTH",
"173 283 OFFCURVE",
"187 292 OFFCURVE",
"187 311 CURVE SMOOTH",
"187 317 OFFCURVE",
"185 327 OFFCURVE",
"180 342 CURVE SMOOTH",
"175 357 OFFCURVE",
"173 375 OFFCURVE",
"173 396 CURVE SMOOTH",
"173 432 OFFCURVE",
"175 458 OFFCURVE",
"179 474 CURVE"
);
}
);
width = 517;
}
);
note = u1D016;
unicode = 1D016;
category = Letter;
},
{
glyphname = u1D017;
lastChange = "2018-08-24 12:55:27 +0000";
layers = (
{
layerId = "2208DBFF-11B0-48D9-BA6B-B988DFB8211A";
paths = (
{
closed = 1;
nodes = (
"103 432 LINE",
"161 394 OFFCURVE",
"190 341 OFFCURVE",
"190 274 CURVE",
"235 268 LINE",
"251 325 OFFCURVE",
"304 377 OFFCURVE",
"361 408 CURVE",
"340 442 LINE",
"295 417 OFFCURVE",
"266 391 OFFCURVE",
"251 366 CURVE",
"272 455 OFFCURVE",
"282 551 OFFCURVE",
"282 654 CURVE",
"232 654 LINE",
"232 630 LINE SMOOTH",
"232 549 OFFCURVE",
"224 465 OFFCURVE",
"208 377 CURVE",
"192 415 OFFCURVE",
"166 445 OFFCURVE",
"128 467 CURVE"
);
}
);
width = 466;
}
);
note = u1D017;
unicode = 1D017;
category = Letter;
},
{
glyphname = u1D018;
lastChange = "2018-08-24 12:55:27 +0000";
layers = (
{
layerId = "2208DBFF-11B0-48D9-BA6B-B988DFB8211A";
paths = (
{
closed = 1;
nodes = (
"408 294 LINE",
"395 310 OFFCURVE",
"379 328 OFFCURVE",
"362 347 CURVE SMOOTH",
"344 367 OFFCURVE",
"325 385 OFFCURVE",
"302 404 CURVE",
"383 491 LINE",
"312 504 LINE",
"260 434 LINE",
"211 467 OFFCURVE",
"159 484 OFFCURVE",
"103 484 CURVE",
"103 425 LINE",
"145 425 OFFCURVE",
"187 414 OFFCURVE",
"228 391 CURVE",
"154 294 LINE",
"200 294 LINE",
"269 366 LINE",
"305 341 OFFCURVE",
"334 317 OFFCURVE",
"355 294 CURVE"
);
}
);
width = 511;
}
);
note = u1D018;
unicode = 1D018;
category = Letter;
},
{
glyphname = u1D019;
lastChange = "2018-08-24 12:55:27 +0000";
layers = (
{
layerId = "2208DBFF-11B0-48D9-BA6B-B988DFB8211A";
paths = (
{
closed = 1;
nodes = (
"526 464 OFFCURVE",
"517 446 OFFCURVE",
"498 446 CURVE SMOOTH",
"479 446 OFFCURVE",
"469 464 OFFCURVE",
"469 502 CURVE",
"434 502 LINE",
"434 489 OFFCURVE",
"437 474 OFFCURVE",
"442 456 CURVE",
"412 455 LINE",
"405 495 OFFCURVE",
"397 521 OFFCURVE",
"388 533 CURVE SMOOTH",
"379 545 OFFCURVE",
"367 550 OFFCURVE",
"354 550 CURVE SMOOTH",
"322 550 OFFCURVE",
"301 508 OFFCURVE",
"301 448 CURVE",
"218 442 LINE",
"230 456 OFFCURVE",
"236 473 OFFCURVE",
"236 494 CURVE SMOOTH",
"236 540 OFFCURVE",
"219 562 OFFCURVE",
"185 562 CURVE SMOOTH",
"167 562 OFFCURVE",
"152 554 OFFCURVE",
"142 539 CURVE SMOOTH",
"132 524 OFFCURVE",
"129 500 OFFCURVE",
"127 456 CURVE SMOOTH",
"125 409 OFFCURVE",
"117 326 OFFCURVE",
"103 262 CURVE",
"168 262 OFFCURVE",
"214 270 OFFCURVE",
"240 284 CURVE SMOOTH",
"265 298 OFFCURVE",
"278 321 OFFCURVE",
"278 353 CURVE SMOOTH",
"278 382 OFFCURVE",
"261 403 OFFCURVE",
"228 415 CURVE",
"301 422 LINE",
"301 370 OFFCURVE",
"322 336 OFFCURVE",
"354 336 CURVE SMOOTH",
"387 336 OFFCURVE",
"412 381 OFFCURVE",
"412 432 CURVE",
"452 434 LINE",
"461 420 OFFCURVE",
"477 413 OFFCURVE",
"498 413 CURVE SMOOTH",
"537 413 OFFCURVE",
"560 449 OFFCURVE",
"560 502 CURVE",
"526 502 LINE"
);
},
{
closed = 1;
nodes = (
"163 395 LINE",
"209 395 OFFCURVE",
"232 379 OFFCURVE",
"232 348 CURVE SMOOTH",
"232 317 OFFCURVE",
"205 302 OFFCURVE",
"152 302 CURVE"
);
},
{
closed = 1;
nodes = (
"166 485 LINE",
"166 502 OFFCURVE",
"172 511 OFFCURVE",
"185 511 CURVE SMOOTH",
"198 511 OFFCURVE",
"204 501 OFFCURVE",
"204 481 CURVE SMOOTH",
"204 458 OFFCURVE",
"180 433 OFFCURVE",
"163 425 CURVE"
);
},
{
closed = 1;
nodes = (
"378 396 OFFCURVE",
"369 380 OFFCURVE",
"354 380 CURVE SMOOTH",
"338 380 OFFCURVE",
"330 395 OFFCURVE",
"330 425 CURVE",
"382 430 LINE"
);
},
{
closed = 1;
nodes = (
"330 482 OFFCURVE",
"338 498 OFFCURVE",
"354 498 CURVE SMOOTH",
"369 498 OFFCURVE",
"378 483 OFFCURVE",
"382 452 CURVE",
"330 449 LINE"
);
}
);
width = 664;
}
);
note = u1D019;
unicode = 1D019;
category = Letter;
},
{
glyphname = u1D01A;
lastChange = "2018-08-24 12:55:27 +0000";
layers = (
{
layerId = "2208DBFF-11B0-48D9-BA6B-B988DFB8211A";
paths = (
{
closed = 1;
nodes = (
"517 377 LINE",
"182 392 LINE SMOOTH",
"165 393 OFFCURVE",
"154 393 OFFCURVE",
"151 393 CURVE SMOOTH",
"122 393 OFFCURVE",
"103 385 OFFCURVE",
"103 372 CURVE SMOOTH",
"103 353 OFFCURVE",
"131 330 OFFCURVE",
"166 330 CURVE SMOOTH",
"176 330 OFFCURVE",
"187 332 OFFCURVE",
"200 337 CURVE SMOOTH",
"212 342 OFFCURVE",
"229 344 OFFCURVE",
"252 344 CURVE SMOOTH",
"541 348 LINE"
);
}
);
width = 646;
}
);
note = u1D01A;
unicode = 1D01A;
category = Letter;
},
{
glyphname = u1D01B;
lastChange = "2018-08-24 12:55:27 +0000";
layers = (
{
layerId = "2208DBFF-11B0-48D9-BA6B-B988DFB8211A";
paths = (
{
closed = 1;
nodes = (
"131 388 OFFCURVE",
"103 361 OFFCURVE",
"103 330 CURVE SMOOTH",
"103 299 OFFCURVE",
"131 271 OFFCURVE",
"163 271 CURVE SMOOTH",
"194 271 OFFCURVE",
"218 299 OFFCURVE",
"218 330 CURVE SMOOTH",
"218 361 OFFCURVE",
"194 388 OFFCURVE",
"163 388 CURVE SMOOTH"
);
}
);
width = 323;
}
);
note = u1D01B;
unicode = 1D01B;
category = Letter;
},
{
glyphname = u1D01C;
lastChange = "2018-08-24 12:55:27 +0000";
layers = (
{
layerId = "2208DBFF-11B0-48D9-BA6B-B988DFB8211A";
paths = (
{
closed = 1;
nodes = (
"131 388 OFFCURVE",
"103 361 OFFCURVE",
"103 330 CURVE SMOOTH",
"103 299 OFFCURVE",
"131 271 OFFCURVE",
"163 271 CURVE SMOOTH",
"194 271 OFFCURVE",
"218 299 OFFCURVE",
"218 330 CURVE SMOOTH",
"218 361 OFFCURVE",
"194 388 OFFCURVE",
"163 388 CURVE SMOOTH"
);
},
{
closed = 1;
nodes = (
"288 469 OFFCURVE",
"260 444 OFFCURVE",
"260 413 CURVE SMOOTH",
"260 382 OFFCURVE",
"288 354 OFFCURVE",
"319 354 CURVE SMOOTH",
"353 354 OFFCURVE",
"377 382 OFFCURVE",
"377 413 CURVE SMOOTH",
"377 444 OFFCURVE",
"353 469 OFFCURVE",
"319 469 CURVE SMOOTH"
);
}
);
width = 481;
}
);
note = u1D01C;
unicode = 1D01C;
category = Letter;
},
{
glyphname = u1D01D;
lastChange = "2018-08-24 12:55:27 +0000";
layers = (
{
layerId = "2208DBFF-11B0-48D9-BA6B-B988DFB8211A";
paths = (
{
closed = 1;
nodes = (
"260 390 OFFCURVE",
"242 373 OFFCURVE",
"242 346 CURVE SMOOTH",
"242 322 OFFCURVE",
"260 302 OFFCURVE",
"287 302 CURVE SMOOTH",
"311 302 OFFCURVE",
"330 322 OFFCURVE",
"330 346 CURVE SMOOTH",
"330 373 OFFCURVE",
"311 390 OFFCURVE",
"287 390 CURVE SMOOTH"
);
},
{
closed = 1;
nodes = (
"401 390 OFFCURVE",
"382 373 OFFCURVE",
"382 346 CURVE SMOOTH",
"382 322 OFFCURVE",
"401 302 OFFCURVE",
"425 302 CURVE SMOOTH",
"449 302 OFFCURVE",
"468 322 OFFCURVE",
"468 346 CURVE SMOOTH",
"468 373 OFFCURVE",
"449 390 OFFCURVE",
"425 390 CURVE SMOOTH"
);
},
{
closed = 1;
nodes = (
"122 390 OFFCURVE",
"103 373 OFFCURVE",
"103 346 CURVE SMOOTH",
"103 322 OFFCURVE",
"122 302 OFFCURVE",
"146 302 CURVE SMOOTH",
"173 302 OFFCURVE",
"190 322 OFFCURVE",
"190 346 CURVE SMOOTH",
"190 373 OFFCURVE",
"173 390 OFFCURVE",
"146 390 CURVE SMOOTH"
);
}
);
width = 571;
}
);
note = u1D01D;
unicode = 1D01D;
category = Letter;
},
{
glyphname = u1D01E;
lastChange = "2018-08-24 12:55:27 +0000";
layers = (
{
layerId = "2208DBFF-11B0-48D9-BA6B-B988DFB8211A";
paths = (
{
closed = 1;
nodes = (
"314 460 LINE",
"334 448 OFFCURVE",
"351 434 OFFCURVE",
"365 418 CURVE",
"397 418 LINE",
"376 446 OFFCURVE",
"356 468 OFFCURVE",
"336 484 CURVE",
"380 530 LINE",
"344 539 LINE",
"308 504 LINE",
"281 519 OFFCURVE",
"248 530 OFFCURVE",
"209 535 CURVE",
"209 499 LINE",
"234 499 OFFCURVE",
"258 492 OFFCURVE",
"282 478 CURVE",
"228 426 LINE",
"276 416 LINE"
);
},
{
closed = 1;
nodes = (
"266 226 LINE",
"297 284 OFFCURVE",
"334 318 OFFCURVE",
"388 329 CURVE SMOOTH",
"415 334 OFFCURVE",
"463 339 OFFCURVE",
"522 343 CURVE SMOOTH",
"585 347 OFFCURVE",
"614 375 OFFCURVE",
"614 425 CURVE SMOOTH",
"614 469 OFFCURVE",
"597 491 OFFCURVE",
"562 491 CURVE SMOOTH",
"542 491 OFFCURVE",
"521 478 OFFCURVE",
"521 455 CURVE SMOOTH",
"521 431 OFFCURVE",
"544 425 OFFCURVE",
"551 425 CURVE SMOOTH",
"558 425 OFFCURVE",
"562 419 OFFCURVE",
"562 412 CURVE SMOOTH",
"562 396 OFFCURVE",
"542 388 OFFCURVE",
"503 388 CURVE SMOOTH",
"474 388 LINE SMOOTH",
"390 388 OFFCURVE",
"331 364 OFFCURVE",
"269 278 CURVE",
"268 366 OFFCURVE",
"250 401 OFFCURVE",
"188 401 CURVE SMOOTH",
"139 401 OFFCURVE",
"103 371 OFFCURVE",
"103 343 CURVE SMOOTH",
"103 322 OFFCURVE",
"112 312 OFFCURVE",
"131 312 CURVE SMOOTH",
"140 312 OFFCURVE",
"152 318 OFFCURVE",
"165 333 CURVE SMOOTH",
"178 348 OFFCURVE",
"188 355 OFFCURVE",
"197 355 CURVE SMOOTH",
"224 355 OFFCURVE",
"240 307 OFFCURVE",
"240 248 CURVE SMOOTH",
"240 236 LINE"
);
}
);
width = 719;
}
);
note = u1D01E;
unicode = 1D01E;
category = Letter;
},
{
glyphname = u1D01F;
lastChange = "2018-08-24 12:55:27 +0000";
layers = (
{
layerId = "2208DBFF-11B0-48D9-BA6B-B988DFB8211A";
paths = (
{
closed = 1;
nodes = (
"510 361 LINE",
"388 613 LINE",
"311 613 LINE",
"311 370 LINE",
"137 370 LINE",
"137 336 LINE",
"146 334 LINE SMOOTH",
"165 330 OFFCURVE",
"174 316 OFFCURVE",
"174 294 CURVE SMOOTH",
"174 262 OFFCURVE",
"150 229 OFFCURVE",
"103 193 CURVE",
"113 180 LINE",
"179 215 OFFCURVE",
"224 263 OFFCURVE",
"224 296 CURVE SMOOTH",
"224 315 OFFCURVE",
"216 329 OFFCURVE",
"200 336 CURVE",
"311 336 LINE",
"311 193 LINE",
"366 193 LINE",
"366 336 LINE",
"510 336 LINE"
);
},
{
closed = 1;
nodes = (
"463 370 LINE",
"366 370 LINE",
"366 568 LINE"
);
}
);
width = 613;
}
);
note = u1D01F;
unicode = 1D01F;
category = Letter;
},
{
glyphname = u1D020;
lastChange = "2018-08-24 12:55:27 +0000";
layers = (
{
layerId = "2208DBFF-11B0-48D9-BA6B-B988DFB8211A";
paths = (
{
closed = 1;
nodes = (
"198 293 OFFCURVE",
"207 289 OFFCURVE",
"216 289 CURVE SMOOTH",
"229 289 OFFCURVE",
"243 295 OFFCURVE",
"257 310 CURVE SMOOTH",
"485 547 LINE",
"478 554 OFFCURVE",
"469 558 OFFCURVE",
"458 558 CURVE SMOOTH",
"443 558 OFFCURVE",
"430 551 OFFCURVE",
"418 538 CURVE SMOOTH",
"190 301 LINE"
);
},
{
closed = 1;
nodes = (
"111 311 OFFCURVE",
"120 307 OFFCURVE",
"129 307 CURVE SMOOTH",
"142 307 OFFCURVE",
"153 315 OFFCURVE",
"167 329 CURVE SMOOTH",
"397 568 LINE",
"391 573 OFFCURVE",
"382 576 OFFCURVE",
"369 576 CURVE SMOOTH",
"358 576 OFFCURVE",
"344 570 OFFCURVE",
"331 556 CURVE SMOOTH",
"103 319 LINE"
);
}
);
width = 589;
}
);
note = u1D020;
unicode = 1D020;
category = Letter;
},
{
glyphname = u1D021;
lastChange = "2018-08-24 12:55:27 +0000";
layers = (
{
layerId = "2208DBFF-11B0-48D9-BA6B-B988DFB8211A";
paths = (
{
closed = 1;
nodes = (
"397 452 LINE",
"446 448 LINE",
"454 429 OFFCURVE",
"458 404 OFFCURVE",
"458 373 CURVE SMOOTH",
"458 351 OFFCURVE",
"455 320 OFFCURVE",
"448 280 CURVE",
"463 271 LINE",
"491 287 OFFCURVE",
"533 304 OFFCURVE",
"560 304 CURVE SMOOTH",
"585 304 OFFCURVE",
"608 289 OFFCURVE",
"631 259 CURVE",
"667 288 LINE",
"658 312 OFFCURVE",
"617 343 OFFCURVE",
"582 343 CURVE SMOOTH",
"560 343 OFFCURVE",
"532 334 OFFCURVE",
"499 318 CURVE",
"505 342 OFFCURVE",
"509 358 OFFCURVE",
"509 377 CURVE SMOOTH",
"509 397 OFFCURVE",
"505 419 OFFCURVE",
"498 444 CURVE",
"510 444 LINE SMOOTH",
"527 444 OFFCURVE",
"535 449 OFFCURVE",
"535 458 CURVE SMOOTH",
"535 468 OFFCURVE",
"526 485 OFFCURVE",
"499 485 CURVE SMOOTH",
"481 485 LINE",
"434 569 OFFCURVE",
"357 611 OFFCURVE",
"251 611 CURVE SMOOTH",
"209 611 OFFCURVE",
"178 606 OFFCURVE",
"158 598 CURVE SMOOTH",
"138 590 OFFCURVE",
"128 580 OFFCURVE",
"128 569 CURVE SMOOTH",
"128 548 OFFCURVE",
"165 517 OFFCURVE",
"190 517 CURVE SMOOTH",
"198 517 OFFCURVE",
"203 523 OFFCURVE",
"208 538 CURVE SMOOTH",
"213 553 OFFCURVE",
"236 559 OFFCURVE",
"278 559 CURVE SMOOTH",
"341 559 OFFCURVE",
"390 536 OFFCURVE",
"424 490 CURVE",
"388 491 LINE"
);
},
{
closed = 1;
nodes = (
"418 252 LINE",
"188 469 LINE",
"179 490 LINE",
"161 500 OFFCURVE",
"142 506 OFFCURVE",
"121 506 CURVE SMOOTH",
"109 506 OFFCURVE",
"103 502 OFFCURVE",
"103 494 CURVE SMOOTH",
"103 480 OFFCURVE",
"122 454 OFFCURVE",
"136 442 CURVE SMOOTH",
"425 208 LINE"
);
}
);
width = 770;
}
);
note = u1D021;
unicode = 1D021;
category = Letter;
},
{
glyphname = u1D022;
lastChange = "2018-08-24 12:55:27 +0000";
layers = (
{
layerId = "2208DBFF-11B0-48D9-BA6B-B988DFB8211A";
paths = (
{
closed = 1;
nodes = (
"611 344 LINE SMOOTH",
"623 344 OFFCURVE",
"629 349 OFFCURVE",
"629 357 CURVE SMOOTH",
"629 382 OFFCURVE",
"556 458 OFFCURVE",
"482 488 CURVE SMOOTH",
"446 503 OFFCURVE",
"403 510 OFFCURVE",
"355 510 CURVE SMOOTH",
"267 510 OFFCURVE",
"156 456 OFFCURVE",
"103 380 CURVE",
"103 336 LINE",
"156 418 OFFCURVE",
"252 474 OFFCURVE",
"355 474 CURVE SMOOTH",
"412 474 OFFCURVE",
"459 448 OFFCURVE",
"512 406 CURVE SMOOTH",
"527 394 OFFCURVE",
"540 381 OFFCURVE",
"549 371 CURVE SMOOTH",
"564 354 OFFCURVE",
"576 344 OFFCURVE",
"591 344 CURVE SMOOTH"
);
}
);
width = 734;
}
);
note = u1D022;
unicode = 1D022;
category = Letter;
},
{
glyphname = u1D023;
lastChange = "2018-08-24 12:55:27 +0000";
layers = (
{
layerId = "2208DBFF-11B0-48D9-BA6B-B988DFB8211A";
paths = (
{
closed = 1;
nodes = (
"124 446 LINE SMOOTH",
"111 446 OFFCURVE",
"105 441 OFFCURVE",
"105 432 CURVE SMOOTH",
"105 407 OFFCURVE",
"180 330 OFFCURVE",
"267 301 CURVE SMOOTH",
"313 286 OFFCURVE",
"358 276 OFFCURVE",
"403 276 CURVE SMOOTH",
"497 276 OFFCURVE",
"625 336 OFFCURVE",
"676 412 CURVE",
"676 455 LINE",
"631 383 OFFCURVE",
"547 336 OFFCURVE",
"463 319 CURVE",
"458 328 OFFCURVE",
"456 337 OFFCURVE",
"456 346 CURVE SMOOTH",
"456 360 OFFCURVE",
"463 375 OFFCURVE",
"478 389 CURVE SMOOTH",
"492 403 OFFCURVE",
"499 412 OFFCURVE",
"499 416 CURVE SMOOTH",
"499 422 OFFCURVE",
"491 426 OFFCURVE",
"475 426 CURVE SMOOTH",
"444 426 OFFCURVE",
"416 395 OFFCURVE",
"416 354 CURVE SMOOTH",
"416 337 OFFCURVE",
"418 323 OFFCURVE",
"424 312 CURVE",
"377 312 LINE",
"384 331 OFFCURVE",
"388 348 OFFCURVE",
"388 362 CURVE SMOOTH",
"388 403 OFFCURVE",
"361 434 OFFCURVE",
"330 434 CURVE SMOOTH",
"313 434 OFFCURVE",
"304 431 OFFCURVE",
"304 425 CURVE SMOOTH",
"304 421 OFFCURVE",
"307 417 OFFCURVE",
"311 413 CURVE SMOOTH",
"336 388 OFFCURVE",
"348 368 OFFCURVE",
"348 354 CURVE SMOOTH",
"348 344 OFFCURVE",
"345 333 OFFCURVE",
"340 323 CURVE",
"289 334 OFFCURVE",
"220 388 OFFCURVE",
"184 429 CURVE SMOOTH",
"174 440 OFFCURVE",
"164 446 OFFCURVE",
"149 446 CURVE SMOOTH"
);
}
);
width = 779;
}
);
note = u1D023;
unicode = 1D023;
category = Letter;
},
{
glyphname = u1D024;
lastChange = "2018-08-24 12:55:27 +0000";
layers = (
{
layerId = "2208DBFF-11B0-48D9-BA6B-B988DFB8211A";
paths = (
{
closed = 1;
nodes = (
"106 412 LINE",
"138 404 OFFCURVE",
"173 382 OFFCURVE",
"193 354 CURVE SMOOTH",
"208 333 OFFCURVE",
"215 306 OFFCURVE",
"218 291 CURVE SMOOTH",
"220 280 OFFCURVE",
"232 278 OFFCURVE",
"240 278 CURVE SMOOTH",
"255 278 OFFCURVE",
"269 296 OFFCURVE",
"281 321 CURVE SMOOTH",
"295 350 OFFCURVE",
"314 381 OFFCURVE",
"332 401 CURVE SMOOTH",
"352 424 OFFCURVE",
"362 438 OFFCURVE",
"362 444 CURVE SMOOTH",
"362 452 OFFCURVE",
"354 456 OFFCURVE",
"340 456 CURVE SMOOTH",
"322 456 OFFCURVE",
"297 421 OFFCURVE",
"272 383 CURVE SMOOTH",
"259 363 OFFCURVE",
"250 345 OFFCURVE",
"242 329 CURVE",
"240 401 OFFCURVE",
"160 466 OFFCURVE",
"135 466 CURVE SMOOTH",
"130 466 OFFCURVE",
"126 465 OFFCURVE",
"124 462 CURVE SMOOTH",
"111 452 OFFCURVE",
"106 440 OFFCURVE",
"106 422 CURVE SMOOTH"
);
}
);
width = 467;
}
);
note = u1D024;
unicode = 1D024;
category = Letter;
},
{
glyphname = u1D025;
lastChange = "2018-08-24 12:55:27 +0000";
layers = (
{
layerId = "2208DBFF-11B0-48D9-BA6B-B988DFB8211A";
paths = (
{
closed = 1;
nodes = (
"132 546 LINE",
"119 490 OFFCURVE",
"103 397 OFFCURVE",
"103 374 CURVE SMOOTH",
"103 299 OFFCURVE",
"131 271 OFFCURVE",
"179 271 CURVE SMOOTH",
"210 271 OFFCURVE",
"238 293 OFFCURVE",
"261 333 CURVE SMOOTH",
"274 355 LINE",
"274 348 LINE SMOOTH",
"274 295 OFFCURVE",
"301 268 OFFCURVE",
"354 268 CURVE SMOOTH",
"431 268 OFFCURVE",
"584 389 OFFCURVE",
"740 578 CURVE",
"733 578 LINE",
"659 498 OFFCURVE",
"457 301 OFFCURVE",
"372 301 CURVE SMOOTH",
"348 301 OFFCURVE",
"330 323 OFFCURVE",
"330 355 CURVE SMOOTH",
"330 373 OFFCURVE",
"332 392 OFFCURVE",
"336 412 CURVE",
"268 404 LINE",
"246 359 OFFCURVE",
"230 331 OFFCURVE",
"221 319 CURVE SMOOTH",
"212 307 OFFCURVE",
"202 302 OFFCURVE",
"193 302 CURVE SMOOTH",
"175 302 OFFCURVE",
"166 321 OFFCURVE",
"166 360 CURVE SMOOTH",
"166 398 OFFCURVE",
"176 454 OFFCURVE",
"194 526 CURVE SMOOTH",
"200 552 LINE"
);
}
);
width = 844;
}
);
note = u1D025;
unicode = 1D025;
category = Letter;
},
{
glyphname = u1D026;
lastChange = "2018-08-24 12:55:27 +0000";
layers = (
{
layerId = "2208DBFF-11B0-48D9-BA6B-B988DFB8211A";
paths = (
{
closed = 1;
nodes = (
"383 174 LINE",
"382 174 LINE",
"467 418 LINE",
"257 438 LINE",
"257 418 LINE",
"266 412 OFFCURVE",
"276 400 OFFCURVE",
"287 383 CURVE",
"270 375 OFFCURVE",
"250 370 OFFCURVE",
"228 370 CURVE SMOOTH",
"200 370 OFFCURVE",
"173 412 OFFCURVE",
"173 448 CURVE SMOOTH",
"173 522 OFFCURVE",
"250 568 OFFCURVE",
"383 571 CURVE",
"383 588 LINE",
"370 591 OFFCURVE",
"350 593 OFFCURVE",
"323 593 CURVE SMOOTH",
"206 593 OFFCURVE",
"103 537 OFFCURVE",
"103 463 CURVE SMOOTH",
"103 398 OFFCURVE",
"186 336 OFFCURVE",
"242 336 CURVE SMOOTH",
"264 336 OFFCURVE",
"284 339 OFFCURVE",
"303 346 CURVE SMOOTH",
"322 353 OFFCURVE",
"331 359 OFFCURVE",
"331 365 CURVE SMOOTH",
"331 371 OFFCURVE",
"324 381 OFFCURVE",
"311 396 CURVE",
"396 380 LINE",
"360 251 OFFCURVE",
"341 179 OFFCURVE",
"339 170 CURVE SMOOTH",
"337 159 OFFCURVE",
"336 150 OFFCURVE",
"336 146 CURVE SMOOTH",
"336 137 OFFCURVE",
"352 131 OFFCURVE",
"361 131 CURVE SMOOTH",
"367 131 OFFCURVE",
"381 139 OFFCURVE",
"401 156 CURVE SMOOTH",
"476 222 LINE",
"432 232 LINE"
);
}
);
width = 581;
}
);
note = u1D026;
unicode = 1D026;
category = Letter;
},
{
glyphname = u1D027;
lastChange = "2018-08-24 12:55:27 +0000";
layers = (
{
layerId = "2208DBFF-11B0-48D9-BA6B-B988DFB8211A";
paths = (
{
closed = 1;
nodes = (
"162 481 OFFCURVE",
"103 448 OFFCURVE",
"103 416 CURVE SMOOTH",
"103 388 OFFCURVE",
"129 366 OFFCURVE",
"149 366 CURVE SMOOTH",
"166 366 OFFCURVE",
"174 374 OFFCURVE",
"174 388 CURVE SMOOTH",
"174 395 OFFCURVE",
"170 401 OFFCURVE",
"164 408 CURVE",
"179 420 OFFCURVE",
"200 426 OFFCURVE",
"228 426 CURVE SMOOTH",
"265 426 OFFCURVE",
"291 392 OFFCURVE",
"293 336 CURVE",
"270 322 OFFCURVE",
"250 289 OFFCURVE",
"250 269 CURVE SMOOTH",
"250 247 OFFCURVE",
"257 236 OFFCURVE",
"271 236 CURVE SMOOTH",
"304 236 OFFCURVE",
"332 270 OFFCURVE",
"332 313 CURVE SMOOTH",
"332 317 OFFCURVE",
"332 321 OFFCURVE",
"331 325 CURVE",
"344 338 OFFCURVE",
"366 346 OFFCURVE",
"397 344 CURVE SMOOTH",
"575 334 LINE SMOOTH",
"692 327 OFFCURVE",
"787 399 OFFCURVE",
"794 491 CURVE",
"736 485 LINE",
"718 417 OFFCURVE",
"660 374 OFFCURVE",
"589 377 CURVE SMOOTH",
"441 383 LINE SMOOTH",
"401 385 OFFCURVE",
"361 375 OFFCURVE",
"329 360 CURVE",
"319 438 OFFCURVE",
"279 481 OFFCURVE",
"217 481 CURVE SMOOTH"
);
}
);
width = 899;
}
);
note = u1D027;
unicode = 1D027;
category = Letter;
},
{
glyphname = u1D028;
lastChange = "2018-08-24 12:55:27 +0000";
layers = (
{
layerId = "2208DBFF-11B0-48D9-BA6B-B988DFB8211A";
paths = (
{
closed = 1;
nodes = (
"468 499 LINE",
"467 493 OFFCURVE",
"467 487 OFFCURVE",
"467 481 CURVE SMOOTH",
"467 458 OFFCURVE",
"475 439 OFFCURVE",
"490 425 CURVE",
"490 377 OFFCURVE",
"455 346 OFFCURVE",
"404 346 CURVE SMOOTH",
"373 346 OFFCURVE",
"353 353 OFFCURVE",
"343 365 CURVE",
"337 392 OFFCURVE",
"327 415 OFFCURVE",
"312 434 CURVE",
"287 424 LINE",
"285 418 OFFCURVE",
"283 412 OFFCURVE",
"283 404 CURVE SMOOTH",
"283 380 OFFCURVE",
"292 361 OFFCURVE",
"308 348 CURVE",
"308 296 OFFCURVE",
"264 259 OFFCURVE",
"200 259 CURVE SMOOTH",
"162 259 OFFCURVE",
"139 276 OFFCURVE",
"132 311 CURVE",
"114 301 OFFCURVE",
"103 276 OFFCURVE",
"103 260 CURVE SMOOTH",
"103 224 OFFCURVE",
"146 209 OFFCURVE",
"199 209 CURVE SMOOTH",
"271 209 OFFCURVE",
"330 249 OFFCURVE",
"340 310 CURVE",
"351 304 OFFCURVE",
"372 301 OFFCURVE",
"403 301 CURVE SMOOTH",
"466 301 OFFCURVE",
"509 333 OFFCURVE",
"521 380 CURVE",
"535 375 OFFCURVE",
"555 372 OFFCURVE",
"581 372 CURVE SMOOTH",
"649 372 OFFCURVE",
"697 409 OFFCURVE",
"703 468 CURVE",
"715 459 OFFCURVE",
"734 455 OFFCURVE",
"761 455 CURVE SMOOTH",
"851 455 OFFCURVE",
"935 572 OFFCURVE",
"935 691 CURVE",
"923 691 LINE",
"888 587 OFFCURVE",
"818 509 OFFCURVE",
"763 509 CURVE SMOOTH",
"708 509 OFFCURVE",
"687 540 OFFCURVE",
"674 582 CURVE",
"647 570 LINE",
"646 563 OFFCURVE",
"646 557 OFFCURVE",
"646 550 CURVE SMOOTH",
"646 526 OFFCURVE",
"653 508 OFFCURVE",
"667 496 CURVE",
"667 451 OFFCURVE",
"634 416 OFFCURVE",
"582 416 CURVE SMOOTH",
"565 416 OFFCURVE",
"547 419 OFFCURVE",
"527 426 CURVE",
"525 449 OFFCURVE",
"515 478 OFFCURVE",
"496 511 CURVE"
);
}
);
width = 1038;
}
);
note = u1D028;
unicode = 1D028;
category = Letter;
},
{
glyphname = u1D029;
lastChange = "2018-08-24 12:55:27 +0000";
layers = (
{
layerId = "2208DBFF-11B0-48D9-BA6B-B988DFB8211A";
paths = (
{
closed = 1;
nodes = (
"112 282 LINE SMOOTH",
"227 282 OFFCURVE",
"318 330 OFFCURVE",
"318 404 CURVE SMOOTH",
"318 438 OFFCURVE",
"293 460 OFFCURVE",
"252 460 CURVE SMOOTH",
"218 460 OFFCURVE",
"187 444 OFFCURVE",
"187 416 CURVE SMOOTH",
"187 396 OFFCURVE",
"210 386 OFFCURVE",
"224 386 CURVE SMOOTH",
"230 386 OFFCURVE",
"236 388 OFFCURVE",
"242 390 CURVE",
"246 384 OFFCURVE",
"248 378 OFFCURVE",
"248 373 CURVE SMOOTH",
"248 340 OFFCURVE",
"175 305 OFFCURVE",
"103 302 CURVE",
"103 282 LINE"
);
},
{
closed = 1;
nodes = (
"562 487 LINE",
"518 521 OFFCURVE",
"489 539 OFFCURVE",
"474 539 CURVE SMOOTH",
"458 539 OFFCURVE",
"443 527 OFFCURVE",
"443 510 CURVE SMOOTH",
"443 501 OFFCURVE",
"447 495 OFFCURVE",
"455 490 CURVE SMOOTH",
"518 449 LINE SMOOTH",
"528 442 OFFCURVE",
"538 440 OFFCURVE",
"548 440 CURVE SMOOTH",
"563 440 OFFCURVE",
"577 447 OFFCURVE",
"590 460 CURVE SMOOTH",
"829 697 LINE",
"809 697 LINE"
);
},
{
closed = 1;
nodes = (
"518 276 LINE",
"430 383 LINE",
"425 401 LINE",
"408 410 OFFCURVE",
"394 415 OFFCURVE",
"382 415 CURVE SMOOTH",
"360 415 OFFCURVE",
"349 408 OFFCURVE",
"349 394 CURVE SMOOTH",
"349 383 OFFCURVE",
"356 371 OFFCURVE",
"370 360 CURVE SMOOTH",
"526 235 LINE"
);
},
{
closed = 1;
nodes = (
"634 276 LINE",
"546 383 LINE",
"541 401 LINE",
"522 410 OFFCURVE",
"508 415 OFFCURVE",
"498 415 CURVE SMOOTH",
"476 415 OFFCURVE",
"465 408 OFFCURVE",
"465 393 CURVE SMOOTH",
"465 382 OFFCURVE",
"471 371 OFFCURVE",
"485 360 CURVE SMOOTH",
"641 235 LINE"
);
}
);
width = 934;
}
);
note = u1D029;
unicode = 1D029;
category = Letter;
},
{
glyphname = u1D02A;
lastChange = "2018-08-24 12:55:27 +0000";
layers = (
{
layerId = "2208DBFF-11B0-48D9-BA6B-B988DFB8211A";
paths = (
{
closed = 1;
nodes = (
"516 416 LINE",
"531 431 OFFCURVE",
"559 439 OFFCURVE",
"598 439 CURVE SMOOTH",
"654 439 OFFCURVE",
"698 402 OFFCURVE",
"698 370 CURVE SMOOTH",
"698 312 OFFCURVE",
"633 280 OFFCURVE",
"535 280 CURVE SMOOTH",
"511 280 OFFCURVE",
"477 283 OFFCURVE",
"434 288 CURVE SMOOTH",
"390 293 OFFCURVE",
"350 296 OFFCURVE",
"311 296 CURVE SMOOTH",
"238 296 OFFCURVE",
"169 285 OFFCURVE",
"103 262 CURVE",
"114 242 LINE",
"171 253 OFFCURVE",
"236 259 OFFCURVE",
"310 259 CURVE SMOOTH",
"350 259 OFFCURVE",
"390 254 OFFCURVE",
"431 244 CURVE SMOOTH",
"472 234 OFFCURVE",
"507 228 OFFCURVE",
"538 228 CURVE SMOOTH",
"587 228 OFFCURVE",
"646 235 OFFCURVE",
"703 282 CURVE",
"703 265 LINE SMOOTH",
"703 234 OFFCURVE",
"727 210 OFFCURVE",
"768 210 CURVE SMOOTH",
"800 210 OFFCURVE",
"818 228 OFFCURVE",
"821 259 CURVE",
"827 259 LINE",
"829 224 OFFCURVE",
"846 206 OFFCURVE",
"878 206 CURVE SMOOTH",
"887 206 OFFCURVE",
"895 209 OFFCURVE",
"899 216 CURVE",
"844 338 LINE",
"805 348 LINE",
"798 289 OFFCURVE",
"785 259 OFFCURVE",
"766 259 CURVE SMOOTH",
"751 259 OFFCURVE",
"743 275 OFFCURVE",
"743 308 CURVE SMOOTH",
"743 315 OFFCURVE",
"744 324 OFFCURVE",
"747 335 CURVE SMOOTH",
"749 344 OFFCURVE",
"750 358 OFFCURVE",
"750 374 CURVE SMOOTH",
"750 447 OFFCURVE",
"691 490 OFFCURVE",
"588 490 CURVE SMOOTH",
"551 490 OFFCURVE",
"520 484 OFFCURVE",
"493 473 CURVE SMOOTH",
"466 462 OFFCURVE",
"452 450 OFFCURVE",
"452 439 CURVE SMOOTH",
"452 433 OFFCURVE",
"455 427 OFFCURVE",
"459 422 CURVE SMOOTH",
"464 417 OFFCURVE",
"466 415 OFFCURVE",
"466 413 CURVE SMOOTH",
"466 411 OFFCURVE",
"464 409 OFFCURVE",
"462 407 CURVE SMOOTH",
"459 406 OFFCURVE",
"458 403 OFFCURVE",
"458 401 CURVE SMOOTH",
"458 389 OFFCURVE",
"491 373 OFFCURVE",
"509 373 CURVE SMOOTH",
"528 373 OFFCURVE",
"538 380 OFFCURVE",
"538 395 CURVE SMOOTH",
"538 406 OFFCURVE",
"531 412 OFFCURVE",
"516 412 CURVE"
);
}
);
width = 1002;
}
);
note = u1D02A;
unicode = 1D02A;
category = Letter;
},
{
glyphname = u1D02B;
lastChange = "2018-08-24 12:55:27 +0000";
layers = (
{
layerId = "2208DBFF-11B0-48D9-BA6B-B988DFB8211A";
paths = (
{
closed = 1;
nodes = (
"476 388 LINE",
"365 620 LINE",
"294 620 LINE",
"294 396 LINE",
"136 396 LINE",
"136 365 LINE",
"157 358 OFFCURVE",
"167 346 OFFCURVE",
"167 329 CURVE SMOOTH",
"167 297 OFFCURVE",
"146 266 OFFCURVE",
"103 235 CURVE",
"113 222 LINE",
"177 255 OFFCURVE",
"215 300 OFFCURVE",
"215 329 CURVE SMOOTH",
"215 341 OFFCURVE",
"208 353 OFFCURVE",
"193 365 CURVE",
"294 365 LINE",
"294 235 LINE",
"319 235 LINE",
"383 251 OFFCURVE",
"449 259 OFFCURVE",
"516 259 CURVE SMOOTH",
"551 259 OFFCURVE",
"589 254 OFFCURVE",
"632 244 CURVE SMOOTH",
"675 234 OFFCURVE",
"712 228 OFFCURVE",
"743 228 CURVE SMOOTH",
"801 228 OFFCURVE",
"852 238 OFFCURVE",
"908 282 CURVE",
"908 265 LINE SMOOTH",
"908 234 OFFCURVE",
"932 210 OFFCURVE",
"973 210 CURVE SMOOTH",
"1004 210 OFFCURVE",
"1022 226 OFFCURVE",
"1027 259 CURVE",
"1030 259 LINE",
"1036 224 OFFCURVE",
"1053 206 OFFCURVE",
"1081 206 CURVE SMOOTH",
"1091 206 OFFCURVE",
"1099 209 OFFCURVE",
"1103 216 CURVE",
"1049 338 LINE",
"1009 348 LINE",
"1007 321 OFFCURVE",
"1002 299 OFFCURVE",
"995 283 CURVE SMOOTH",
"988 267 OFFCURVE",
"979 259 OFFCURVE",
"971 259 CURVE SMOOTH",
"956 259 OFFCURVE",
"948 275 OFFCURVE",
"948 308 CURVE SMOOTH",
"948 315 OFFCURVE",
"949 323 OFFCURVE",
"952 335 CURVE SMOOTH",
"955 347 OFFCURVE",
"956 358 OFFCURVE",
"956 374 CURVE SMOOTH",
"956 444 OFFCURVE",
"897 490 OFFCURVE",
"792 490 CURVE SMOOTH",
"755 490 OFFCURVE",
"723 484 OFFCURVE",
"696 473 CURVE SMOOTH",
"669 462 OFFCURVE",
"656 450 OFFCURVE",
"656 439 CURVE SMOOTH",
"656 433 OFFCURVE",
"658 428 OFFCURVE",
"664 422 CURVE SMOOTH",
"668 418 OFFCURVE",
"671 415 OFFCURVE",
"671 413 CURVE SMOOTH",
"671 411 OFFCURVE",
"670 409 OFFCURVE",
"667 407 CURVE SMOOTH",
"665 406 OFFCURVE",
"664 403 OFFCURVE",
"664 401 CURVE SMOOTH",
"664 389 OFFCURVE",
"694 373 OFFCURVE",
"714 373 CURVE SMOOTH",
"733 373 OFFCURVE",
"743 380 OFFCURVE",
"743 395 CURVE SMOOTH",
"743 406 OFFCURVE",
"735 412 OFFCURVE",
"719 412 CURVE",
"719 416 LINE",
"729 426 OFFCURVE",
"758 439 OFFCURVE",
"802 439 CURVE SMOOTH",
"860 439 OFFCURVE",
"905 401 OFFCURVE",
"905 370 CURVE SMOOTH",
"905 314 OFFCURVE",
"840 280 OFFCURVE",
"740 280 CURVE SMOOTH",
"714 280 OFFCURVE",
"680 283 OFFCURVE",
"638 288 CURVE SMOOTH",
"595 293 OFFCURVE",
"555 296 OFFCURVE",
"517 296 CURVE SMOOTH",
"457 296 OFFCURVE",
"400 287 OFFCURVE",
"346 269 CURVE",
"346 365 LINE",
"476 365 LINE"
);
},
{
closed = 1;
nodes = (
"433 396 LINE",
"346 396 LINE",
"346 577 LINE"
);
}
);
width = 1207;
}
);
note = u1D02B;
unicode = 1D02B;
category = Letter;
},
{
glyphname = u1D02C;
lastChange = "2018-08-24 12:55:27 +0000";
layers = (
{
layerId = "2208DBFF-11B0-48D9-BA6B-B988DFB8211A";
paths = (
{
closed = 1;
nodes = (
"502 348 LINE SMOOTH",
"468 321 OFFCURVE",
"442 308 OFFCURVE",
"425 308 CURVE SMOOTH",
"409 308 OFFCURVE",
"401 324 OFFCURVE",
"401 355 CURVE SMOOTH",
"401 372 LINE SMOOTH",
"401 383 OFFCURVE",
"391 388 OFFCURVE",
"370 388 CURVE SMOOTH",
"339 388 OFFCURVE",
"330 375 OFFCURVE",
"330 352 CURVE SMOOTH",
"330 343 LINE",
"319 292 OFFCURVE",
"298 261 OFFCURVE",
"268 250 CURVE",
"250 306 OFFCURVE",
"217 346 OFFCURVE",
"174 346 CURVE SMOOTH",
"131 346 OFFCURVE",
"103 320 OFFCURVE",
"103 283 CURVE SMOOTH",
"103 244 OFFCURVE",
"155 204 OFFCURVE",
"230 204 CURVE SMOOTH",
"251 204 LINE",
"260 171 OFFCURVE",
"266 144 OFFCURVE",
"268 121 CURVE",
"282 144 LINE",
"282 171 OFFCURVE",
"280 193 OFFCURVE",
"276 209 CURVE",
"314 224 OFFCURVE",
"341 251 OFFCURVE",
"355 293 CURVE",
"378 271 OFFCURVE",
"402 260 OFFCURVE",
"425 260 CURVE SMOOTH",
"448 260 OFFCURVE",
"475 271 OFFCURVE",
"502 296 CURVE SMOOTH",
"866 629 LINE",
"850 629 LINE"
);
},
{
closed = 1;
nodes = (
"156 297 OFFCURVE",
"164 304 OFFCURVE",
"180 304 CURVE SMOOTH",
"202 304 OFFCURVE",
"222 283 OFFCURVE",
"239 240 CURVE",
"224 240 LINE SMOOTH",
"179 240 OFFCURVE",
"156 266 OFFCURVE",
"156 282 CURVE SMOOTH"
);
}
);
width = 971;
}
);
note = u1D02C;
unicode = 1D02C;
category = Letter;
},
{
glyphname = u1D02D;
lastChange = "2018-08-24 12:55:27 +0000";
layers = (
{
layerId = "2208DBFF-11B0-48D9-BA6B-B988DFB8211A";
paths = (
{
closed = 1;
nodes = (
"372 439 LINE",
"364 498 OFFCURVE",
"338 577 OFFCURVE",
"300 577 CURVE SMOOTH",
"267 577 OFFCURVE",
"232 518 OFFCURVE",
"224 439 CURVE",
"103 439 LINE",
"103 402 OFFCURVE",
"117 372 OFFCURVE",
"146 348 CURVE",
"155 348 OFFCURVE",
"164 355 OFFCURVE",
"173 370 CURVE",
"167 382 OFFCURVE",
"164 394 OFFCURVE",
"164 406 CURVE",
"222 406 LINE",
"222 311 OFFCURVE",
"244 266 OFFCURVE",
"300 266 CURVE SMOOTH",
"349 266 OFFCURVE",
"373 313 OFFCURVE",
"373 406 CURVE",
"413 406 LINE",
"417 352 OFFCURVE",
"444 319 OFFCURVE",
"487 319 CURVE SMOOTH",
"530 319 OFFCURVE",
"562 352 OFFCURVE",
"578 406 CURVE",
"578 401 LINE SMOOTH",
"578 354 OFFCURVE",
"591 331 OFFCURVE",
"650 331 CURVE SMOOTH",
"702 331 OFFCURVE",
"773 369 OFFCURVE",
"830 424 CURVE",
"829 426 LINE",
"769 382 OFFCURVE",
"711 360 OFFCURVE",
"655 360 CURVE SMOOTH",
"622 360 OFFCURVE",
"614 377 OFFCURVE",
"614 412 CURVE SMOOTH",
"614 423 OFFCURVE",
"617 437 OFFCURVE",
"624 455 CURVE",
"617 456 OFFCURVE",
"607 456 OFFCURVE",
"600 456 CURVE SMOOTH",
"581 456 OFFCURVE",
"556 455 OFFCURVE",
"551 435 CURVE SMOOTH",
"545 411 LINE SMOOTH",
"536 374 OFFCURVE",
"521 355 OFFCURVE",
"502 355 CURVE SMOOTH",
"475 355 OFFCURVE",
"460 382 OFFCURVE",
"460 413 CURVE SMOOTH",
"460 419 OFFCURVE",
"461 428 OFFCURVE",
"463 439 CURVE"
);
},
{
closed = 1;
nodes = (
"467 577 OFFCURVE",
"488 593 OFFCURVE",
"530 593 CURVE SMOOTH",
"550 593 OFFCURVE",
"564 589 OFFCURVE",
"572 581 CURVE SMOOTH",
"581 572 OFFCURVE",
"584 565 OFFCURVE",
"584 560 CURVE SMOOTH",
"584 555 OFFCURVE",
"583 549 OFFCURVE",
"579 543 CURVE SMOOTH",
"576 538 OFFCURVE",
"574 532 OFFCURVE",
"574 527 CURVE SMOOTH",
"574 515 OFFCURVE",
"583 509 OFFCURVE",
"599 509 CURVE SMOOTH",
"610 509 OFFCURVE",
"626 514 OFFCURVE",
"638 525 CURVE SMOOTH",
"659 544 OFFCURVE",
"682 563 OFFCURVE",
"707 572 CURVE SMOOTH",
"732 581 OFFCURVE",
"755 588 OFFCURVE",
"776 588 CURVE SMOOTH",
"795 588 OFFCURVE",
"802 582 OFFCURVE",
"809 573 CURVE SMOOTH",
"818 561 OFFCURVE",
"819 556 OFFCURVE",
"833 556 CURVE SMOOTH",
"847 556 OFFCURVE",
"854 564 OFFCURVE",
"854 581 CURVE SMOOTH",
"854 604 OFFCURVE",
"825 624 OFFCURVE",
"785 624 CURVE SMOOTH",
"734 624 OFFCURVE",
"663 593 OFFCURVE",
"622 560 CURVE",
"623 565 OFFCURVE",
"623 570 OFFCURVE",
"623 575 CURVE SMOOTH",
"622 611 OFFCURVE",
"591 629 OFFCURVE",
"528 629 CURVE SMOOTH",
"471 629 OFFCURVE",
"415 597 OFFCURVE",
"415 569 CURVE SMOOTH",
"415 554 OFFCURVE",
"432 546 OFFCURVE",
"467 546 CURVE"
);
},
{
closed = 1;
nodes = (
"334 351 OFFCURVE",
"322 323 OFFCURVE",
"300 323 CURVE SMOOTH",
"273 323 OFFCURVE",
"260 351 OFFCURVE",
"260 406 CURVE",
"336 406 LINE"
);
},
{
closed = 1;
nodes = (
"263 465 OFFCURVE",
"268 486 OFFCURVE",
"276 503 CURVE SMOOTH",
"284 520 OFFCURVE",
"292 528 OFFCURVE",
"300 528 CURVE SMOOTH",
"306 528 OFFCURVE",
"312 520 OFFCURVE",
"320 503 CURVE SMOOTH",
"328 486 OFFCURVE",
"332 465 OFFCURVE",
"334 439 CURVE",
"260 439 LINE"
);
}
);
width = 958;
}
);
note = u1D02D;
unicode = 1D02D;
category = Letter;
},
{
glyphname = u1D02E;
lastChange = "2018-08-24 12:55:27 +0000";
layers = (
{
layerId = "2208DBFF-11B0-48D9-BA6B-B988DFB8211A";
paths = (
{
closed = 1;
nodes = (
"923 434 OFFCURVE",
"900 458 OFFCURVE",
"863 458 CURVE SMOOTH",
"815 458 OFFCURVE",
"755 398 OFFCURVE",
"682 280 CURVE",
"682 285 LINE SMOOTH",
"682 357 OFFCURVE",
"624 449 OFFCURVE",
"584 467 CURVE",
"556 467 OFFCURVE",
"533 438 OFFCURVE",
"533 406 CURVE",
"600 381 OFFCURVE",
"642 324 OFFCURVE",
"642 257 CURVE SMOOTH",
"642 235 OFFCURVE",
"650 224 OFFCURVE",
"667 224 CURVE SMOOTH",
"694 224 OFFCURVE",
"720 260 OFFCURVE",
"756 311 CURVE SMOOTH",
"775 337 OFFCURVE",
"793 355 OFFCURVE",
"811 366 CURVE",
"822 346 OFFCURVE",
"840 336 OFFCURVE",
"864 336 CURVE SMOOTH",
"897 336 OFFCURVE",
"923 365 OFFCURVE",
"923 397 CURVE SMOOTH"
);
},
{
closed = 1;
nodes = (
"500 666 OFFCURVE",
"517 660 OFFCURVE",
"521 660 CURVE SMOOTH",
"542 660 OFFCURVE",
"556 688 OFFCURVE",
"556 714 CURVE SMOOTH",
"556 728 OFFCURVE",
"551 741 OFFCURVE",
"542 754 CURVE",
"538 755 OFFCURVE",
"534 755 OFFCURVE",
"530 755 CURVE SMOOTH",
"516 754 OFFCURVE",
"503 753 OFFCURVE",
"493 749 CURVE SMOOTH",
"481 744 OFFCURVE",
"438 712 OFFCURVE",
"366 653 CURVE SMOOTH",
"293 593 OFFCURVE",
"206 502 OFFCURVE",
"103 380 CURVE",
"149 383 LINE",
"256 510 OFFCURVE",
"379 620 OFFCURVE",
"474 676 CURVE"
);
},
{
closed = 1;
nodes = (
"259 348 LINE",
"352 451 OFFCURVE",
"449 532 OFFCURVE",
"552 593 CURVE",
"560 590 OFFCURVE",
"568 587 OFFCURVE",
"578 583 CURVE SMOOTH",
"587 579 OFFCURVE",
"595 577 OFFCURVE",
"602 577 CURVE SMOOTH",
"622 577 OFFCURVE",
"634 604 OFFCURVE",
"634 631 CURVE SMOOTH",
"634 647 OFFCURVE",
"630 661 OFFCURVE",
"622 671 CURVE",
"617 672 OFFCURVE",
"611 672 OFFCURVE",
"606 672 CURVE SMOOTH",
"593 671 OFFCURVE",
"582 670 OFFCURVE",
"571 667 CURVE SMOOTH",
"561 664 OFFCURVE",
"523 636 OFFCURVE",
"444 573 CURVE SMOOTH",
"371 514 OFFCURVE",
"294 438 OFFCURVE",
"215 344 CURVE"
);
}
);
width = 1027;
}
);
note = u1D02E;
unicode = 1D02E;
category = Letter;
},
{
glyphname = u1D02F;
lastChange = "2018-08-24 12:55:27 +0000";
layers = (
{
layerId = "2208DBFF-11B0-48D9-BA6B-B988DFB8211A";
paths = (
{
closed = 1;
nodes = (
"422 404 LINE",
"694 660 LINE",
"710 658 LINE SMOOTH",
"726 656 OFFCURVE",
"738 668 OFFCURVE",
"746 697 CURVE SMOOTH",
"754 728 LINE",
"716 727 OFFCURVE",
"687 720 OFFCURVE",
"667 708 CURVE",
"370 401 LINE"
);
},
{
closed = 1;
nodes = (
"426 354 LINE",
"259 199 LINE",
"262 188 LINE",
"334 208 LINE",
"498 360 LINE"
);
},
{
closed = 1;
nodes = (
"271 354 LINE",
"103 199 LINE",
"107 188 LINE",
"179 208 LINE",
"343 360 LINE"
);
}
);
width = 857;
}
);
note = u1D02F;
unicode = 1D02F;
category = Letter;
},
{
glyphname = u1D030;
lastChange = "2018-08-24 12:55:27 +0000";
layers = (
{
layerId = "2208DBFF-11B0-48D9-BA6B-B988DFB8211A";
paths = (
{
closed = 1;
nodes = (
"187 476 LINE SMOOTH",
"182 499 OFFCURVE",
"169 511 OFFCURVE",
"131 511 CURVE SMOOTH",
"113 511 OFFCURVE",
"103 502 OFFCURVE",
"103 494 CURVE SMOOTH",
"103 489 OFFCURVE",
"106 485 OFFCURVE",
"111 480 CURVE SMOOTH",
"117 476 OFFCURVE",
"120 471 OFFCURVE",
"121 466 CURVE SMOOTH",
"164 283 LINE",
"426 343 LINE",
"547 654 LINE",
"487 634 LINE",
"397 380 LINE",
"218 340 LINE"
);
}
);
width = 650;
}
);
note = u1D030;
unicode = 1D030;
category = Letter;
},
{
glyphname = u1D031;
lastChange = "2018-08-24 12:55:27 +0000";
layers = (
{
layerId = "2208DBFF-11B0-48D9-BA6B-B988DFB8211A";
paths = (
{
closed = 1;
nodes = (
"404 476 LINE",
"401 500 OFFCURVE",
"383 511 OFFCURVE",
"348 511 CURVE SMOOTH",
"331 511 OFFCURVE",
"322 505 OFFCURVE",
"322 494 CURVE SMOOTH",
"322 492 OFFCURVE",
"322 491 OFFCURVE",
"323 487 CURVE",
"103 274 LINE",
"146 247 LINE",
"340 452 LINE",
"382 283 LINE",
"646 343 LINE",
"766 654 LINE",
"706 634 LINE",
"614 380 LINE",
"438 340 LINE"
);
}
);
width = 870;
}
);
note = u1D031;
unicode = 1D031;
category = Letter;
},
{
glyphname = u1D032;
lastChange = "2018-08-24 12:55:27 +0000";
layers = (
{
layerId = "2208DBFF-11B0-48D9-BA6B-B988DFB8211A";
paths = (
{
closed = 1;
nodes = (
"758 682 LINE",
"726 708 LINE SMOOTH",
"690 738 OFFCURVE",
"664 754 OFFCURVE",
"647 754 CURVE SMOOTH",
"622 754 OFFCURVE",
"605 728 OFFCURVE",
"605 708 CURVE SMOOTH",
"605 693 OFFCURVE",
"613 684 OFFCURVE",
"629 677 CURVE SMOOTH",
"712 641 LINE SMOOTH",
"725 635 OFFCURVE",
"737 631 OFFCURVE",
"750 631 CURVE SMOOTH",
"767 631 OFFCURVE",
"788 639 OFFCURVE",
"806 657 CURVE SMOOTH",
"1123 978 LINE",
"1100 978 LINE"
);
},
{
closed = 1;
nodes = (
"103 216 LINE",
"231 216 OFFCURVE",
"318 265 OFFCURVE",
"318 338 CURVE SMOOTH",
"318 370 OFFCURVE",
"293 395 OFFCURVE",
"252 395 CURVE SMOOTH",
"217 395 OFFCURVE",
"187 377 OFFCURVE",
"187 352 CURVE SMOOTH",
"187 329 OFFCURVE",
"210 320 OFFCURVE",
"225 319 CURVE SMOOTH",
"231 319 OFFCURVE",
"234 320 OFFCURVE",
"242 323 CURVE",
"246 318 OFFCURVE",
"248 313 OFFCURVE",
"248 307 CURVE SMOOTH",
"248 274 OFFCURVE",
"175 238 OFFCURVE",
"103 236 CURVE"
);
},
{
closed = 1;
nodes = (
"271 208 LINE SMOOTH",
"388 208 OFFCURVE",
"476 256 OFFCURVE",
"476 330 CURVE SMOOTH",
"476 365 OFFCURVE",
"452 386 OFFCURVE",
"413 386 CURVE SMOOTH",
"377 386 OFFCURVE",
"346 370 OFFCURVE",
"346 343 CURVE SMOOTH",
"346 322 OFFCURVE",
"368 312 OFFCURVE",
"385 311 CURVE SMOOTH",
"391 311 OFFCURVE",
"395 312 OFFCURVE",
"403 314 CURVE",
"407 309 OFFCURVE",
"409 303 OFFCURVE",
"409 298 CURVE SMOOTH",
"409 266 OFFCURVE",
"336 230 OFFCURVE",
"262 228 CURVE",
"262 208 LINE"
);
},
{
closed = 1;
nodes = (
"506 455 LINE",
"562 452 LINE",
"685 562 LINE",
"642 577 LINE"
);
},
{
closed = 1;
nodes = (
"432 496 LINE",
"487 494 LINE",
"612 604 LINE",
"569 619 LINE"
);
},
{
closed = 1;
nodes = (
"636 196 LINE",
"706 204 LINE",
"941 418 LINE",
"884 418 LINE"
);
},
{
closed = 1;
nodes = (
"530 224 LINE",
"599 232 LINE",
"833 448 LINE",
"779 448 LINE"
);
}
);
width = 1226;
}
);
note = u1D032;
unicode = 1D032;
category = Letter;
},
{
glyphname = u1D033;
lastChange = "2018-08-24 12:55:27 +0000";
layers = (
{
layerId = "2208DBFF-11B0-48D9-BA6B-B988DFB8211A";
paths = (
{
closed = 1;
nodes = (
"103 283 LINE",
"228 283 OFFCURVE",
"318 333 OFFCURVE",
"318 406 CURVE SMOOTH",
"318 441 OFFCURVE",
"291 463 OFFCURVE",
"252 463 CURVE SMOOTH",
"217 463 OFFCURVE",
"187 446 OFFCURVE",
"187 418 CURVE SMOOTH",
"187 396 OFFCURVE",
"210 388 OFFCURVE",
"225 388 CURVE SMOOTH",
"231 388 OFFCURVE",
"235 389 OFFCURVE",
"242 391 CURVE",
"246 386 OFFCURVE",
"248 380 OFFCURVE",
"248 375 CURVE SMOOTH",
"248 343 OFFCURVE",
"171 307 OFFCURVE",
"103 304 CURVE"
);
},
{
closed = 1;
nodes = (
"271 276 LINE SMOOTH",
"386 276 OFFCURVE",
"476 325 OFFCURVE",
"476 397 CURVE SMOOTH",
"476 433 OFFCURVE",
"452 455 OFFCURVE",
"413 455 CURVE SMOOTH",
"377 455 OFFCURVE",
"346 439 OFFCURVE",
"346 412 CURVE SMOOTH",
"346 389 OFFCURVE",
"370 379 OFFCURVE",
"384 379 CURVE SMOOTH",
"390 379 OFFCURVE",
"394 380 OFFCURVE",
"403 383 CURVE",
"407 377 OFFCURVE",
"409 373 OFFCURVE",
"409 367 CURVE SMOOTH",
"409 334 OFFCURVE",
"333 298 OFFCURVE",
"262 296 CURVE",
"262 276 LINE"
);
},
{
closed = 1;
nodes = (
"559 344 LINE",
"620 344 LINE",
"858 559 LINE",
"806 569 LINE"
);
}
);
width = 962;
}
);
note = u1D033;
unicode = 1D033;
category = Letter;
},
{
glyphname = u1D034;
lastChange = "2018-08-24 12:55:27 +0000";
layers = (
{
layerId = "2208DBFF-11B0-48D9-BA6B-B988DFB8211A";
paths = (
{
closed = 1;
nodes = (
"714 276 LINE SMOOTH",
"712 251 OFFCURVE",
"717 233 OFFCURVE",
"723 224 CURVE SMOOTH",
"729 214 OFFCURVE",
"737 209 OFFCURVE",
"749 209 CURVE SMOOTH",
"775 209 OFFCURVE",
"792 225 OFFCURVE",
"802 258 CURVE",
"776 290 LINE",
"780 408 LINE",
"875 408 OFFCURVE",
"923 437 OFFCURVE",
"923 494 CURVE SMOOTH",
"923 559 OFFCURVE",
"872 613 OFFCURVE",
"805 629 CURVE",
"820 718 LINE SMOOTH",
"823 738 OFFCURVE",
"813 754 OFFCURVE",
"797 754 CURVE SMOOTH",
"778 754 OFFCURVE",
"766 745 OFFCURVE",
"763 728 CURVE SMOOTH",
"746 631 LINE",
"710 624 OFFCURVE",
"685 610 OFFCURVE",
"665 593 CURVE SMOOTH",
"360 329 LINE",
"416 338 LINE",
"620 487 LINE",
"622 446 OFFCURVE",
"658 416 OFFCURVE",
"722 412 CURVE"
);
},
{
closed = 1;
nodes = (
"257 132 LINE",
"334 145 LINE",
"476 283 LINE",
"412 283 LINE"
);
},
{
closed = 1;
nodes = (
"103 132 LINE",
"182 145 LINE",
"325 283 LINE",
"259 283 LINE"
);
},
{
closed = 1;
nodes = (
"835 591 OFFCURVE",
"866 551 OFFCURVE",
"866 510 CURVE SMOOTH",
"866 479 OFFCURVE",
"839 462 OFFCURVE",
"786 458 CURVE",
"802 599 LINE"
);
},
{
closed = 1;
nodes = (
"697 469 OFFCURVE",
"682 485 OFFCURVE",
"682 510 CURVE SMOOTH",
"682 547 OFFCURVE",
"703 583 OFFCURVE",
"743 598 CURVE",
"727 463 LINE"
);
}
);
width = 1027;
}
);
note = u1D034;
unicode = 1D034;
category = Letter;
},
{
glyphname = u1D035;
lastChange = "2018-08-24 12:55:27 +0000";
layers = (
{
layerId = "2208DBFF-11B0-48D9-BA6B-B988DFB8211A";
paths = (
{
closed = 1;
nodes = (
"607 276 LINE SMOOTH",
"607 251 OFFCURVE",
"610 233 OFFCURVE",
"616 224 CURVE SMOOTH",
"622 214 OFFCURVE",
"630 209 OFFCURVE",
"642 209 CURVE SMOOTH",
"669 209 OFFCURVE",
"688 225 OFFCURVE",
"697 258 CURVE",
"671 290 LINE",
"676 408 LINE",
"771 408 OFFCURVE",
"818 437 OFFCURVE",
"818 494 CURVE SMOOTH",
"818 557 OFFCURVE",
"770 613 OFFCURVE",
"698 629 CURVE",
"715 724 LINE SMOOTH",
"715 744 OFFCURVE",
"707 754 OFFCURVE",
"691 754 CURVE SMOOTH",
"672 754 OFFCURVE",
"659 744 OFFCURVE",
"656 726 CURVE SMOOTH",
"641 631 LINE",
"581 622 OFFCURVE",
"535 581 OFFCURVE",
"518 528 CURVE",
"410 422 OFFCURVE",
"287 330 OFFCURVE",
"240 330 CURVE SMOOTH",
"204 330 OFFCURVE",
"196 356 OFFCURVE",
"188 383 CURVE SMOOTH",
"180 409 OFFCURVE",
"167 434 OFFCURVE",
"145 434 CURVE SMOOTH",
"121 434 OFFCURVE",
"103 415 OFFCURVE",
"103 391 CURVE SMOOTH",
"103 362 OFFCURVE",
"171 276 OFFCURVE",
"224 276 CURVE SMOOTH",
"274 276 OFFCURVE",
"345 325 OFFCURVE",
"460 434 CURVE SMOOTH",
"516 487 LINE",
"518 443 OFFCURVE",
"554 416 OFFCURVE",
"614 412 CURVE"
);
},
{
closed = 1;
nodes = (
"730 591 OFFCURVE",
"761 551 OFFCURVE",
"761 510 CURVE SMOOTH",
"761 479 OFFCURVE",
"735 462 OFFCURVE",
"682 458 CURVE",
"685 507 OFFCURVE",
"689 555 OFFCURVE",
"697 599 CURVE"
);
},
{
closed = 1;
nodes = (
"590 470 OFFCURVE",
"574 485 OFFCURVE",
"574 510 CURVE SMOOTH",
"574 547 OFFCURVE",
"597 583 OFFCURVE",
"636 598 CURVE",
"622 463 LINE"
);
}
);
width = 922;
}
);
note = u1D035;
unicode = 1D035;
category = Letter;
},
{
glyphname = u1D036;
lastChange = "2018-08-24 12:55:27 +0000";
layers = (
{
layerId = "2208DBFF-11B0-48D9-BA6B-B988DFB8211A";
paths = (
{
closed = 1;
nodes = (
"424 341 OFFCURVE",
"408 319 OFFCURVE",
"408 288 CURVE SMOOTH",
"408 238 OFFCURVE",
"449 208 OFFCURVE",
"521 208 CURVE SMOOTH",
"565 208 OFFCURVE",
"605 219 OFFCURVE",
"641 242 CURVE",
"636 260 LINE",
"598 244 OFFCURVE",
"562 236 OFFCURVE",
"530 236 CURVE SMOOTH",
"490 236 OFFCURVE",
"463 257 OFFCURVE",
"463 288 CURVE SMOOTH",
"463 312 OFFCURVE",
"472 328 OFFCURVE",
"490 336 CURVE",
"500 333 OFFCURVE",
"512 331 OFFCURVE",
"525 331 CURVE SMOOTH",
"559 332 OFFCURVE",
"588 354 OFFCURVE",
"588 377 CURVE SMOOTH",
"588 396 OFFCURVE",
"574 406 OFFCURVE",
"547 406 CURVE SMOOTH",
"526 406 OFFCURVE",
"507 397 OFFCURVE",
"491 380 CURVE",
"472 389 OFFCURVE",
"463 404 OFFCURVE",
"463 425 CURVE SMOOTH",
"463 448 OFFCURVE",
"472 464 OFFCURVE",
"490 474 CURVE",
"502 470 OFFCURVE",
"509 468 OFFCURVE",
"527 468 CURVE SMOOTH",
"555 468 OFFCURVE",
"588 492 OFFCURVE",
"588 516 CURVE SMOOTH",
"588 530 OFFCURVE",
"571 542 OFFCURVE",
"547 542 CURVE SMOOTH",
"526 542 OFFCURVE",
"508 534 OFFCURVE",
"491 517 CURVE",
"472 527 OFFCURVE",
"463 542 OFFCURVE",
"463 562 CURVE SMOOTH",
"463 583 OFFCURVE",
"472 600 OFFCURVE",
"490 611 CURVE",
"505 606 OFFCURVE",
"516 604 OFFCURVE",
"522 604 CURVE SMOOTH",
"549 604 OFFCURVE",
"588 627 OFFCURVE",
"588 650 CURVE SMOOTH",
"588 667 OFFCURVE",
"571 682 OFFCURVE",
"547 682 CURVE SMOOTH",
"531 682 OFFCURVE",
"518 674 OFFCURVE",
"502 664 CURVE",
"488 667 OFFCURVE",
"474 679 OFFCURVE",
"473 698 CURVE SMOOTH",
"473 703 OFFCURVE",
"474 708 OFFCURVE",
"475 712 CURVE",
"484 711 OFFCURVE",
"493 710 OFFCURVE",
"502 710 CURVE SMOOTH",
"556 711 OFFCURVE",
"595 737 OFFCURVE",
"595 769 CURVE SMOOTH",
"595 787 OFFCURVE",
"578 809 OFFCURVE",
"533 809 CURVE SMOOTH",
"499 809 OFFCURVE",
"467 793 OFFCURVE",
"438 761 CURVE",
"394 775 LINE SMOOTH",
"328 796 OFFCURVE",
"277 809 OFFCURVE",
"239 809 CURVE SMOOTH",
"177 809 OFFCURVE",
"103 757 OFFCURVE",
"103 728 CURVE SMOOTH",
"103 726 OFFCURVE",
"104 724 OFFCURVE",
"108 724 CURVE SMOOTH",
"113 724 OFFCURVE",
"128 729 OFFCURVE",
"152 741 CURVE SMOOTH",
"176 753 OFFCURVE",
"201 757 OFFCURVE",
"226 757 CURVE SMOOTH",
"243 757 OFFCURVE",
"293 746 OFFCURVE",
"375 728 CURVE SMOOTH",
"422 718 LINE",
"418 709 OFFCURVE",
"415 701 OFFCURVE",
"415 692 CURVE SMOOTH",
"415 665 OFFCURVE",
"427 645 OFFCURVE",
"452 631 CURVE",
"423 615 OFFCURVE",
"408 592 OFFCURVE",
"408 562 CURVE SMOOTH",
"408 529 OFFCURVE",
"424 507 OFFCURVE",
"455 494 CURVE",
"424 477 OFFCURVE",
"408 454 OFFCURVE",
"408 425 CURVE SMOOTH",
"408 394 OFFCURVE",
"424 371 OFFCURVE",
"455 355 CURVE"
);
}
);
width = 744;
}
);
note = u1D036;
unicode = 1D036;
category = Letter;
},
{
glyphname = u1D037;
lastChange = "2018-08-24 12:55:27 +0000";
layers = (
{
layerId = "2208DBFF-11B0-48D9-BA6B-B988DFB8211A";
paths = (
{
closed = 1;
nodes = (
"677 200 LINE",
"774 200 OFFCURVE",
"844 240 OFFCURVE",
"844 304 CURVE SMOOTH",
"844 342 OFFCURVE",
"825 361 OFFCURVE",
"787 361 CURVE SMOOTH",
"758 361 OFFCURVE",
"736 344 OFFCURVE",
"736 323 CURVE SMOOTH",
"736 307 OFFCURVE",
"751 298 OFFCURVE",
"766 296 CURVE SMOOTH",
"780 294 OFFCURVE",
"792 291 OFFCURVE",
"792 280 CURVE SMOOTH",
"792 250 OFFCURVE",
"735 226 OFFCURVE",
"671 218 CURVE"
);
},
{
closed = 1;
nodes = (
"677 383 LINE",
"774 383 OFFCURVE",
"844 420 OFFCURVE",
"844 487 CURVE SMOOTH",
"844 523 OFFCURVE",
"825 542 OFFCURVE",
"787 542 CURVE SMOOTH",
"758 542 OFFCURVE",
"736 527 OFFCURVE",
"736 506 CURVE SMOOTH",
"736 486 OFFCURVE",
"754 481 OFFCURVE",
"768 479 CURVE SMOOTH",
"781 477 OFFCURVE",
"792 474 OFFCURVE",
"792 464 CURVE SMOOTH",
"792 450 OFFCURVE",
"781 437 OFFCURVE",
"759 425 CURVE SMOOTH",
"737 413 OFFCURVE",
"708 406 OFFCURVE",
"671 403 CURVE"
);
},
{
closed = 1;
nodes = (
"677 568 LINE",
"780 568 OFFCURVE",
"844 607 OFFCURVE",
"844 671 CURVE SMOOTH",
"844 708 OFFCURVE",
"820 726 OFFCURVE",
"787 726 CURVE SMOOTH",
"758 726 OFFCURVE",
"736 708 OFFCURVE",
"736 689 CURVE SMOOTH",
"736 668 OFFCURVE",
"753 662 OFFCURVE",
"767 660 CURVE SMOOTH",
"781 658 OFFCURVE",
"792 655 OFFCURVE",
"792 645 CURVE SMOOTH",
"792 612 OFFCURVE",
"733 589 OFFCURVE",
"671 584 CURVE"
);
},
{
closed = 1;
nodes = (
"424 341 OFFCURVE",
"408 319 OFFCURVE",
"408 288 CURVE SMOOTH",
"408 238 OFFCURVE",
"449 208 OFFCURVE",
"521 208 CURVE SMOOTH",
"565 208 OFFCURVE",
"605 219 OFFCURVE",
"641 242 CURVE",
"636 260 LINE",
"598 244 OFFCURVE",
"562 236 OFFCURVE",
"530 236 CURVE SMOOTH",
"490 236 OFFCURVE",
"463 257 OFFCURVE",
"463 288 CURVE SMOOTH",
"463 312 OFFCURVE",
"472 328 OFFCURVE",
"490 336 CURVE",
"500 333 OFFCURVE",
"512 331 OFFCURVE",
"525 331 CURVE SMOOTH",
"559 332 OFFCURVE",
"588 354 OFFCURVE",
"588 377 CURVE SMOOTH",
"588 396 OFFCURVE",
"574 406 OFFCURVE",
"547 406 CURVE SMOOTH",
"526 406 OFFCURVE",
"507 397 OFFCURVE",
"491 380 CURVE",
"472 389 OFFCURVE",
"463 404 OFFCURVE",
"463 425 CURVE SMOOTH",
"463 448 OFFCURVE",
"472 464 OFFCURVE",
"490 474 CURVE",
"502 470 OFFCURVE",
"509 468 OFFCURVE",
"527 468 CURVE SMOOTH",
"555 468 OFFCURVE",
"588 492 OFFCURVE",
"588 516 CURVE SMOOTH",
"588 530 OFFCURVE",
"571 542 OFFCURVE",
"547 542 CURVE SMOOTH",
"526 542 OFFCURVE",
"508 534 OFFCURVE",
"491 517 CURVE",
"472 527 OFFCURVE",
"463 542 OFFCURVE",
"463 562 CURVE SMOOTH",
"463 583 OFFCURVE",
"472 600 OFFCURVE",
"490 611 CURVE",
"505 606 OFFCURVE",
"516 604 OFFCURVE",
"522 604 CURVE SMOOTH",
"549 604 OFFCURVE",
"588 627 OFFCURVE",
"588 650 CURVE SMOOTH",
"588 667 OFFCURVE",
"571 682 OFFCURVE",
"547 682 CURVE SMOOTH",
"531 682 OFFCURVE",
"518 674 OFFCURVE",
"502 664 CURVE",
"488 667 OFFCURVE",
"474 679 OFFCURVE",
"473 698 CURVE SMOOTH",
"473 703 OFFCURVE",
"474 708 OFFCURVE",
"475 712 CURVE",
"484 711 OFFCURVE",
"493 710 OFFCURVE",
"502 710 CURVE SMOOTH",
"556 711 OFFCURVE",
"595 737 OFFCURVE",
"595 769 CURVE SMOOTH",
"595 787 OFFCURVE",
"578 809 OFFCURVE",
"533 809 CURVE SMOOTH",
"499 809 OFFCURVE",
"467 793 OFFCURVE",
"438 761 CURVE",
"394 775 LINE SMOOTH",
"328 796 OFFCURVE",
"277 809 OFFCURVE",
"239 809 CURVE SMOOTH",
"177 809 OFFCURVE",
"103 757 OFFCURVE",
"103 728 CURVE SMOOTH",
"103 726 OFFCURVE",
"104 724 OFFCURVE",
"108 724 CURVE SMOOTH",
"113 724 OFFCURVE",
"128 729 OFFCURVE",
"152 741 CURVE SMOOTH",
"176 753 OFFCURVE",
"201 757 OFFCURVE",
"226 757 CURVE SMOOTH",
"243 757 OFFCURVE",
"293 746 OFFCURVE",
"375 728 CURVE SMOOTH",
"422 718 LINE",
"418 709 OFFCURVE",
"415 701 OFFCURVE",
"415 692 CURVE SMOOTH",
"415 665 OFFCURVE",
"427 645 OFFCURVE",
"452 631 CURVE",
"423 615 OFFCURVE",
"408 592 OFFCURVE",
"408 562 CURVE SMOOTH",
"408 529 OFFCURVE",
"424 507 OFFCURVE",
"455 494 CURVE",
"424 477 OFFCURVE",
"408 454 OFFCURVE",
"408 425 CURVE SMOOTH",
"408 394 OFFCURVE",
"424 371 OFFCURVE",
"455 355 CURVE"
);
}
);
width = 948;
}
);
note = u1D037;
unicode = 1D037;
category = Letter;
},
{
glyphname = u1D038;
lastChange = "2018-08-24 12:55:27 +0000";
layers = (
{
layerId = "2208DBFF-11B0-48D9-BA6B-B988DFB8211A";
paths = (
{
closed = 1;
nodes = (
"288 459 OFFCURVE",
"274 473 OFFCURVE",
"251 485 CURVE SMOOTH",
"247 487 OFFCURVE",
"239 491 OFFCURVE",
"239 494 CURVE SMOOTH",
"239 497 OFFCURVE",
"247 500 OFFCURVE",
"256 503 CURVE SMOOTH",
"265 506 OFFCURVE",
"275 509 OFFCURVE",
"284 513 CURVE SMOOTH",
"306 523 OFFCURVE",
"325 532 OFFCURVE",
"325 552 CURVE SMOOTH",
"325 569 OFFCURVE",
"314 584 OFFCURVE",
"292 596 CURVE SMOOTH",
"243 623 OFFCURVE",
"215 637 OFFCURVE",
"205 645 CURVE SMOOTH",
"195 653 OFFCURVE",
"188 659 OFFCURVE",
"188 665 CURVE SMOOTH",
"188 675 OFFCURVE",
"195 685 OFFCURVE",
"209 694 CURVE SMOOTH",
"223 703 OFFCURVE",
"247 708 OFFCURVE",
"277 708 CURVE SMOOTH",
"378 708 OFFCURVE",
"467 621 OFFCURVE",
"467 528 CURVE SMOOTH",
"467 491 OFFCURVE",
"447 453 OFFCURVE",
"396 406 CURVE SMOOTH",
"371 383 OFFCURVE",
"336 356 OFFCURVE",
"293 327 CURVE SMOOTH",
"207 269 OFFCURVE",
"173 231 OFFCURVE",
"152 177 CURVE SMOOTH",
"141 149 OFFCURVE",
"134 108 OFFCURVE",
"131 52 CURVE",
"209 113 LINE",
"211 178 OFFCURVE",
"256 243 OFFCURVE",
"343 307 CURVE SMOOTH",
"433 374 LINE SMOOTH",
"493 418 OFFCURVE",
"520 474 OFFCURVE",
"520 533 CURVE SMOOTH",
"520 607 OFFCURVE",
"474 685 OFFCURVE",
"397 726 CURVE SMOOTH",
"359 746 OFFCURVE",
"317 757 OFFCURVE",
"271 757 CURVE SMOOTH",
"191 757 OFFCURVE",
"127 711 OFFCURVE",
"127 660 CURVE SMOOTH",
"127 636 OFFCURVE",
"143 611 OFFCURVE",
"185 589 CURVE SMOOTH",
"206 578 OFFCURVE",
"216 568 OFFCURVE",
"216 560 CURVE SMOOTH",
"216 546 OFFCURVE",
"195 539 OFFCURVE",
"154 539 CURVE SMOOTH",
"122 539 OFFCURVE",
"106 532 OFFCURVE",
"106 518 CURVE SMOOTH",
"106 503 OFFCURVE",
"116 497 OFFCURVE",
"145 486 CURVE SMOOTH",
"179 473 OFFCURVE",
"197 465 OFFCURVE",
"197 458 CURVE SMOOTH",
"197 449 OFFCURVE",
"150 444 OFFCURVE",
"131 444 CURVE SMOOTH",
"112 444 OFFCURVE",
"103 437 OFFCURVE",
"103 422 CURVE SMOOTH",
"103 408 OFFCURVE",
"127 397 OFFCURVE",
"146 397 CURVE SMOOTH",
"184 397 OFFCURVE",
"217 402 OFFCURVE",
"246 411 CURVE SMOOTH",
"274 420 OFFCURVE",
"288 433 OFFCURVE",
"288 449 CURVE SMOOTH"
);
}
);
width = 624;
}
);
note = u1D038;
unicode = 1D038;
category = Letter;
},
{
glyphname = u1D039;
lastChange = "2018-08-24 12:55:27 +0000";
layers = (
{
layerId = "2208DBFF-11B0-48D9-BA6B-B988DFB8211A";
paths = (
{
closed = 1;
nodes = (
"114 197 LINE",
"235 197 OFFCURVE",
"312 245 OFFCURVE",
"312 318 CURVE SMOOTH",
"312 362 OFFCURVE",
"284 382 OFFCURVE",
"245 382 CURVE SMOOTH",
"210 382 OFFCURVE",
"182 362 OFFCURVE",
"182 338 CURVE SMOOTH",
"182 315 OFFCURVE",
"199 310 OFFCURVE",
"216 306 CURVE SMOOTH",
"240 301 LINE SMOOTH",
"248 299 OFFCURVE",
"251 295 OFFCURVE",
"251 290 CURVE SMOOTH",
"251 252 OFFCURVE",
"185 227 OFFCURVE",
"103 217 CURVE"
);
},
{
closed = 1;
nodes = (
"114 403 LINE",
"237 403 OFFCURVE",
"312 450 OFFCURVE",
"312 521 CURVE SMOOTH",
"312 565 OFFCURVE",
"290 588 OFFCURVE",
"245 588 CURVE SMOOTH",
"210 588 OFFCURVE",
"182 569 OFFCURVE",
"182 542 CURVE SMOOTH",
"182 521 OFFCURVE",
"199 516 OFFCURVE",
"216 512 CURVE SMOOTH",
"240 506 LINE SMOOTH",
"248 504 OFFCURVE",
"251 501 OFFCURVE",
"251 496 CURVE SMOOTH",
"251 479 OFFCURVE",
"238 464 OFFCURVE",
"211 451 CURVE SMOOTH",
"184 438 OFFCURVE",
"148 429 OFFCURVE",
"103 424 CURVE"
);
},
{
closed = 1;
nodes = (
"114 607 LINE",
"234 607 OFFCURVE",
"312 656 OFFCURVE",
"312 727 CURVE SMOOTH",
"312 771 OFFCURVE",
"290 792 OFFCURVE",
"245 792 CURVE SMOOTH",
"210 792 OFFCURVE",
"182 776 OFFCURVE",
"182 749 CURVE SMOOTH",
"182 728 OFFCURVE",
"202 721 OFFCURVE",
"219 717 CURVE SMOOTH",
"236 713 LINE SMOOTH",
"245 711 OFFCURVE",
"251 707 OFFCURVE",
"251 701 CURVE SMOOTH",
"251 683 OFFCURVE",
"238 667 OFFCURVE",
"211 655 CURVE SMOOTH",
"184 643 OFFCURVE",
"148 634 OFFCURVE",
"103 629 CURVE"
);
}
);
width = 416;
}
);
note = u1D039;
unicode = 1D039;
category = Letter;
},
{
glyphname = u1D03A;
lastChange = "2018-08-24 12:55:27 +0000";
layers = (
{
layerId = "2208DBFF-11B0-48D9-BA6B-B988DFB8211A";
paths = (
{
closed = 1;
nodes = (
"510 482 LINE SMOOTH",
"513 458 OFFCURVE",
"526 446 OFFCURVE",
"571 446 CURVE SMOOTH",
"585 446 OFFCURVE",
"595 456 OFFCURVE",
"593 471 CURVE SMOOTH",
"584 535 LINE SMOOTH",
"578 577 OFFCURVE",
"574 611 OFFCURVE",
"574 625 CURVE SMOOTH",
"574 679 OFFCURVE",
"578 722 OFFCURVE",
"584 754 CURVE",
"520 750 LINE",
"103 215 LINE",
"175 217 LINE",
"487 650 LINE"
);
}
);
width = 697;
}
);
note = u1D03A;
unicode = 1D03A;
category = Letter;
},
{
glyphname = u1D03B;
lastChange = "2018-08-24 12:55:27 +0000";
layers = (
{
layerId = "2208DBFF-11B0-48D9-BA6B-B988DFB8211A";
paths = (
{
closed = 1;
nodes = (
"356 567 OFFCURVE",
"385 537 OFFCURVE",
"395 491 CURVE SMOOTH",
"397 480 OFFCURVE",
"403 475 OFFCURVE",
"413 475 CURVE SMOOTH",
"427 475 OFFCURVE",
"447 504 OFFCURVE",
"462 534 CURVE SMOOTH",
"474 559 OFFCURVE",
"492 582 OFFCURVE",
"498 587 CURVE SMOOTH",
"507 595 OFFCURVE",
"511 601 OFFCURVE",
"511 605 CURVE SMOOTH",
"511 611 OFFCURVE",
"505 614 OFFCURVE",
"494 614 CURVE SMOOTH",
"474 614 OFFCURVE",
"448 581 OFFCURVE",
"415 516 CURVE",
"414 567 OFFCURVE",
"354 625 OFFCURVE",
"330 625 CURVE SMOOTH",
"318 625 OFFCURVE",
"306 612 OFFCURVE",
"306 597 CURVE SMOOTH",
"306 596 OFFCURVE",
"306 593 OFFCURVE",
"307 588 CURVE SMOOTH",
"308 581 LINE"
);
},
{
closed = 1;
nodes = (
"314 308 LINE",
"270 339 OFFCURVE",
"203 395 OFFCURVE",
"197 409 CURVE SMOOTH",
"180 446 LINE",
"167 455 OFFCURVE",
"152 460 OFFCURVE",
"137 460 CURVE SMOOTH",
"115 460 OFFCURVE",
"104 452 OFFCURVE",
"104 437 CURVE SMOOTH",
"104 426 OFFCURVE",
"110 415 OFFCURVE",
"123 402 CURVE SMOOTH",
"163 362 OFFCURVE",
"244 306 OFFCURVE",
"322 266 CURVE"
);
},
{
closed = 1;
nodes = (
"444 308 LINE",
"397 340 OFFCURVE",
"329 398 OFFCURVE",
"325 408 CURVE SMOOTH",
"310 446 LINE",
"295 455 OFFCURVE",
"281 460 OFFCURVE",
"266 460 CURVE SMOOTH",
"243 460 OFFCURVE",
"232 452 OFFCURVE",
"232 436 CURVE SMOOTH",
"232 402 OFFCURVE",
"350 318 OFFCURVE",
"449 266 CURVE"
);
},
{
closed = 1;
nodes = (
"677 152 LINE",
"846 345 OFFCURVE",
"989 500 OFFCURVE",
"1106 620 CURVE",
"1100 629 LINE",
"991 547 OFFCURVE",
"941 501 OFFCURVE",
"744 278 CURVE",
"740 278 LINE",
"740 289 LINE SMOOTH",
"740 398 OFFCURVE",
"693 456 OFFCURVE",
"613 456 CURVE SMOOTH",
"561 456 OFFCURVE",
"516 419 OFFCURVE",
"476 346 CURVE",
"490 334 LINE",
"516 361 OFFCURVE",
"550 391 OFFCURVE",
"595 391 CURVE SMOOTH",
"640 391 OFFCURVE",
"667 356 OFFCURVE",
"667 288 CURVE SMOOTH",
"667 234 OFFCURVE",
"667 227 OFFCURVE",
"650 158 CURVE"
);
}
);
width = 1210;
}
);
note = u1D03B;
unicode = 1D03B;
category = Letter;
},
{
glyphname = u1D03C;
lastChange = "2018-08-24 12:55:27 +0000";
layers = (
{
layerId = "2208DBFF-11B0-48D9-BA6B-B988DFB8211A";
paths = (
{
closed = 1;
nodes = (
"528 403 LINE",
"520 398 OFFCURVE",
"516 388 OFFCURVE",
"516 373 CURVE SMOOTH",
"516 331 LINE",
"502 322 OFFCURVE",
"488 318 OFFCURVE",
"475 318 CURVE SMOOTH",
"448 318 OFFCURVE",
"430 338 OFFCURVE",
"430 362 CURVE SMOOTH",
"430 382 OFFCURVE",
"437 403 OFFCURVE",
"449 424 CURVE",
"390 424 LINE",
"377 417 OFFCURVE",
"367 404 OFFCURVE",
"361 376 CURVE SMOOTH",
"357 355 OFFCURVE",
"341 334 OFFCURVE",
"322 334 CURVE SMOOTH",
"300 334 OFFCURVE",
"281 353 OFFCURVE",
"275 390 CURVE SMOOTH",
"271 416 OFFCURVE",
"248 440 OFFCURVE",
"209 453 CURVE SMOOTH",
"192 459 OFFCURVE",
"173 460 OFFCURVE",
"151 460 CURVE SMOOTH",
"127 460 OFFCURVE",
"103 460 OFFCURVE",
"103 444 CURVE SMOOTH",
"103 436 OFFCURVE",
"107 431 OFFCURVE",
"113 429 CURVE SMOOTH",
"124 424 OFFCURVE",
"142 425 OFFCURVE",
"160 421 CURVE SMOOTH",
"188 414 OFFCURVE",
"215 401 OFFCURVE",
"215 366 CURVE SMOOTH",
"215 343 OFFCURVE",
"196 331 OFFCURVE",
"175 330 CURVE SMOOTH",
"154 329 OFFCURVE",
"144 325 OFFCURVE",
"144 314 CURVE SMOOTH",
"144 301 OFFCURVE",
"156 294 OFFCURVE",
"180 294 CURVE SMOOTH",
"206 294 OFFCURVE",
"230 301 OFFCURVE",
"251 314 CURVE",
"265 298 OFFCURVE",
"283 290 OFFCURVE",
"304 290 CURVE SMOOTH",
"338 290 OFFCURVE",
"367 312 OFFCURVE",
"391 354 CURVE",
"395 314 OFFCURVE",
"429 290 OFFCURVE",
"468 290 CURVE SMOOTH",
"486 290 OFFCURVE",
"499 295 OFFCURVE",
"520 304 CURVE",
"521 297 OFFCURVE",
"527 292 OFFCURVE",
"538 293 CURVE SMOOTH",
"550 294 LINE SMOOTH",
"563 295 OFFCURVE",
"577 302 OFFCURVE",
"577 314 CURVE SMOOTH",
"577 371 LINE SMOOTH",
"577 394 OFFCURVE",
"561 403 OFFCURVE",
"539 403 CURVE SMOOTH"
);
}
);
width = 682;
}
);
note = u1D03C;
unicode = 1D03C;
category = Letter;
},
{
glyphname = u1D03D;
lastChange = "2018-08-24 12:55:27 +0000";
layers = (
{
layerId = "2208DBFF-11B0-48D9-BA6B-B988DFB8211A";
paths = (
{
closed = 1;
nodes = (
"790 390 LINE",
"796 362 OFFCURVE",
"823 338 OFFCURVE",
"852 338 CURVE SMOOTH",
"875 338 OFFCURVE",
"899 353 OFFCURVE",
"926 382 CURVE",
"926 355 OFFCURVE",
"944 341 OFFCURVE",
"980 332 CURVE SMOOTH",
"1034 319 LINE SMOOTH",
"1059 313 OFFCURVE",
"1071 303 OFFCURVE",
"1071 288 CURVE SMOOTH",
"1071 286 OFFCURVE",
"1071 285 OFFCURVE",
"1070 283 CURVE",
"1068 284 OFFCURVE",
"1066 284 OFFCURVE",
"1064 284 CURVE SMOOTH",
"1051 284 OFFCURVE",
"1044 275 OFFCURVE",
"1044 258 CURVE SMOOTH",
"1044 245 OFFCURVE",
"1060 230 OFFCURVE",
"1080 230 CURVE SMOOTH",
"1107 230 OFFCURVE",
"1121 257 OFFCURVE",
"1121 290 CURVE SMOOTH",
"1121 326 OFFCURVE",
"1105 343 OFFCURVE",
"1068 352 CURVE SMOOTH",
"1036 360 LINE SMOOTH",
"1007 367 OFFCURVE",
"992 378 OFFCURVE",
"993 395 CURVE SMOOTH",
"996 442 LINE",
"924 456 LINE",
"912 405 OFFCURVE",
"897 380 OFFCURVE",
"881 380 CURVE SMOOTH",
"868 380 OFFCURVE",
"850 401 OFFCURVE",
"845 425 CURVE SMOOTH",
"839 454 OFFCURVE",
"832 476 OFFCURVE",
"818 476 CURVE SMOOTH",
"803 476 OFFCURVE",
"784 462 OFFCURVE",
"759 436 CURVE SMOOTH",
"496 164 LINE",
"516 219 OFFCURVE",
"526 270 OFFCURVE",
"526 314 CURVE SMOOTH",
"526 394 OFFCURVE",
"484 446 OFFCURVE",
"418 446 CURVE SMOOTH",
"399 446 OFFCURVE",
"379 444 OFFCURVE",
"360 440 CURVE SMOOTH",
"341 436 OFFCURVE",
"319 434 OFFCURVE",
"294 434 CURVE SMOOTH",
"220 434 OFFCURVE",
"179 461 OFFCURVE",
"179 509 CURVE SMOOTH",
"179 568 OFFCURVE",
"229 604 OFFCURVE",
"319 611 CURVE",
"325 583 OFFCURVE",
"346 563 OFFCURVE",
"370 563 CURVE SMOOTH",
"401 563 OFFCURVE",
"434 589 OFFCURVE",
"434 613 CURVE SMOOTH",
"434 642 OFFCURVE",
"401 656 OFFCURVE",
"334 656 CURVE SMOOTH",
"215 656 OFFCURVE",
"103 583 OFFCURVE",
"103 494 CURVE SMOOTH",
"103 424 OFFCURVE",
"159 383 OFFCURVE",
"288 383 CURVE SMOOTH",
"304 383 OFFCURVE",
"321 385 OFFCURVE",
"337 387 CURVE SMOOTH",
"354 389 OFFCURVE",
"374 390 OFFCURVE",
"397 390 CURVE SMOOTH",
"455 390 OFFCURVE",
"469 353 OFFCURVE",
"469 290 CURVE SMOOTH",
"469 202 OFFCURVE",
"448 146 OFFCURVE",
"396 72 CURVE",
"455 72 LINE"
);
},
{
closed = 1;
nodes = (
"599 590 LINE",
"667 589 LINE",
"547 707 LINE",
"481 707 LINE"
);
},
{
closed = 1;
nodes = (
"706 604 LINE",
"775 602 LINE",
"654 719 LINE",
"588 719 LINE"
);
}
);
width = 1224;
}
);
note = u1D03D;
unicode = 1D03D;
category = Letter;
},
{
glyphname = u1D03E;
lastChange = "2018-08-24 12:55:27 +0000";
layers = (
{
layerId = "2208DBFF-11B0-48D9-BA6B-B988DFB8211A";
paths = (
{
closed = 1;
nodes = (
"297 245 OFFCURVE",
"319 232 OFFCURVE",
"354 232 CURVE SMOOTH",
"406 232 OFFCURVE",
"441 282 OFFCURVE",
"462 304 CURVE SMOOTH",
"718 577 LINE",
"716 564 OFFCURVE",
"715 549 OFFCURVE",
"716 539 CURVE SMOOTH",
"718 511 LINE SMOOTH",
"719 496 OFFCURVE",
"720 487 OFFCURVE",
"734 487 CURVE SMOOTH",
"749 487 OFFCURVE",
"775 502 OFFCURVE",
"779 517 CURVE",
"778 535 OFFCURVE",
"778 552 OFFCURVE",
"778 569 CURVE SMOOTH",
"778 587 OFFCURVE",
"778 604 OFFCURVE",
"779 622 CURVE",
"786 647 LINE",
"786 657 OFFCURVE",
"780 662 OFFCURVE",
"769 662 CURVE SMOOTH",
"757 662 OFFCURVE",
"729 633 OFFCURVE",
"721 624 CURVE SMOOTH",
"439 340 LINE SMOOTH",
"409 309 OFFCURVE",
"383 293 OFFCURVE",
"361 293 CURVE SMOOTH",
"338 293 OFFCURVE",
"326 315 OFFCURVE",
"317 340 CURVE SMOOTH",
"306 372 OFFCURVE",
"304 408 OFFCURVE",
"278 408 CURVE SMOOTH",
"265 408 OFFCURVE",
"254 404 OFFCURVE",
"252 396 CURVE SMOOTH",
"239 352 LINE SMOOTH",
"226 309 OFFCURVE",
"208 287 OFFCURVE",
"185 287 CURVE SMOOTH",
"164 287 OFFCURVE",
"154 306 OFFCURVE",
"154 344 CURVE SMOOTH",
"154 390 LINE SMOOTH",
"154 402 OFFCURVE",
"145 408 OFFCURVE",
"128 408 CURVE SMOOTH",
"111 408 OFFCURVE",
"103 401 OFFCURVE",
"103 388 CURVE SMOOTH",
"103 348 LINE SMOOTH",
"103 271 OFFCURVE",
"131 218 OFFCURVE",
"187 218 CURVE SMOOTH",
"227 218 OFFCURVE",
"258 243 OFFCURVE",
"280 293 CURVE"
);
}
);
width = 890;
}
);
note = u1D03E;
unicode = 1D03E;
category = Letter;
},
{
glyphname = u1D03F;
lastChange = "2018-08-24 12:55:27 +0000";
layers = (
{
layerId = "2208DBFF-11B0-48D9-BA6B-B988DFB8211A";
paths = (
{
closed = 1;
nodes = (
"168 549 OFFCURVE",
"167 554 OFFCURVE",
"167 560 CURVE SMOOTH",
"168 606 OFFCURVE",
"209 646 OFFCURVE",
"257 646 CURVE SMOOTH",
"301 646 OFFCURVE",
"330 628 OFFCURVE",
"344 593 CURVE",
"337 581 OFFCURVE",
"334 565 OFFCURVE",
"334 546 CURVE SMOOTH",
"334 520 OFFCURVE",
"346 496 OFFCURVE",
"366 496 CURVE SMOOTH",
"390 496 OFFCURVE",
"401 518 OFFCURVE",
"401 541 CURVE SMOOTH",
"401 550 OFFCURVE",
"399 562 OFFCURVE",
"395 578 CURVE",
"406 584 OFFCURVE",
"416 588 OFFCURVE",
"422 588 CURVE SMOOTH",
"435 588 OFFCURVE",
"444 581 OFFCURVE",
"449 568 CURVE",
"442 553 OFFCURVE",
"439 540 OFFCURVE",
"439 528 CURVE SMOOTH",
"439 503 OFFCURVE",
"449 491 OFFCURVE",
"468 491 CURVE SMOOTH",
"489 491 OFFCURVE",
"499 503 OFFCURVE",
"499 528 CURVE SMOOTH",
"499 538 OFFCURVE",
"498 549 OFFCURVE",
"496 559 CURVE",
"505 572 OFFCURVE",
"520 578 OFFCURVE",
"541 578 CURVE SMOOTH",
"577 578 OFFCURVE",
"593 553 OFFCURVE",
"593 526 CURVE SMOOTH",
"593 520 LINE",
"590 517 OFFCURVE",
"586 511 OFFCURVE",
"583 506 CURVE SMOOTH",
"580 501 OFFCURVE",
"578 494 OFFCURVE",
"578 487 CURVE SMOOTH",
"578 468 OFFCURVE",
"589 458 OFFCURVE",
"611 458 CURVE SMOOTH",
"637 458 OFFCURVE",
"652 493 OFFCURVE",
"650 518 CURVE SMOOTH",
"650 526 LINE",
"691 589 OFFCURVE",
"780 686 OFFCURVE",
"829 726 CURVE",
"822 733 LINE",
"738 669 OFFCURVE",
"677 612 OFFCURVE",
"640 562 CURVE",
"621 606 OFFCURVE",
"591 629 OFFCURVE",
"552 629 CURVE SMOOTH",
"524 629 OFFCURVE",
"499 621 OFFCURVE",
"478 604 CURVE",
"465 624 OFFCURVE",
"447 634 OFFCURVE",
"426 634 CURVE SMOOTH",
"409 634 OFFCURVE",
"394 629 OFFCURVE",
"382 620 CURVE",
"359 666 OFFCURVE",
"316 689 OFFCURVE",
"252 689 CURVE SMOOTH",
"163 689 OFFCURVE",
"103 642 OFFCURVE",
"103 590 CURVE SMOOTH",
"103 574 OFFCURVE",
"108 558 OFFCURVE",
"118 541 CURVE",
"170 541 LINE"
);
},
{
closed = 1;
nodes = (
"164 447 OFFCURVE",
"155 447 OFFCURVE",
"146 446 CURVE SMOOTH",
"139 445 OFFCURVE",
"135 434 OFFCURVE",
"135 416 CURVE SMOOTH",
"135 409 OFFCURVE",
"138 380 OFFCURVE",
"138 372 CURVE SMOOTH",
"136 277 LINE SMOOTH",
"135 230 OFFCURVE",
"156 193 OFFCURVE",
"199 193 CURVE SMOOTH",
"225 193 OFFCURVE",
"250 217 OFFCURVE",
"274 266 CURVE",
"276 223 OFFCURVE",
"315 182 OFFCURVE",
"355 182 CURVE SMOOTH",
"385 182 OFFCURVE",
"414 194 OFFCURVE",
"442 217 CURVE",
"446 204 OFFCURVE",
"467 188 OFFCURVE",
"496 188 CURVE SMOOTH",
"581 188 OFFCURVE",
"703 284 OFFCURVE",
"862 475 CURVE",
"852 478 LINE",
"810 438 LINE SMOOTH",
"692 324 OFFCURVE",
"578 235 OFFCURVE",
"516 235 CURVE SMOOTH",
"501 235 OFFCURVE",
"484 236 OFFCURVE",
"476 249 CURVE SMOOTH",
"468 262 OFFCURVE",
"468 285 OFFCURVE",
"468 301 CURVE SMOOTH",
"468 320 OFFCURVE",
"464 329 OFFCURVE",
"456 329 CURVE SMOOTH",
"434 329 LINE SMOOTH",
"421 329 OFFCURVE",
"415 322 OFFCURVE",
"415 308 CURVE SMOOTH",
"415 280 LINE SMOOTH",
"415 245 OFFCURVE",
"396 222 OFFCURVE",
"365 222 CURVE SMOOTH",
"337 222 OFFCURVE",
"323 241 OFFCURVE",
"323 278 CURVE SMOOTH",
"323 286 OFFCURVE",
"324 292 OFFCURVE",
"327 297 CURVE SMOOTH",
"329 302 OFFCURVE",
"330 307 OFFCURVE",
"330 311 CURVE SMOOTH",
"330 319 OFFCURVE",
"319 329 OFFCURVE",
"311 329 CURVE SMOOTH",
"282 329 LINE SMOOTH",
"270 329 OFFCURVE",
"259 320 OFFCURVE",
"250 302 CURVE SMOOTH",
"238 277 LINE SMOOTH",
"227 254 OFFCURVE",
"215 242 OFFCURVE",
"206 242 CURVE SMOOTH",
"194 242 OFFCURVE",
"190 253 OFFCURVE",
"190 266 CURVE SMOOTH",
"190 271 OFFCURVE",
"190 282 OFFCURVE",
"191 287 CURVE SMOOTH",
"200 339 LINE SMOOTH",
"206 373 OFFCURVE",
"210 396 OFFCURVE",
"210 408 CURVE SMOOTH",
"210 423 OFFCURVE",
"208 432 OFFCURVE",
"201 438 CURVE SMOOTH",
"192 446 OFFCURVE",
"190 447 OFFCURVE",
"173 447 CURVE SMOOTH"
);
}
);
width = 965;
}
);
note = u1D03F;
unicode = 1D03F;
category = Letter;
},
{
glyphname = u1D040;
lastChange = "2018-08-24 12:55:27 +0000";
layers = (
{
layerId = "2208DBFF-11B0-48D9-BA6B-B988DFB8211A";
paths = (
{
closed = 1;
nodes = (
"270 378 LINE SMOOTH",
"277 383 OFFCURVE",
"315 404 OFFCURVE",
"336 417 CURVE SMOOTH",
"355 429 OFFCURVE",
"370 440 OFFCURVE",
"370 449 CURVE SMOOTH",
"370 460 OFFCURVE",
"363 466 OFFCURVE",
"348 466 CURVE SMOOTH",
"345 466 OFFCURVE",
"330 465 OFFCURVE",
"313 463 CURVE SMOOTH",
"295 461 OFFCURVE",
"275 460 OFFCURVE",
"266 460 CURVE SMOOTH",
"241 460 OFFCURVE",
"215 464 OFFCURVE",
"189 474 CURVE SMOOTH",
"162 484 OFFCURVE",
"142 487 OFFCURVE",
"128 487 CURVE SMOOTH",
"114 487 OFFCURVE",
"103 477 OFFCURVE",
"103 463 CURVE SMOOTH",
"103 432 OFFCURVE",
"139 416 OFFCURVE",
"210 416 CURVE SMOOTH",
"230 416 OFFCURVE",
"250 418 OFFCURVE",
"271 422 CURVE",
"241 404 OFFCURVE",
"166 350 OFFCURVE",
"166 331 CURVE SMOOTH",
"166 322 OFFCURVE",
"174 318 OFFCURVE",
"190 318 CURVE",
"251 311 LINE SMOOTH",
"272 309 OFFCURVE",
"300 300 OFFCURVE",
"317 293 CURVE SMOOTH",
"334 286 OFFCURVE",
"346 283 OFFCURVE",
"352 283 CURVE SMOOTH",
"361 283 OFFCURVE",
"365 290 OFFCURVE",
"365 304 CURVE SMOOTH",
"365 324 OFFCURVE",
"354 337 OFFCURVE",
"331 343 CURVE",
"281 345 LINE SMOOTH",
"255 346 OFFCURVE",
"237 347 OFFCURVE",
"228 348 CURVE"
);
},
{
closed = 1;
nodes = (
"510 371 OFFCURVE",
"528 385 OFFCURVE",
"570 408 CURVE SMOOTH",
"619 435 OFFCURVE",
"646 456 OFFCURVE",
"646 467 CURVE SMOOTH",
"646 476 OFFCURVE",
"639 481 OFFCURVE",
"624 481 CURVE SMOOTH",
"611 481 OFFCURVE",
"598 480 OFFCURVE",
"585 479 CURVE SMOOTH",
"571 478 OFFCURVE",
"555 476 OFFCURVE",
"541 476 CURVE SMOOTH",
"516 476 OFFCURVE",
"483 485 OFFCURVE",
"439 500 CURVE SMOOTH",
"430 503 OFFCURVE",
"421 504 OFFCURVE",
"412 504 CURVE SMOOTH",
"395 504 OFFCURVE",
"386 495 OFFCURVE",
"386 478 CURVE SMOOTH",
"386 448 OFFCURVE",
"420 433 OFFCURVE",
"487 433 CURVE SMOOTH",
"510 433 OFFCURVE",
"530 435 OFFCURVE",
"547 438 CURVE",
"531 431 OFFCURVE",
"442 367 OFFCURVE",
"442 348 CURVE SMOOTH",
"442 339 OFFCURVE",
"450 334 OFFCURVE",
"467 334 CURVE SMOOTH",
"482 334 OFFCURVE",
"518 328 OFFCURVE",
"553 322 CURVE SMOOTH",
"587 316 OFFCURVE",
"612 301 OFFCURVE",
"625 301 CURVE SMOOTH",
"636 301 OFFCURVE",
"641 308 OFFCURVE",
"641 322 CURVE SMOOTH",
"641 334 OFFCURVE",
"632 354 OFFCURVE",
"607 360 CURVE",
"577 360 LINE SMOOTH",
"533 360 OFFCURVE",
"516 362 OFFCURVE",
"504 365 CURVE"
);
}
);
width = 749;
}
);
note = u1D040;
unicode = 1D040;
category = Letter;
},
{
glyphname = u1D041;
lastChange = "2018-08-24 12:55:27 +0000";
layers = (
{
layerId = "2208DBFF-11B0-48D9-BA6B-B988DFB8211A";
paths = (
{
closed = 1;
nodes = (
"288 262 LINE",
"249 294 LINE SMOOTH",
"203 332 OFFCURVE",
"172 352 OFFCURVE",
"154 352 CURVE SMOOTH",
"123 352 OFFCURVE",
"103 323 OFFCURVE",
"103 296 CURVE SMOOTH",
"103 281 OFFCURVE",
"112 268 OFFCURVE",
"131 260 CURVE SMOOTH",
"230 216 LINE SMOOTH",
"247 208 OFFCURVE",
"263 204 OFFCURVE",
"278 204 CURVE SMOOTH",
"297 204 OFFCURVE",
"321 214 OFFCURVE",
"343 236 CURVE SMOOTH",
"725 620 LINE",
"697 620 LINE"
);
}
);
width = 828;
}
);
note = u1D041;
unicode = 1D041;
category = Letter;
},
{
glyphname = u1D042;
lastChange = "2018-08-24 12:55:27 +0000";
layers = (
{
layerId = "2208DBFF-11B0-48D9-BA6B-B988DFB8211A";
paths = (
{
closed = 1;
nodes = (
"462 619 OFFCURVE",
"406 549 OFFCURVE",
"336 442 CURVE",
"190 708 LINE",
"103 676 LINE",
"137 607 LINE SMOOTH",
"146 588 OFFCURVE",
"160 578 OFFCURVE",
"176 578 CURVE SMOOTH",
"184 578 OFFCURVE",
"192 580 OFFCURVE",
"199 584 CURVE",
"302 391 LINE",
"245 305 OFFCURVE",
"217 254 OFFCURVE",
"217 240 CURVE SMOOTH",
"217 228 OFFCURVE",
"229 218 OFFCURVE",
"240 218 CURVE SMOOTH",
"250 218 OFFCURVE",
"261 231 OFFCURVE",
"275 257 CURVE SMOOTH",
"289 284 OFFCURVE",
"306 316 OFFCURVE",
"325 354 CURVE",
"361 285 LINE SMOOTH",
"376 256 OFFCURVE",
"393 236 OFFCURVE",
"404 226 CURVE SMOOTH",
"416 216 OFFCURVE",
"428 210 OFFCURVE",
"442 210 CURVE SMOOTH",
"463 210 OFFCURVE",
"475 226 OFFCURVE",
"475 242 CURVE SMOOTH",
"475 251 OFFCURVE",
"471 260 OFFCURVE",
"463 269 CURVE SMOOTH",
"455 277 OFFCURVE",
"438 286 OFFCURVE",
"415 296 CURVE",
"354 406 LINE",
"385 459 OFFCURVE",
"420 508 OFFCURVE",
"460 552 CURVE",
"491 555 OFFCURVE",
"533 583 OFFCURVE",
"533 612 CURVE SMOOTH",
"533 635 OFFCURVE",
"523 648 OFFCURVE",
"504 650 CURVE"
);
}
);
width = 636;
}
);
note = u1D042;
unicode = 1D042;
category = Letter;
},
{
glyphname = u1D043;
lastChange = "2018-08-24 12:55:27 +0000";
layers = (
{
layerId = "2208DBFF-11B0-48D9-BA6B-B988DFB8211A";
paths = (
{
closed = 1;
nodes = (
"677 475 LINE",
"674 462 OFFCURVE",
"673 457 OFFCURVE",
"672 447 CURVE SMOOTH",
"671 428 OFFCURVE",
"676 413 OFFCURVE",
"684 404 CURVE",
"675 382 OFFCURVE",
"661 362 OFFCURVE",
"624 362 CURVE SMOOTH",
"597 362 OFFCURVE",
"579 368 OFFCURVE",
"568 380 CURVE",
"568 408 OFFCURVE",
"559 433 OFFCURVE",
"541 456 CURVE",
"510 444 LINE",
"507 437 OFFCURVE",
"506 427 OFFCURVE",
"506 416 CURVE SMOOTH",
"506 397 OFFCURVE",
"511 383 OFFCURVE",
"520 372 CURVE",
"518 348 OFFCURVE",
"494 319 OFFCURVE",
"446 319 CURVE SMOOTH",
"407 319 OFFCURVE",
"384 343 OFFCURVE",
"380 380 CURVE",
"352 366 OFFCURVE",
"338 350 OFFCURVE",
"338 331 CURVE SMOOTH",
"338 302 OFFCURVE",
"374 278 OFFCURVE",
"442 278 CURVE SMOOTH",
"498 278 OFFCURVE",
"540 304 OFFCURVE",
"556 343 CURVE",
"563 333 OFFCURVE",
"590 323 OFFCURVE",
"622 323 CURVE SMOOTH",
"667 323 OFFCURVE",
"697 341 OFFCURVE",
"714 377 CURVE",
"728 365 OFFCURVE",
"763 355 OFFCURVE",
"790 355 CURVE SMOOTH",
"829 355 OFFCURVE",
"870 379 OFFCURVE",
"880 418 CURVE",
"893 408 OFFCURVE",
"916 403 OFFCURVE",
"950 403 CURVE SMOOTH",
"1032 403 OFFCURVE",
"1101 483 OFFCURVE",
"1117 574 CURVE",
"1108 577 LINE",
"1073 499 OFFCURVE",
"1008 439 OFFCURVE",
"952 439 CURVE SMOOTH",
"907 439 OFFCURVE",
"880 468 OFFCURVE",
"872 526 CURVE",
"850 518 LINE",
"842 511 OFFCURVE",
"838 500 OFFCURVE",
"838 484 CURVE SMOOTH",
"838 469 OFFCURVE",
"843 456 OFFCURVE",
"854 444 CURVE",
"845 413 OFFCURVE",
"823 397 OFFCURVE",
"790 397 CURVE SMOOTH",
"761 397 OFFCURVE",
"734 408 OFFCURVE",
"725 418 CURVE",
"725 425 LINE SMOOTH",
"725 449 OFFCURVE",
"719 470 OFFCURVE",
"707 487 CURVE"
);
},
{
closed = 1;
nodes = (
"118 228 LINE",
"140 226 OFFCURVE",
"151 225 OFFCURVE",
"168 225 CURVE SMOOTH",
"254 225 OFFCURVE",
"301 262 OFFCURVE",
"301 329 CURVE SMOOTH",
"301 372 OFFCURVE",
"268 391 OFFCURVE",
"239 391 CURVE SMOOTH",
"208 391 OFFCURVE",
"180 377 OFFCURVE",
"180 353 CURVE SMOOTH",
"180 335 OFFCURVE",
"192 328 OFFCURVE",
"205 323 CURVE SMOOTH",
"218 318 OFFCURVE",
"232 320 OFFCURVE",
"232 308 CURVE SMOOTH",
"232 271 OFFCURVE",
"189 252 OFFCURVE",
"103 252 CURVE"
);
},
{
closed = 1;
nodes = (
"118 434 LINE",
"133 433 OFFCURVE",
"149 432 OFFCURVE",
"164 432 CURVE SMOOTH",
"255 432 OFFCURVE",
"301 466 OFFCURVE",
"301 535 CURVE SMOOTH",
"301 577 OFFCURVE",
"269 599 OFFCURVE",
"239 599 CURVE SMOOTH",
"208 599 OFFCURVE",
"180 584 OFFCURVE",
"180 560 CURVE SMOOTH",
"180 540 OFFCURVE",
"193 534 OFFCURVE",
"207 529 CURVE SMOOTH",
"220 524 OFFCURVE",
"232 526 OFFCURVE",
"232 516 CURVE SMOOTH",
"232 479 OFFCURVE",
"190 460 OFFCURVE",
"117 460 CURVE SMOOTH",
"103 460 LINE"
);
}
);
width = 1222;
}
);
note = u1D043;
unicode = 1D043;
category = Letter;
},
{
glyphname = u1D044;
lastChange = "2018-08-24 12:55:27 +0000";
layers = (
{
layerId = "2208DBFF-11B0-48D9-BA6B-B988DFB8211A";
paths = (
{
closed = 1;
nodes = (
"365 396 LINE SMOOTH",
"365 359 OFFCURVE",
"398 331 OFFCURVE",
"434 331 CURVE SMOOTH",
"469 331 OFFCURVE",
"493 353 OFFCURVE",
"506 396 CURVE",
"517 349 OFFCURVE",
"541 334 OFFCURVE",
"584 334 CURVE SMOOTH",
"620 334 OFFCURVE",
"643 348 OFFCURVE",
"654 377 CURVE",
"656 345 OFFCURVE",
"684 322 OFFCURVE",
"715 322 CURVE SMOOTH",
"734 322 OFFCURVE",
"743 329 OFFCURVE",
"743 343 CURVE SMOOTH",
"743 346 OFFCURVE",
"740 353 OFFCURVE",
"734 364 CURVE SMOOTH",
"728 376 OFFCURVE",
"723 388 OFFCURVE",
"718 404 CURVE SMOOTH",
"692 490 LINE",
"680 489 OFFCURVE",
"668 486 OFFCURVE",
"658 483 CURVE SMOOTH",
"653 481 OFFCURVE",
"646 478 OFFCURVE",
"642 476 CURVE",
"647 439 LINE",
"647 404 OFFCURVE",
"626 370 OFFCURVE",
"595 370 CURVE SMOOTH",
"574 370 OFFCURVE",
"563 383 OFFCURVE",
"562 411 CURVE SMOOTH",
"561 431 LINE SMOOTH",
"560 454 OFFCURVE",
"551 467 OFFCURVE",
"538 467 CURVE SMOOTH",
"533 467 OFFCURVE",
"519 464 OFFCURVE",
"498 458 CURVE",
"498 417 OFFCURVE",
"477 380 OFFCURVE",
"444 380 CURVE SMOOTH",
"425 380 OFFCURVE",
"416 388 OFFCURVE",
"416 404 CURVE SMOOTH",
"416 415 OFFCURVE",
"418 426 OFFCURVE",
"423 437 CURVE SMOOTH",
"428 448 OFFCURVE",
"430 458 OFFCURVE",
"430 466 CURVE SMOOTH",
"430 476 OFFCURVE",
"425 481 OFFCURVE",
"416 481 CURVE SMOOTH",
"414 481 OFFCURVE",
"411 480 OFFCURVE",
"407 478 CURVE SMOOTH",
"402 475 OFFCURVE",
"380 454 OFFCURVE",
"338 417 CURVE SMOOTH",
"274 360 LINE SMOOTH",
"209 303 OFFCURVE",
"157 254 OFFCURVE",
"103 209 CURVE",
"111 204 LINE SMOOTH",
"116 201 OFFCURVE",
"125 199 OFFCURVE",
"136 199 CURVE SMOOTH",
"176 199 OFFCURVE",
"297 312 OFFCURVE",
"365 401 CURVE"
);
}
);
width = 847;
}
);
note = u1D044;
unicode = 1D044;
category = Letter;
},
{
glyphname = u1D045;
lastChange = "2018-08-24 12:55:27 +0000";
layers = (
{
layerId = "2208DBFF-11B0-48D9-BA6B-B988DFB8211A";
paths = (
{
closed = 1;
nodes = (
"702 550 OFFCURVE",
"693 583 OFFCURVE",
"681 606 CURVE SMOOTH",
"669 629 OFFCURVE",
"655 641 OFFCURVE",
"640 641 CURVE SMOOTH",
"611 641 OFFCURVE",
"581 588 OFFCURVE",
"570 516 CURVE",
"510 521 LINE",
"484 531 LINE SMOOTH",
"479 533 OFFCURVE",
"474 535 OFFCURVE",
"469 535 CURVE SMOOTH",
"460 535 OFFCURVE",
"455 527 OFFCURVE",
"455 511 CURVE SMOOTH",
"455 498 OFFCURVE",
"462 491 OFFCURVE",
"476 491 CURVE SMOOTH",
"568 490 LINE",
"568 460 LINE",
"380 468 LINE",
"366 480 OFFCURVE",
"343 495 OFFCURVE",
"312 511 CURVE",
"372 595 LINE",
"325 584 LINE",
"283 526 LINE",
"260 530 OFFCURVE",
"240 533 OFFCURVE",
"228 533 CURVE",
"290 624 LINE",
"245 613 LINE",
"115 430 LINE",
"139 411 OFFCURVE",
"206 389 OFFCURVE",
"226 386 CURVE",
"290 478 LINE",
"360 439 OFFCURVE",
"395 397 OFFCURVE",
"395 353 CURVE SMOOTH",
"395 289 OFFCURVE",
"326 242 OFFCURVE",
"230 242 CURVE SMOOTH",
"194 242 OFFCURVE",
"170 246 OFFCURVE",
"157 254 CURVE SMOOTH",
"144 262 OFFCURVE",
"138 271 OFFCURVE",
"138 280 CURVE SMOOTH",
"138 299 OFFCURVE",
"150 311 OFFCURVE",
"174 314 CURVE",
"174 295 OFFCURVE",
"187 274 OFFCURVE",
"206 274 CURVE SMOOTH",
"218 274 OFFCURVE",
"235 282 OFFCURVE",
"235 300 CURVE SMOOTH",
"235 319 OFFCURVE",
"218 340 OFFCURVE",
"179 340 CURVE SMOOTH",
"134 340 OFFCURVE",
"103 315 OFFCURVE",
"103 280 CURVE SMOOTH",
"103 235 OFFCURVE",
"158 210 OFFCURVE",
"230 210 CURVE SMOOTH",
"350 210 OFFCURVE",
"442 269 OFFCURVE",
"442 355 CURVE SMOOTH",
"442 386 OFFCURVE",
"432 414 OFFCURVE",
"412 438 CURVE",
"568 434 LINE",
"568 345 OFFCURVE",
"592 301 OFFCURVE",
"640 301 CURVE SMOOTH",
"684 301 OFFCURVE",
"708 345 OFFCURVE",
"712 432 CURVE",
"749 432 LINE",
"753 343 OFFCURVE",
"774 301 OFFCURVE",
"821 301 CURVE SMOOTH",
"867 301 OFFCURVE",
"891 344 OFFCURVE",
"893 430 CURVE",
"956 430 LINE",
"966 449 LINE",
"893 449 LINE",
"893 456 OFFCURVE",
"893 462 OFFCURVE",
"893 469 CURVE SMOOTH",
"893 473 OFFCURVE",
"893 477 OFFCURVE",
"892 481 CURVE",
"956 481 LINE",
"966 502 LINE",
"890 504 LINE",
"882 581 OFFCURVE",
"854 641 OFFCURVE",
"821 641 CURVE SMOOTH",
"792 641 OFFCURVE",
"762 579 OFFCURVE",
"754 509 CURVE",
"707 510 LINE"
);
},
{
closed = 1;
nodes = (
"209 506 LINE",
"224 504 OFFCURVE",
"241 499 OFFCURVE",
"260 491 CURVE",
"210 422 LINE",
"197 424 OFFCURVE",
"181 431 OFFCURVE",
"164 442 CURVE"
);
},
{
closed = 1;
nodes = (
"790 531 OFFCURVE",
"794 550 OFFCURVE",
"802 566 CURVE SMOOTH",
"809 581 OFFCURVE",
"815 589 OFFCURVE",
"821 589 CURVE SMOOTH",
"835 589 OFFCURVE",
"846 561 OFFCURVE",
"854 506 CURVE",
"786 509 LINE"
);
},
{
closed = 1;
nodes = (
"672 388 OFFCURVE",
"661 365 OFFCURVE",
"640 365 CURVE SMOOTH",
"617 365 OFFCURVE",
"604 388 OFFCURVE",
"602 433 CURVE",
"674 433 LINE"
);
},
{
closed = 1;
nodes = (
"853 387 OFFCURVE",
"841 365 OFFCURVE",
"821 365 CURVE SMOOTH",
"813 365 OFFCURVE",
"805 369 OFFCURVE",
"798 378 CURVE SMOOTH",
"791 387 OFFCURVE",
"786 405 OFFCURVE",
"785 432 CURVE",
"857 430 LINE"
);
},
{
closed = 1;
nodes = (
"608 534 OFFCURVE",
"613 553 OFFCURVE",
"620 567 CURVE SMOOTH",
"627 581 OFFCURVE",
"633 589 OFFCURVE",
"640 589 CURVE SMOOTH",
"646 589 OFFCURVE",
"651 582 OFFCURVE",
"658 567 CURVE SMOOTH",
"664 553 OFFCURVE",
"668 534 OFFCURVE",
"672 510 CURVE",
"605 511 LINE"
);
},
{
closed = 1;
nodes = (
"785 484 LINE",
"858 484 LINE",
"858 452 LINE",
"785 452 LINE"
);
},
{
closed = 1;
nodes = (
"602 487 LINE",
"674 487 LINE",
"675 483 OFFCURVE",
"676 476 OFFCURVE",
"676 471 CURVE SMOOTH",
"676 456 LINE",
"602 458 LINE"
);
},
{
closed = 1;
nodes = (
"712 455 LINE",
"712 468 OFFCURVE",
"711 475 OFFCURVE",
"710 485 CURVE",
"749 485 LINE",
"749 455 LINE"
);
}
);
width = 1070;
}
);
note = u1D045;
unicode = 1D045;
category = Letter;
},
{
glyphname = u1D046;
lastChange = "2018-08-24 12:55:27 +0000";
layers = (
{
layerId = "2208DBFF-11B0-48D9-BA6B-B988DFB8211A";
paths = (
{
closed = 1;
nodes = (
"595 338 LINE",
"551 366 OFFCURVE",
"527 380 OFFCURVE",
"467 380 CURVE SMOOTH",
"445 380 OFFCURVE",
"394 376 OFFCURVE",
"285 364 CURVE SMOOTH",
"271 362 OFFCURVE",
"256 361 OFFCURVE",
"242 361 CURVE SMOOTH",
"208 361 OFFCURVE",
"174 375 OFFCURVE",
"174 391 CURVE SMOOTH",
"174 402 OFFCURVE",
"184 408 OFFCURVE",
"204 408 CURVE SMOOTH",
"224 408 OFFCURVE",
"243 406 OFFCURVE",
"260 401 CURVE",
"235 428 OFFCURVE",
"201 442 OFFCURVE",
"156 442 CURVE SMOOTH",
"121 442 OFFCURVE",
"103 434 OFFCURVE",
"103 418 CURVE SMOOTH",
"103 397 OFFCURVE",
"128 378 OFFCURVE",
"179 361 CURVE SMOOTH",
"229 344 OFFCURVE",
"287 336 OFFCURVE",
"353 336 CURVE SMOOTH",
"375 336 OFFCURVE",
"396 337 OFFCURVE",
"417 340 CURVE SMOOTH",
"440 343 OFFCURVE",
"462 344 OFFCURVE",
"484 344 CURVE SMOOTH",
"522 344 OFFCURVE",
"560 339 OFFCURVE",
"595 330 CURVE"
);
}
);
width = 698;
}
);
note = u1D046;
unicode = 1D046;
category = Letter;
},
{
glyphname = u1D047;
lastChange = "2018-08-24 12:55:27 +0000";
layers = (
{
layerId = "2208DBFF-11B0-48D9-BA6B-B988DFB8211A";
paths = (
{
closed = 1;
nodes = (
"103 388 LINE",
"133 358 OFFCURVE",
"170 342 OFFCURVE",
"215 343 CURVE SMOOTH",
"476 348 LINE SMOOTH",
"509 349 OFFCURVE",
"546 345 OFFCURVE",
"590 338 CURVE",
"590 346 LINE",
"549 374 OFFCURVE",
"512 389 OFFCURVE",
"478 388 CURVE SMOOTH",
"238 382 LINE SMOOTH",
"182 381 OFFCURVE",
"123 387 OFFCURVE",
"103 396 CURVE"
);
}
);
width = 694;
}
);
note = u1D047;
unicode = 1D047;
category = Letter;
},
{
glyphname = u1D048;
lastChange = "2018-08-24 12:55:27 +0000";
layers = (
{
layerId = "2208DBFF-11B0-48D9-BA6B-B988DFB8211A";
paths = (
{
closed = 1;
nodes = (
"103 361 LINE",
"128 342 OFFCURVE",
"156 333 OFFCURVE",
"187 333 CURVE SMOOTH",
"227 333 OFFCURVE",
"289 343 OFFCURVE",
"373 364 CURVE SMOOTH",
"458 385 OFFCURVE",
"531 395 OFFCURVE",
"595 395 CURVE",
"595 403 LINE",
"562 417 OFFCURVE",
"530 425 OFFCURVE",
"499 425 CURVE SMOOTH",
"472 425 OFFCURVE",
"416 415 OFFCURVE",
"331 396 CURVE SMOOTH",
"245 377 OFFCURVE",
"181 368 OFFCURVE",
"137 367 CURVE SMOOTH",
"126 367 OFFCURVE",
"114 368 OFFCURVE",
"103 370 CURVE"
);
}
);
width = 698;
}
);
note = u1D048;
unicode = 1D048;
category = Letter;
},
{
glyphname = u1D049;
lastChange = "2018-08-24 12:55:27 +0000";
layers = (
{
layerId = "2208DBFF-11B0-48D9-BA6B-B988DFB8211A";
paths = (
{
closed = 1;
nodes = (
"510 413 OFFCURVE",
"539 396 OFFCURVE",
"539 372 CURVE SMOOTH",
"539 337 OFFCURVE",
"503 318 OFFCURVE",
"446 318 CURVE SMOOTH",
"335 318 OFFCURVE",
"215 361 OFFCURVE",
"215 401 CURVE SMOOTH",
"215 407 OFFCURVE",
"220 410 OFFCURVE",
"231 410 CURVE SMOOTH",
"237 410 OFFCURVE",
"244 409 OFFCURVE",
"250 408 CURVE",
"250 416 LINE",
"225 427 OFFCURVE",
"197 432 OFFCURVE",
"164 432 CURVE SMOOTH",
"124 432 OFFCURVE",
"103 426 OFFCURVE",
"103 415 CURVE SMOOTH",
"103 393 OFFCURVE",
"140 367 OFFCURVE",
"214 339 CURVE SMOOTH",
"288 311 OFFCURVE",
"365 296 OFFCURVE",
"446 296 CURVE SMOOTH",
"555 296 OFFCURVE",
"614 320 OFFCURVE",
"614 374 CURVE SMOOTH",
"614 412 OFFCURVE",
"589 430 OFFCURVE",
"541 430 CURVE SMOOTH",
"520 430 OFFCURVE",
"501 426 OFFCURVE",
"487 418 CURVE"
);
}
);
width = 719;
}
);
note = u1D049;
unicode = 1D049;
category = Letter;
},
{
glyphname = u1D04A;
lastChange = "2018-08-24 12:55:27 +0000";
layers = (
{
layerId = "2208DBFF-11B0-48D9-BA6B-B988DFB8211A";
paths = (
{
closed = 1;
nodes = (
"232 437 OFFCURVE",
"201 449 OFFCURVE",
"163 449 CURVE SMOOTH",
"123 449 OFFCURVE",
"103 441 OFFCURVE",
"103 424 CURVE SMOOTH",
"103 403 OFFCURVE",
"122 385 OFFCURVE",
"159 369 CURVE SMOOTH",
"197 353 OFFCURVE",
"242 344 OFFCURVE",
"296 344 CURVE SMOOTH",
"343 344 OFFCURVE",
"388 348 OFFCURVE",
"430 354 CURVE",
"467 377 LINE",
"468 366 OFFCURVE",
"476 355 OFFCURVE",
"490 346 CURVE",
"467 318 LINE",
"498 293 LINE",
"521 323 LINE",
"557 304 OFFCURVE",
"580 294 OFFCURVE",
"590 294 CURVE SMOOTH",
"603 294 OFFCURVE",
"611 296 OFFCURVE",
"613 301 CURVE",
"613 304 LINE",
"578 317 OFFCURVE",
"553 331 OFFCURVE",
"539 343 CURVE",
"550 355 LINE",
"559 373 LINE",
"559 383 OFFCURVE",
"549 391 OFFCURVE",
"539 391 CURVE SMOOTH",
"534 391 OFFCURVE",
"527 389 OFFCURVE",
"521 382 CURVE SMOOTH",
"510 370 LINE",
"484 404 LINE",
"432 384 OFFCURVE",
"339 365 OFFCURVE",
"278 365 CURVE SMOOTH",
"241 365 OFFCURVE",
"215 369 OFFCURVE",
"201 376 CURVE SMOOTH",
"187 383 OFFCURVE",
"179 390 OFFCURVE",
"179 397 CURVE SMOOTH",
"179 409 OFFCURVE",
"192 417 OFFCURVE",
"214 417 CURVE SMOOTH",
"224 417 OFFCURVE",
"245 415 OFFCURVE",
"257 413 CURVE"
);
}
);
width = 718;
}
);
note = u1D04A;
unicode = 1D04A;
category = Letter;
},
{
glyphname = u1D04B;
lastChange = "2018-08-24 12:55:27 +0000";
layers = (
{
layerId = "2208DBFF-11B0-48D9-BA6B-B988DFB8211A";
paths = (
{
closed = 1;
nodes = (
"722 370 LINE",
"708 354 LINE",
"695 369 OFFCURVE",
"687 380 OFFCURVE",
"683 388 CURVE",
"634 388 LINE",
"622 376 LINE SMOOTH",
"602 355 OFFCURVE",
"578 344 OFFCURVE",
"547 344 CURVE SMOOTH",
"521 344 OFFCURVE",
"500 349 OFFCURVE",
"487 359 CURVE SMOOTH",
"474 369 OFFCURVE",
"467 376 OFFCURVE",
"467 383 CURVE SMOOTH",
"467 396 OFFCURVE",
"475 405 OFFCURVE",
"490 412 CURVE",
"490 416 LINE",
"413 416 LINE",
"360 377 OFFCURVE",
"312 353 OFFCURVE",
"247 353 CURVE SMOOTH",
"203 353 OFFCURVE",
"180 360 OFFCURVE",
"180 374 CURVE SMOOTH",
"180 392 OFFCURVE",
"206 401 OFFCURVE",
"257 401 CURVE",
"234 417 OFFCURVE",
"208 425 OFFCURVE",
"179 425 CURVE SMOOTH",
"155 425 OFFCURVE",
"136 421 OFFCURVE",
"123 415 CURVE SMOOTH",
"110 409 OFFCURVE",
"103 398 OFFCURVE",
"103 388 CURVE SMOOTH",
"103 372 OFFCURVE",
"116 358 OFFCURVE",
"143 347 CURVE SMOOTH",
"168 337 OFFCURVE",
"204 330 OFFCURVE",
"247 330 CURVE SMOOTH",
"296 330 OFFCURVE",
"384 352 OFFCURVE",
"413 372 CURVE",
"451 338 OFFCURVE",
"495 322 OFFCURVE",
"547 322 CURVE SMOOTH",
"591 322 OFFCURVE",
"629 335 OFFCURVE",
"662 362 CURVE",
"664 357 OFFCURVE",
"672 347 OFFCURVE",
"689 330 CURVE",
"665 302 LINE",
"697 278 LINE",
"722 310 LINE",
"750 290 OFFCURVE",
"773 280 OFFCURVE",
"790 280 CURVE SMOOTH",
"803 280 OFFCURVE",
"810 282 OFFCURVE",
"812 287 CURVE",
"812 290 LINE",
"781 300 OFFCURVE",
"756 313 OFFCURVE",
"737 329 CURVE",
"750 344 OFFCURVE",
"757 354 OFFCURVE",
"757 360 CURVE SMOOTH",
"757 371 OFFCURVE",
"750 377 OFFCURVE",
"737 377 CURVE"
);
}
);
width = 916;
}
);
note = u1D04B;
unicode = 1D04B;
category = Letter;
},
{
glyphname = u1D04C;
lastChange = "2018-08-24 12:55:27 +0000";
layers = (
{
layerId = "2208DBFF-11B0-48D9-BA6B-B988DFB8211A";
paths = (
{
closed = 1;
nodes = (
"758 371 OFFCURVE",
"752 377 OFFCURVE",
"740 377 CURVE SMOOTH",
"735 377 OFFCURVE",
"729 375 OFFCURVE",
"725 370 CURVE SMOOTH",
"712 354 LINE",
"700 364 OFFCURVE",
"690 375 OFFCURVE",
"684 388 CURVE",
"636 388 LINE",
"599 351 OFFCURVE",
"578 344 OFFCURVE",
"550 344 CURVE SMOOTH",
"522 344 OFFCURVE",
"502 349 OFFCURVE",
"488 359 CURVE SMOOTH",
"475 369 OFFCURVE",
"468 376 OFFCURVE",
"468 383 CURVE SMOOTH",
"468 396 OFFCURVE",
"476 405 OFFCURVE",
"491 412 CURVE",
"491 416 LINE",
"412 416 LINE",
"343 370 OFFCURVE",
"281 346 OFFCURVE",
"228 346 CURVE SMOOTH",
"201 346 OFFCURVE",
"182 364 OFFCURVE",
"182 395 CURVE SMOOTH",
"182 405 OFFCURVE",
"184 414 OFFCURVE",
"187 422 CURVE",
"146 424 LINE",
"140 412 OFFCURVE",
"137 400 OFFCURVE",
"137 388 CURVE SMOOTH",
"137 377 OFFCURVE",
"140 368 OFFCURVE",
"144 361 CURVE",
"110 315 LINE SMOOTH",
"106 310 OFFCURVE",
"104 303 OFFCURVE",
"104 299 CURVE SMOOTH",
"104 296 OFFCURVE",
"105 294 OFFCURVE",
"107 293 CURVE SMOOTH",
"122 288 LINE SMOOTH",
"124 287 OFFCURVE",
"127 286 OFFCURVE",
"128 286 CURVE SMOOTH",
"131 286 OFFCURVE",
"134 288 OFFCURVE",
"138 292 CURVE SMOOTH",
"143 297 OFFCURVE",
"154 311 OFFCURVE",
"173 336 CURVE",
"176 333 OFFCURVE",
"187 329 OFFCURVE",
"204 325 CURVE",
"172 283 LINE SMOOTH",
"168 277 OFFCURVE",
"165 272 OFFCURVE",
"165 268 CURVE SMOOTH",
"165 265 OFFCURVE",
"167 262 OFFCURVE",
"170 261 CURVE SMOOTH",
"186 256 LINE SMOOTH",
"188 255 OFFCURVE",
"189 255 OFFCURVE",
"191 255 CURVE SMOOTH",
"196 255 OFFCURVE",
"202 260 OFFCURVE",
"209 270 CURVE SMOOTH",
"250 323 LINE",
"311 333 OFFCURVE",
"392 357 OFFCURVE",
"413 373 CURVE",
"456 339 OFFCURVE",
"501 322 OFFCURVE",
"550 322 CURVE SMOOTH",
"596 322 OFFCURVE",
"634 335 OFFCURVE",
"664 362 CURVE",
"666 355 OFFCURVE",
"675 345 OFFCURVE",
"691 330 CURVE",
"667 302 LINE",
"698 278 LINE",
"725 310 LINE",
"753 290 OFFCURVE",
"775 280 OFFCURVE",
"792 280 CURVE SMOOTH",
"805 280 OFFCURVE",
"813 282 OFFCURVE",
"815 287 CURVE",
"815 290 LINE",
"780 301 OFFCURVE",
"755 314 OFFCURVE",
"740 329 CURVE",
"751 345 OFFCURVE",
"757 354 OFFCURVE",
"757 355 CURVE SMOOTH",
"758 357 OFFCURVE",
"758 358 OFFCURVE",
"758 360 CURVE SMOOTH"
);
}
);
width = 919;
}
);
note = u1D04C;
unicode = 1D04C;
category = Letter;
},
{
glyphname = u1D04D;
lastChange = "2018-08-24 12:55:27 +0000";
layers = (
{
layerId = "2208DBFF-11B0-48D9-BA6B-B988DFB8211A";
paths = (
{
closed = 1;
nodes = (
"365 260 LINE",
"403 260 LINE SMOOTH",
"419 260 OFFCURVE",
"434 270 OFFCURVE",
"448 287 CURVE SMOOTH",
"535 391 LINE",
"540 406 LINE",
"540 410 OFFCURVE",
"536 412 OFFCURVE",
"530 412 CURVE SMOOTH",
"509 412 LINE",
"462 388 OFFCURVE",
"359 365 OFFCURVE",
"259 365 CURVE SMOOTH",
"231 365 OFFCURVE",
"211 369 OFFCURVE",
"198 376 CURVE SMOOTH",
"186 383 OFFCURVE",
"179 390 OFFCURVE",
"179 397 CURVE SMOOTH",
"179 409 OFFCURVE",
"191 417 OFFCURVE",
"213 417 CURVE SMOOTH",
"229 417 OFFCURVE",
"242 416 OFFCURVE",
"257 413 CURVE",
"232 437 OFFCURVE",
"201 449 OFFCURVE",
"163 449 CURVE SMOOTH",
"123 449 OFFCURVE",
"103 441 OFFCURVE",
"103 424 CURVE SMOOTH",
"103 393 OFFCURVE",
"198 344 OFFCURVE",
"258 344 CURVE SMOOTH",
"292 344 OFFCURVE",
"388 351 OFFCURVE",
"446 360 CURVE"
);
}
);
width = 646;
}
);
note = u1D04D;
unicode = 1D04D;
category = Letter;
},
{
glyphname = u1D04E;
lastChange = "2018-08-24 12:55:27 +0000";
layers = (
{
layerId = "2208DBFF-11B0-48D9-BA6B-B988DFB8211A";
paths = (
{
closed = 1;
nodes = (
"109 401 LINE SMOOTH",
"122 401 OFFCURVE",
"127 392 OFFCURVE",
"131 374 CURVE SMOOTH",
"137 344 LINE SMOOTH",
"144 310 OFFCURVE",
"169 293 OFFCURVE",
"210 293 CURVE SMOOTH",
"219 293 OFFCURVE",
"229 295 OFFCURVE",
"240 301 CURVE",
"240 310 LINE",
"233 310 LINE SMOOTH",
"214 310 OFFCURVE",
"210 332 OFFCURVE",
"206 357 CURVE SMOOTH",
"201 386 OFFCURVE",
"189 412 OFFCURVE",
"142 412 CURVE SMOOTH",
"129 412 OFFCURVE",
"116 410 OFFCURVE",
"103 406 CURVE",
"103 401 LINE"
);
},
{
closed = 1;
nodes = (
"222 401 LINE SMOOTH",
"234 401 OFFCURVE",
"241 386 OFFCURVE",
"243 367 CURVE SMOOTH",
"245 349 OFFCURVE",
"251 328 OFFCURVE",
"264 313 CURVE SMOOTH",
"276 300 OFFCURVE",
"294 293 OFFCURVE",
"322 293 CURVE SMOOTH",
"331 293 OFFCURVE",
"341 295 OFFCURVE",
"352 301 CURVE",
"352 310 LINE",
"344 310 LINE SMOOTH",
"338 310 OFFCURVE",
"333 312 OFFCURVE",
"331 314 CURVE SMOOTH",
"328 317 OFFCURVE",
"322 338 OFFCURVE",
"315 364 CURVE SMOOTH",
"310 384 OFFCURVE",
"303 412 OFFCURVE",
"251 412 CURVE SMOOTH",
"239 412 OFFCURVE",
"227 410 OFFCURVE",
"215 406 CURVE",
"215 401 LINE"
);
}
);
width = 455;
}
);
note = u1D04E;
unicode = 1D04E;
category = Letter;
},
{
glyphname = u1D04F;
lastChange = "2018-08-24 12:55:27 +0000";
layers = (
{
layerId = "2208DBFF-11B0-48D9-BA6B-B988DFB8211A";
paths = (
{
closed = 1;
nodes = (
"110 541 LINE SMOOTH",
"114 541 OFFCURVE",
"118 541 OFFCURVE",
"123 537 CURVE SMOOTH",
"127 532 OFFCURVE",
"131 515 OFFCURVE",
"134 495 CURVE SMOOTH",
"137 478 OFFCURVE",
"147 460 OFFCURVE",
"154 453 CURVE SMOOTH",
"166 441 OFFCURVE",
"184 433 OFFCURVE",
"210 433 CURVE SMOOTH",
"222 433 OFFCURVE",
"232 436 OFFCURVE",
"240 442 CURVE",
"240 449 LINE",
"237 449 LINE SMOOTH",
"231 449 OFFCURVE",
"224 452 OFFCURVE",
"218 456 CURVE SMOOTH",
"213 460 OFFCURVE",
"209 479 OFFCURVE",
"205 508 CURVE SMOOTH",
"201 537 OFFCURVE",
"179 552 OFFCURVE",
"142 552 CURVE SMOOTH",
"129 552 OFFCURVE",
"116 550 OFFCURVE",
"103 547 CURVE",
"103 541 LINE"
);
}
);
width = 344;
}
);
note = u1D04F;
unicode = 1D04F;
category = Letter;
},
{
glyphname = u1D050;
lastChange = "2018-08-24 12:55:27 +0000";
layers = (
{
layerId = "2208DBFF-11B0-48D9-BA6B-B988DFB8211A";
paths = (
{
closed = 1;
nodes = (
"103 474 LINE",
"170 474 OFFCURVE",
"231 463 OFFCURVE",
"288 442 CURVE",
"290 448 LINE",
"274 469 OFFCURVE",
"238 485 OFFCURVE",
"197 485 CURVE",
"326 495 OFFCURVE",
"428 566 OFFCURVE",
"455 665 CURVE",
"457 672 OFFCURVE",
"475 683 OFFCURVE",
"487 685 CURVE",
"475 693 OFFCURVE",
"467 697 OFFCURVE",
"448 697 CURVE SMOOTH",
"429 697 OFFCURVE",
"410 690 OFFCURVE",
"391 676 CURVE",
"341 548 OFFCURVE",
"291 516 OFFCURVE",
"103 487 CURVE"
);
}
);
width = 590;
}
);
note = u1D050;
unicode = 1D050;
category = Letter;
},
{
glyphname = u1D051;
lastChange = "2018-08-24 12:55:27 +0000";
layers = (
{
layerId = "2208DBFF-11B0-48D9-BA6B-B988DFB8211A";
paths = (
{
closed = 1;
nodes = (
"426 294 OFFCURVE",
"432 305 OFFCURVE",
"432 322 CURVE SMOOTH",
"432 376 OFFCURVE",
"308 418 OFFCURVE",
"185 418 CURVE SMOOTH",
"164 418 OFFCURVE",
"136 416 OFFCURVE",
"103 412 CURVE",
"103 406 LINE",
"167 404 OFFCURVE",
"224 396 OFFCURVE",
"273 381 CURVE SMOOTH",
"322 366 OFFCURVE",
"346 349 OFFCURVE",
"346 331 CURVE SMOOTH",
"346 320 OFFCURVE",
"338 312 OFFCURVE",
"323 308 CURVE",
"339 300 OFFCURVE",
"385 290 OFFCURVE",
"413 290 CURVE"
);
}
);
width = 535;
}
);
note = u1D051;
unicode = 1D051;
category = Letter;
},
{
glyphname = u1D052;
lastChange = "2018-08-24 12:55:27 +0000";
layers = (
{
layerId = "2208DBFF-11B0-48D9-BA6B-B988DFB8211A";
paths = (
{
closed = 1;
nodes = (
"376 294 OFFCURVE",
"382 306 OFFCURVE",
"382 323 CURVE SMOOTH",
"382 374 OFFCURVE",
"258 416 OFFCURVE",
"164 416 CURVE SMOOTH",
"144 416 OFFCURVE",
"125 415 OFFCURVE",
"103 413 CURVE",
"103 408 LINE",
"164 405 OFFCURVE",
"212 396 OFFCURVE",
"248 382 CURVE SMOOTH",
"283 368 OFFCURVE",
"301 351 OFFCURVE",
"301 331 CURVE SMOOTH",
"301 320 OFFCURVE",
"293 312 OFFCURVE",
"278 308 CURVE",
"293 300 OFFCURVE",
"335 290 OFFCURVE",
"365 290 CURVE"
);
},
{
closed = 1;
nodes = (
"511 272 OFFCURVE",
"516 282 OFFCURVE",
"516 300 CURVE SMOOTH",
"516 369 OFFCURVE",
"379 417 OFFCURVE",
"296 418 CURVE SMOOTH",
"284 418 OFFCURVE",
"271 417 OFFCURVE",
"259 416 CURVE",
"259 413 LINE",
"375 401 OFFCURVE",
"433 363 OFFCURVE",
"433 310 CURVE SMOOTH",
"433 299 OFFCURVE",
"422 287 OFFCURVE",
"412 283 CURVE",
"439 273 OFFCURVE",
"467 268 OFFCURVE",
"498 268 CURVE"
);
}
);
width = 619;
}
);
note = u1D052;
unicode = 1D052;
category = Letter;
},
{
glyphname = u1D053;
lastChange = "2018-08-24 12:55:27 +0000";
layers = (
{
layerId = "2208DBFF-11B0-48D9-BA6B-B988DFB8211A";
paths = (
{
closed = 1;
nodes = (
"131 291 OFFCURVE",
"178 278 OFFCURVE",
"217 278 CURVE SMOOTH",
"244 278 OFFCURVE",
"271 287 OFFCURVE",
"271 312 CURVE SMOOTH",
"271 321 OFFCURVE",
"262 345 OFFCURVE",
"242 380 CURVE SMOOTH",
"236 391 LINE",
"236 395 OFFCURVE",
"239 397 OFFCURVE",
"245 397 CURVE SMOOTH",
"250 397 LINE SMOOTH",
"254 397 OFFCURVE",
"258 396 OFFCURVE",
"259 394 CURVE SMOOTH",
"261 392 OFFCURVE",
"264 391 OFFCURVE",
"269 391 CURVE SMOOTH",
"276 391 OFFCURVE",
"280 396 OFFCURVE",
"280 404 CURVE SMOOTH",
"280 412 OFFCURVE",
"270 416 OFFCURVE",
"251 416 CURVE SMOOTH",
"196 416 LINE SMOOTH",
"174 416 OFFCURVE",
"163 408 OFFCURVE",
"163 391 CURVE SMOOTH",
"163 387 OFFCURVE",
"168 376 OFFCURVE",
"177 357 CURVE SMOOTH",
"186 338 OFFCURVE",
"190 326 OFFCURVE",
"190 322 CURVE SMOOTH",
"190 314 OFFCURVE",
"181 310 OFFCURVE",
"164 310 CURVE SMOOTH",
"142 310 OFFCURVE",
"122 312 OFFCURVE",
"103 314 CURVE",
"103 310 LINE"
);
}
);
width = 383;
}
);
note = u1D053;
unicode = 1D053;
category = Letter;
},
{
glyphname = u1D054;
lastChange = "2018-08-24 12:55:27 +0000";
layers = (
{
layerId = "2208DBFF-11B0-48D9-BA6B-B988DFB8211A";
paths = (
{
closed = 1;
nodes = (
"106 208 LINE",
"112 206 OFFCURVE",
"125 204 OFFCURVE",
"145 204 CURVE",
"164 218 OFFCURVE",
"174 239 OFFCURVE",
"174 266 CURVE",
"160 268 OFFCURVE",
"145 269 OFFCURVE",
"131 269 CURVE",
"114 258 OFFCURVE",
"106 240 OFFCURVE",
"106 217 CURVE SMOOTH"
);
},
{
closed = 1;
nodes = (
"356 187 OFFCURVE",
"354 169 OFFCURVE",
"352 142 CURVE",
"337 135 OFFCURVE",
"315 131 OFFCURVE",
"287 131 CURVE",
"287 124 LINE",
"314 117 OFFCURVE",
"336 114 OFFCURVE",
"355 114 CURVE SMOOTH",
"380 114 OFFCURVE",
"400 122 OFFCURVE",
"415 138 CURVE",
"418 199 LINE",
"425 208 OFFCURVE",
"437 214 OFFCURVE",
"452 216 CURVE",
"452 226 LINE",
"412 226 LINE SMOOTH",
"389 226 OFFCURVE",
"372 221 OFFCURVE",
"362 210 CURVE",
"337 209 OFFCURVE",
"319 209 OFFCURVE",
"294 209 CURVE SMOOTH",
"265 209 OFFCURVE",
"242 222 OFFCURVE",
"242 239 CURVE SMOOTH",
"242 243 OFFCURVE",
"243 245 OFFCURVE",
"252 252 CURVE",
"237 257 OFFCURVE",
"229 259 OFFCURVE",
"218 259 CURVE SMOOTH",
"196 259 OFFCURVE",
"185 250 OFFCURVE",
"185 232 CURVE SMOOTH",
"185 205 OFFCURVE",
"229 187 OFFCURVE",
"276 187 CURVE SMOOTH",
"310 187 OFFCURVE",
"337 190 OFFCURVE",
"360 196 CURVE"
);
}
);
width = 556;
}
);
note = u1D054;
unicode = 1D054;
category = Letter;
},
{
glyphname = u1D055;
lastChange = "2018-08-24 12:55:27 +0000";
layers = (
{
layerId = "2208DBFF-11B0-48D9-BA6B-B988DFB8211A";
paths = (
{
closed = 1;
nodes = (
"220 293 OFFCURVE",
"229 293 OFFCURVE",
"239 294 CURVE",
"213 303 OFFCURVE",
"187 332 OFFCURVE",
"187 348 CURVE SMOOTH",
"187 376 OFFCURVE",
"214 390 OFFCURVE",
"268 390 CURVE SMOOTH",
"397 390 OFFCURVE",
"500 337 OFFCURVE",
"506 271 CURVE",
"533 264 OFFCURVE",
"557 260 OFFCURVE",
"577 260 CURVE SMOOTH",
"587 260 OFFCURVE",
"597 261 OFFCURVE",
"607 262 CURVE",
"593 306 OFFCURVE",
"507 363 OFFCURVE",
"396 397 CURVE SMOOTH",
"341 414 OFFCURVE",
"285 422 OFFCURVE",
"230 422 CURVE SMOOTH",
"148 422 OFFCURVE",
"103 405 OFFCURVE",
"103 360 CURVE SMOOTH",
"103 321 OFFCURVE",
"151 293 OFFCURVE",
"210 293 CURVE SMOOTH"
);
}
);
width = 712;
}
);
note = u1D055;
unicode = 1D055;
category = Letter;
},
{
glyphname = u1D056;
lastChange = "2018-08-24 12:55:27 +0000";
layers = (
{
layerId = "2208DBFF-11B0-48D9-BA6B-B988DFB8211A";
paths = (
{
closed = 1;
nodes = (
"322 254 OFFCURVE",
"333 252 OFFCURVE",
"336 252 CURVE SMOOTH",
"360 252 OFFCURVE",
"378 265 OFFCURVE",
"391 290 CURVE",
"501 289 LINE SMOOTH",
"536 289 OFFCURVE",
"565 291 OFFCURVE",
"589 293 CURVE",
"562 304 OFFCURVE",
"542 311 OFFCURVE",
"527 312 CURVE SMOOTH",
"403 318 LINE",
"416 354 LINE",
"384 359 LINE SMOOTH",
"369 361 OFFCURVE",
"353 354 OFFCURVE",
"348 342 CURVE SMOOTH",
"340 322 LINE",
"259 333 OFFCURVE",
"208 363 OFFCURVE",
"187 412 CURVE",
"187 444 LINE",
"172 451 OFFCURVE",
"160 455 OFFCURVE",
"149 455 CURVE SMOOTH",
"143 455 OFFCURVE",
"127 452 OFFCURVE",
"103 446 CURVE",
"108 390 OFFCURVE",
"115 381 OFFCURVE",
"145 353 CURVE SMOOTH",
"179 321 OFFCURVE",
"224 301 OFFCURVE",
"331 293 CURVE",
"329 282 OFFCURVE",
"323 270 OFFCURVE",
"312 258 CURVE"
);
}
);
width = 692;
}
);
note = u1D056;
unicode = 1D056;
category = Letter;
},
{
glyphname = u1D057;
lastChange = "2018-08-24 12:55:27 +0000";
layers = (
{
layerId = "2208DBFF-11B0-48D9-BA6B-B988DFB8211A";
paths = (
{
closed = 1;
nodes = (
"121 401 LINE",
"109 401 OFFCURVE",
"103 396 OFFCURVE",
"103 386 CURVE SMOOTH",
"103 363 OFFCURVE",
"118 344 OFFCURVE",
"147 331 CURVE SMOOTH",
"177 318 OFFCURVE",
"230 311 OFFCURVE",
"308 311 CURVE",
"308 318 LINE",
"211 327 OFFCURVE",
"163 346 OFFCURVE",
"163 374 CURVE SMOOTH",
"163 382 OFFCURVE",
"165 389 OFFCURVE",
"167 395 CURVE"
);
}
);
width = 412;
}
);
note = u1D057;
unicode = 1D057;
category = Letter;
},
{
glyphname = u1D058;
lastChange = "2018-08-24 12:55:27 +0000";
layers = (
{
layerId = "2208DBFF-11B0-48D9-BA6B-B988DFB8211A";
paths = (
{
closed = 1;
nodes = (
"103 432 LINE",
"119 365 OFFCURVE",
"163 302 OFFCURVE",
"227 263 CURVE SMOOTH",
"294 222 OFFCURVE",
"383 192 OFFCURVE",
"484 174 CURVE",
"484 179 LINE",
"327 217 OFFCURVE",
"230 281 OFFCURVE",
"188 370 CURVE SMOOTH",
"175 398 LINE SMOOTH",
"162 425 OFFCURVE",
"155 432 OFFCURVE",
"138 432 CURVE SMOOTH"
);
}
);
width = 588;
}
);
note = u1D058;
unicode = 1D058;
category = Letter;
},
{
glyphname = u1D059;
lastChange = "2018-08-24 12:55:27 +0000";
layers = (
{
layerId = "2208DBFF-11B0-48D9-BA6B-B988DFB8211A";
paths = (
{
closed = 1;
nodes = (
"188 197 LINE",
"209 134 OFFCURVE",
"232 92 OFFCURVE",
"331 49 CURVE SMOOTH",
"380 28 OFFCURVE",
"431 11 OFFCURVE",
"484 0 CURVE",
"484 2 LINE",
"415 32 LINE SMOOTH",
"337 66 OFFCURVE",
"281 114 OFFCURVE",
"252 170 CURVE SMOOTH",
"243 187 OFFCURVE",
"237 197 OFFCURVE",
"217 197 CURVE SMOOTH"
);
},
{
closed = 1;
nodes = (
"103 197 LINE",
"109 172 OFFCURVE",
"124 149 OFFCURVE",
"145 127 CURVE SMOOTH",
"158 113 LINE",
"208 106 LINE",
"190 126 OFFCURVE",
"177 146 OFFCURVE",
"169 167 CURVE SMOOTH",
"161 187 OFFCURVE",
"148 197 OFFCURVE",
"132 197 CURVE SMOOTH"
);
}
);
width = 588;
}
);
note = u1D059;
unicode = 1D059;
category = Letter;
},
{
glyphname = u1D05A;
lastChange = "2018-08-24 12:55:27 +0000";
layers = (
{
layerId = "2208DBFF-11B0-48D9-BA6B-B988DFB8211A";
paths = (
{
closed = 1;
nodes = (
"419 145 OFFCURVE",
"423 145 OFFCURVE",
"427 146 CURVE SMOOTH",
"622 218 LINE",
"597 230 OFFCURVE",
"541 241 OFFCURVE",
"524 241 CURVE SMOOTH",
"514 241 OFFCURVE",
"503 238 OFFCURVE",
"491 232 CURVE SMOOTH",
"393 184 LINE SMOOTH",
"384 180 OFFCURVE",
"369 175 OFFCURVE",
"360 175 CURVE SMOOTH",
"354 175 OFFCURVE",
"270 193 OFFCURVE",
"106 230 CURVE",
"106 226 LINE SMOOTH",
"106 217 OFFCURVE",
"109 211 OFFCURVE",
"116 209 CURVE SMOOTH",
"386 149 LINE SMOOTH",
"396 147 OFFCURVE",
"405 146 OFFCURVE",
"415 145 CURVE SMOOTH"
);
}
);
width = 726;
}
);
note = u1D05A;
unicode = 1D05A;
category = Letter;
},
{
glyphname = u1D05B;
lastChange = "2018-08-24 12:55:27 +0000";
layers = (
{
layerId = "2208DBFF-11B0-48D9-BA6B-B988DFB8211A";
paths = (
{
closed = 1;
nodes = (
"103 146 LINE",
"588 157 LINE",
"552 110 LINE",
"634 102 LINE",
"719 163 LINE",
"631 179 LINE",
"103 164 LINE"
);
}
);
width = 822;
}
);
note = u1D05B;
unicode = 1D05B;
category = Letter;
},
{
glyphname = u1D05C;
lastChange = "2018-08-24 12:55:27 +0000";
layers = (
{
layerId = "2208DBFF-11B0-48D9-BA6B-B988DFB8211A";
paths = (
{
closed = 1;
nodes = (
"103 179 LINE",
"191 187 OFFCURVE",
"269 190 OFFCURVE",
"338 190 CURVE SMOOTH",
"401 190 OFFCURVE",
"449 185 OFFCURVE",
"483 175 CURVE SMOOTH",
"517 165 OFFCURVE",
"533 152 OFFCURVE",
"533 137 CURVE SMOOTH",
"533 131 OFFCURVE",
"528 123 OFFCURVE",
"518 113 CURVE",
"531 105 OFFCURVE",
"567 95 OFFCURVE",
"582 95 CURVE SMOOTH",
"601 95 OFFCURVE",
"611 104 OFFCURVE",
"611 122 CURVE SMOOTH",
"611 143 OFFCURVE",
"587 163 OFFCURVE",
"537 180 CURVE SMOOTH",
"487 197 OFFCURVE",
"420 206 OFFCURVE",
"338 206 CURVE SMOOTH",
"246 206 OFFCURVE",
"167 200 OFFCURVE",
"103 188 CURVE"
);
}
);
width = 714;
}
);
note = u1D05C;
unicode = 1D05C;
category = Letter;
},
{
glyphname = u1D05D;
lastChange = "2018-08-24 12:55:27 +0000";
layers = (
{
layerId = "2208DBFF-11B0-48D9-BA6B-B988DFB8211A";
paths = (
{
closed = 1;
nodes = (
"245 146 LINE",
"253 154 OFFCURVE",
"258 164 OFFCURVE",
"258 174 CURVE SMOOTH",
"258 195 OFFCURVE",
"235 209 OFFCURVE",
"196 209 CURVE SMOOTH",
"148 209 OFFCURVE",
"119 204 OFFCURVE",
"103 149 CURVE",
"149 149 LINE",
"155 178 OFFCURVE",
"171 193 OFFCURVE",
"196 193 CURVE SMOOTH",
"213 193 OFFCURVE",
"222 186 OFFCURVE",
"222 173 CURVE SMOOTH",
"222 162 OFFCURVE",
"214 147 OFFCURVE",
"197 131 CURVE",
"612 115 LINE",
"612 132 LINE"
);
}
);
width = 715;
}
);
note = u1D05D;
unicode = 1D05D;
category = Letter;
},
{
glyphname = u1D05E;
lastChange = "2018-08-24 12:55:27 +0000";
layers = (
{
layerId = "2208DBFF-11B0-48D9-BA6B-B988DFB8211A";
paths = (
{
closed = 1;
nodes = (
"331 521 LINE",
"318 519 OFFCURVE",
"311 511 OFFCURVE",
"311 496 CURVE SMOOTH",
"311 477 OFFCURVE",
"332 467 OFFCURVE",
"372 467 CURVE SMOOTH",
"676 467 LINE",
"665 485 LINE",
"439 485 LINE SMOOTH",
"406 485 OFFCURVE",
"390 492 OFFCURVE",
"390 506 CURVE SMOOTH",
"390 521 OFFCURVE",
"406 533 OFFCURVE",
"416 535 CURVE",
"416 541 LINE",
"103 541 LINE",
"113 521 LINE"
);
}
);
width = 779;
}
);
note = u1D05E;
unicode = 1D05E;
category = Letter;
},
{
glyphname = u1D05F;
lastChange = "2018-08-24 12:55:27 +0000";
layers = (
{
layerId = "2208DBFF-11B0-48D9-BA6B-B988DFB8211A";
paths = (
{
closed = 1;
nodes = (
"370 373 OFFCURVE",
"344 391 OFFCURVE",
"308 391 CURVE SMOOTH",
"243 391 OFFCURVE",
"103 361 OFFCURVE",
"103 352 CURVE SMOOTH",
"103 340 OFFCURVE",
"131 336 OFFCURVE",
"162 333 CURVE SMOOTH",
"181 331 OFFCURVE",
"203 326 OFFCURVE",
"218 322 CURVE SMOOTH",
"239 317 OFFCURVE",
"250 310 OFFCURVE",
"250 302 CURVE SMOOTH",
"250 298 OFFCURVE",
"247 291 OFFCURVE",
"241 281 CURVE SMOOTH",
"206 222 OFFCURVE",
"188 178 OFFCURVE",
"188 149 CURVE SMOOTH",
"188 104 OFFCURVE",
"229 71 OFFCURVE",
"296 71 CURVE SMOOTH",
"355 71 OFFCURVE",
"408 101 OFFCURVE",
"408 142 CURVE SMOOTH",
"408 156 OFFCURVE",
"401 163 OFFCURVE",
"386 163 CURVE SMOOTH",
"370 163 OFFCURVE",
"355 154 OFFCURVE",
"355 144 CURVE SMOOTH",
"355 136 OFFCURVE",
"362 127 OFFCURVE",
"377 118 CURVE",
"372 103 OFFCURVE",
"335 86 OFFCURVE",
"296 86 CURVE SMOOTH",
"259 86 OFFCURVE",
"226 115 OFFCURVE",
"226 144 CURVE SMOOTH",
"226 154 OFFCURVE",
"229 164 OFFCURVE",
"234 174 CURVE SMOOTH",
"269 245 LINE SMOOTH",
"275 258 OFFCURVE",
"278 276 OFFCURVE",
"278 301 CURVE SMOOTH",
"278 324 OFFCURVE",
"261 340 OFFCURVE",
"229 343 CURVE SMOOTH",
"145 352 LINE",
"182 359 LINE SMOOTH",
"192 361 OFFCURVE",
"248 366 OFFCURVE",
"260 366 CURVE SMOOTH",
"307 366 OFFCURVE",
"330 359 OFFCURVE",
"330 346 CURVE SMOOTH",
"330 335 OFFCURVE",
"328 327 OFFCURVE",
"323 322 CURVE",
"354 338 OFFCURVE",
"370 351 OFFCURVE",
"370 361 CURVE SMOOTH"
);
}
);
width = 511;
}
);
note = u1D05F;
unicode = 1D05F;
category = Letter;
},
{
glyphname = u1D060;
lastChange = "2018-08-24 12:55:27 +0000";
layers = (
{
layerId = "2208DBFF-11B0-48D9-BA6B-B988DFB8211A";
paths = (
{
closed = 1;
nodes = (
"165 132 OFFCURVE",
"310 158 OFFCURVE",
"382 158 CURVE SMOOTH",
"452 158 OFFCURVE",
"474 144 OFFCURVE",
"495 130 CURVE SMOOTH",
"527 109 OFFCURVE",
"562 86 OFFCURVE",
"647 86 CURVE SMOOTH",
"696 86 OFFCURVE",
"771 110 OFFCURVE",
"812 138 CURVE",
"809 149 LINE",
"760 124 OFFCURVE",
"694 110 OFFCURVE",
"654 110 CURVE SMOOTH",
"583 110 OFFCURVE",
"557 150 OFFCURVE",
"501 171 CURVE SMOOTH",
"475 181 OFFCURVE",
"435 188 OFFCURVE",
"383 188 CURVE SMOOTH",
"350 188 OFFCURVE",
"282 178 OFFCURVE",
"179 157 CURVE",
"176 177 LINE",
"180 200 LINE",
"148 200 OFFCURVE",
"129 191 OFFCURVE",
"121 174 CURVE",
"122 152 LINE SMOOTH",
"123 136 OFFCURVE",
"116 123 OFFCURVE",
"103 113 CURVE"
);
}
);
width = 916;
}
);
note = u1D060;
unicode = 1D060;
category = Letter;
},
{
glyphname = u1D061;
lastChange = "2018-08-24 12:55:27 +0000";
layers = (
{
layerId = "2208DBFF-11B0-48D9-BA6B-B988DFB8211A";
paths = (
{
closed = 1;
nodes = (
"233 82 OFFCURVE",
"257 80 OFFCURVE",
"288 80 CURVE SMOOTH",
"308 80 LINE",
"330 102 OFFCURVE",
"411 132 OFFCURVE",
"469 132 CURVE SMOOTH",
"513 132 OFFCURVE",
"569 120 OFFCURVE",
"638 97 CURVE SMOOTH",
"707 74 OFFCURVE",
"749 62 OFFCURVE",
"763 62 CURVE SMOOTH",
"788 62 OFFCURVE",
"800 73 OFFCURVE",
"800 94 CURVE SMOOTH",
"800 112 OFFCURVE",
"790 121 OFFCURVE",
"769 121 CURVE SMOOTH",
"750 121 OFFCURVE",
"740 113 OFFCURVE",
"740 96 CURVE SMOOTH",
"740 89 OFFCURVE",
"735 85 OFFCURVE",
"726 85 CURVE SMOOTH",
"722 85 OFFCURVE",
"710 89 OFFCURVE",
"693 96 CURVE SMOOTH",
"596 137 OFFCURVE",
"517 156 OFFCURVE",
"456 156 CURVE SMOOTH",
"389 156 OFFCURVE",
"329 140 OFFCURVE",
"274 107 CURVE",
"283 114 OFFCURVE",
"287 125 OFFCURVE",
"287 137 CURVE SMOOTH",
"287 159 OFFCURVE",
"261 170 OFFCURVE",
"209 170 CURVE SMOOTH",
"142 170 OFFCURVE",
"106 150 OFFCURVE",
"103 110 CURVE",
"157 110 LINE",
"159 137 OFFCURVE",
"179 152 OFFCURVE",
"210 152 CURVE SMOOTH",
"233 152 OFFCURVE",
"245 145 OFFCURVE",
"245 131 CURVE SMOOTH",
"245 116 OFFCURVE",
"235 101 OFFCURVE",
"215 86 CURVE"
);
}
);
width = 905;
}
);
note = u1D061;
unicode = 1D061;
category = Letter;
},
{
glyphname = u1D062;
lastChange = "2018-08-24 12:55:27 +0000";
layers = (
{
layerId = "2208DBFF-11B0-48D9-BA6B-B988DFB8211A";
paths = (
{
closed = 1;
nodes = (
"373 186 OFFCURVE",
"471 206 OFFCURVE",
"574 206 CURVE SMOOTH",
"607 206 OFFCURVE",
"630 205 OFFCURVE",
"644 201 CURVE SMOOTH",
"658 197 OFFCURVE",
"665 191 OFFCURVE",
"665 182 CURVE SMOOTH",
"665 177 OFFCURVE",
"662 171 OFFCURVE",
"656 165 CURVE SMOOTH",
"649 158 OFFCURVE",
"646 153 OFFCURVE",
"646 149 CURVE SMOOTH",
"646 145 OFFCURVE",
"659 142 OFFCURVE",
"685 142 CURVE SMOOTH",
"714 142 OFFCURVE",
"719 145 OFFCURVE",
"719 164 CURVE SMOOTH",
"719 184 OFFCURVE",
"708 200 OFFCURVE",
"687 211 CURVE SMOOTH",
"666 222 OFFCURVE",
"627 228 OFFCURVE",
"571 228 CURVE SMOOTH",
"481 228 OFFCURVE",
"350 201 OFFCURVE",
"274 173 CURVE",
"283 179 OFFCURVE",
"287 189 OFFCURVE",
"287 204 CURVE SMOOTH",
"287 225 OFFCURVE",
"261 236 OFFCURVE",
"209 236 CURVE SMOOTH",
"142 236 OFFCURVE",
"106 215 OFFCURVE",
"103 175 CURVE",
"157 175 LINE",
"159 200 OFFCURVE",
"179 217 OFFCURVE",
"210 217 CURVE SMOOTH",
"233 217 OFFCURVE",
"245 210 OFFCURVE",
"245 197 CURVE SMOOTH",
"245 184 OFFCURVE",
"235 169 OFFCURVE",
"215 154 CURVE",
"232 148 OFFCURVE",
"250 146 OFFCURVE",
"268 146 CURVE SMOOTH",
"280 146 LINE"
);
}
);
width = 822;
}
);
note = u1D062;
unicode = 1D062;
category = Letter;
},
{
glyphname = u1D063;
lastChange = "2018-08-24 12:55:27 +0000";
layers = (
{
layerId = "2208DBFF-11B0-48D9-BA6B-B988DFB8211A";
paths = (
{
closed = 1;
nodes = (
"133 276 OFFCURVE",
"123 275 OFFCURVE",
"115 274 CURVE SMOOTH",
"107 273 OFFCURVE",
"103 270 OFFCURVE",
"103 262 CURVE SMOOTH",
"103 247 OFFCURVE",
"208 203 OFFCURVE",
"238 175 CURVE SMOOTH",
"259 156 OFFCURVE",
"271 137 OFFCURVE",
"271 113 CURVE SMOOTH",
"271 74 OFFCURVE",
"222 39 OFFCURVE",
"173 28 CURVE",
"182 22 OFFCURVE",
"194 20 OFFCURVE",
"208 20 CURVE SMOOTH",
"271 20 OFFCURVE",
"323 57 OFFCURVE",
"323 106 CURVE SMOOTH",
"323 135 OFFCURVE",
"291 174 OFFCURVE",
"227 208 CURVE SMOOTH",
"154 247 LINE",
"310 242 LINE",
"303 265 OFFCURVE",
"279 276 OFFCURVE",
"239 276 CURVE SMOOTH",
"145 276 LINE SMOOTH"
);
}
);
width = 426;
}
);
note = u1D063;
unicode = 1D063;
category = Letter;
},
{
glyphname = u1D064;
lastChange = "2018-08-24 12:55:27 +0000";
layers = (
{
layerId = "2208DBFF-11B0-48D9-BA6B-B988DFB8211A";
paths = (
{
closed = 1;
nodes = (
"308 247 LINE SMOOTH",
"339 247 OFFCURVE",
"343 221 OFFCURVE",
"347 191 CURVE SMOOTH",
"350 168 OFFCURVE",
"357 138 OFFCURVE",
"378 120 CURVE SMOOTH",
"415 88 OFFCURVE",
"462 71 OFFCURVE",
"562 71 CURVE",
"492 94 OFFCURVE",
"447 116 OFFCURVE",
"426 137 CURVE SMOOTH",
"420 143 OFFCURVE",
"418 150 OFFCURVE",
"417 160 CURVE SMOOTH",
"413 198 LINE SMOOTH",
"409 240 OFFCURVE",
"378 271 OFFCURVE",
"329 271 CURVE SMOOTH",
"115 269 LINE SMOOTH",
"108 269 OFFCURVE",
"105 266 OFFCURVE",
"105 260 CURVE SMOOTH",
"105 253 OFFCURVE",
"113 245 OFFCURVE",
"122 245 CURVE SMOOTH"
);
}
);
width = 665;
}
);
note = u1D064;
unicode = 1D064;
category = Letter;
},
{
glyphname = u1D065;
lastChange = "2018-08-24 12:55:27 +0000";
layers = (
{
layerId = "2208DBFF-11B0-48D9-BA6B-B988DFB8211A";
paths = (
{
closed = 1;
nodes = (
"371 165 OFFCURVE",
"359 145 OFFCURVE",
"351 124 CURVE SMOOTH",
"346 112 OFFCURVE",
"343 99 OFFCURVE",
"343 84 CURVE",
"350 81 OFFCURVE",
"363 78 OFFCURVE",
"377 79 CURVE SMOOTH",
"396 80 LINE",
"432 98 OFFCURVE",
"466 107 OFFCURVE",
"499 107 CURVE SMOOTH",
"524 107 OFFCURVE",
"562 95 OFFCURVE",
"613 71 CURVE SMOOTH",
"663 47 OFFCURVE",
"694 35 OFFCURVE",
"706 35 CURVE SMOOTH",
"726 35 OFFCURVE",
"737 50 OFFCURVE",
"737 70 CURVE SMOOTH",
"737 86 OFFCURVE",
"729 94 OFFCURVE",
"714 94 CURVE SMOOTH",
"699 94 OFFCURVE",
"692 87 OFFCURVE",
"692 72 CURVE SMOOTH",
"692 65 OFFCURVE",
"689 62 OFFCURVE",
"684 62 CURVE SMOOTH",
"679 62 OFFCURVE",
"669 66 OFFCURVE",
"656 73 CURVE SMOOTH",
"584 113 OFFCURVE",
"528 132 OFFCURVE",
"487 132 CURVE SMOOTH",
"471 132 OFFCURVE",
"446 128 OFFCURVE",
"413 121 CURVE",
"432 160 OFFCURVE",
"442 186 OFFCURVE",
"442 199 CURVE SMOOTH",
"442 206 OFFCURVE",
"436 209 OFFCURVE",
"425 209 CURVE SMOOTH",
"412 209 OFFCURVE",
"319 190 OFFCURVE",
"262 190 CURVE SMOOTH",
"206 190 OFFCURVE",
"133 207 OFFCURVE",
"120 207 CURVE SMOOTH",
"109 207 OFFCURVE",
"103 205 OFFCURVE",
"103 199 CURVE SMOOTH",
"103 196 OFFCURVE",
"106 190 OFFCURVE",
"115 188 CURVE SMOOTH",
"172 174 OFFCURVE",
"214 170 OFFCURVE",
"262 170 CURVE SMOOTH",
"299 170 OFFCURVE",
"339 174 OFFCURVE",
"382 182 CURVE"
);
}
);
width = 841;
}
);
note = u1D065;
unicode = 1D065;
category = Letter;
},
{
glyphname = u1D066;
lastChange = "2018-08-24 12:55:27 +0000";
layers = (
{
layerId = "2208DBFF-11B0-48D9-BA6B-B988DFB8211A";
paths = (
{
closed = 1;
nodes = (
"156 170 LINE SMOOTH",
"127 170 OFFCURVE",
"103 152 OFFCURVE",
"103 131 CURVE SMOOTH",
"103 118 OFFCURVE",
"112 109 OFFCURVE",
"127 106 CURVE SMOOTH",
"143 103 OFFCURVE",
"166 101 OFFCURVE",
"196 101 CURVE SMOOTH",
"211 101 OFFCURVE",
"256 108 OFFCURVE",
"330 122 CURVE SMOOTH",
"403 136 OFFCURVE",
"450 142 OFFCURVE",
"469 142 CURVE SMOOTH",
"479 142 OFFCURVE",
"484 140 OFFCURVE",
"484 136 CURVE SMOOTH",
"484 128 OFFCURVE",
"468 115 OFFCURVE",
"448 110 CURVE",
"456 104 OFFCURVE",
"466 101 OFFCURVE",
"481 101 CURVE SMOOTH",
"509 101 OFFCURVE",
"539 113 OFFCURVE",
"539 136 CURVE SMOOTH",
"539 151 OFFCURVE",
"521 158 OFFCURVE",
"484 158 CURVE SMOOTH",
"452 158 OFFCURVE",
"401 151 OFFCURVE",
"329 138 CURVE SMOOTH",
"257 125 OFFCURVE",
"213 118 OFFCURVE",
"197 118 CURVE SMOOTH",
"186 118 OFFCURVE",
"178 119 OFFCURVE",
"174 121 CURVE SMOOTH",
"169 122 OFFCURVE",
"167 125 OFFCURVE",
"167 131 CURVE SMOOTH",
"167 135 OFFCURVE",
"173 141 OFFCURVE",
"185 147 CURVE SMOOTH",
"197 153 OFFCURVE",
"203 159 OFFCURVE",
"203 162 CURVE SMOOTH",
"203 167 OFFCURVE",
"197 170 OFFCURVE",
"185 170 CURVE SMOOTH"
);
}
);
width = 642;
}
);
note = u1D066;
unicode = 1D066;
category = Letter;
},
{
glyphname = u1D067;
lastChange = "2018-08-24 12:55:27 +0000";
layers = (
{
layerId = "2208DBFF-11B0-48D9-BA6B-B988DFB8211A";
paths = (
{
closed = 1;
nodes = (
"252 187 LINE",
"276 187 LINE",
"271 224 LINE",
"288 230 LINE",
"293 196 LINE",
"314 196 LINE",
"311 239 LINE",
"319 241 OFFCURVE",
"326 242 OFFCURVE",
"334 242 CURVE SMOOTH",
"363 242 OFFCURVE",
"377 223 OFFCURVE",
"377 185 CURVE SMOOTH",
"377 149 OFFCURVE",
"347 128 OFFCURVE",
"325 128 CURVE SMOOTH",
"311 128 OFFCURVE",
"296 131 OFFCURVE",
"282 136 CURVE",
"282 131 LINE",
"293 123 OFFCURVE",
"309 118 OFFCURVE",
"329 118 CURVE SMOOTH",
"374 118 OFFCURVE",
"406 147 OFFCURVE",
"406 187 CURVE SMOOTH",
"406 235 OFFCURVE",
"375 259 OFFCURVE",
"312 259 CURVE SMOOTH",
"310 259 LINE",
"308 283 LINE",
"283 283 LINE",
"287 257 LINE",
"269 250 LINE",
"268 276 LINE",
"245 276 LINE",
"247 239 LINE",
"232 230 OFFCURVE",
"217 221 OFFCURVE",
"202 213 CURVE SMOOTH",
"188 205 OFFCURVE",
"175 200 OFFCURVE",
"166 200 CURVE SMOOTH",
"142 200 OFFCURVE",
"128 225 OFFCURVE",
"128 240 CURVE SMOOTH",
"128 260 OFFCURVE",
"144 274 OFFCURVE",
"163 274 CURVE SMOOTH",
"174 274 OFFCURVE",
"186 271 OFFCURVE",
"199 266 CURVE",
"199 271 LINE",
"185 288 OFFCURVE",
"169 296 OFFCURVE",
"152 296 CURVE SMOOTH",
"128 296 OFFCURVE",
"103 281 OFFCURVE",
"103 250 CURVE SMOOTH",
"103 214 OFFCURVE",
"140 188 OFFCURVE",
"187 188 CURVE SMOOTH",
"194 188 OFFCURVE",
"215 197 OFFCURVE",
"250 215 CURVE"
);
}
);
width = 510;
}
);
note = u1D067;
unicode = 1D067;
category = Letter;
},
{
glyphname = u1D068;
lastChange = "2018-08-24 12:55:27 +0000";
layers = (
{
layerId = "2208DBFF-11B0-48D9-BA6B-B988DFB8211A";
paths = (
{
closed = 1;
nodes = (
"208 189 OFFCURVE",
"268 174 OFFCURVE",
"377 174 CURVE SMOOTH",
"424 174 OFFCURVE",
"483 181 OFFCURVE",
"552 196 CURVE",
"552 199 LINE",
"491 192 OFFCURVE",
"434 188 OFFCURVE",
"380 188 CURVE SMOOTH",
"365 188 LINE",
"334 258 LINE",
"308 259 LINE",
"338 190 LINE",
"308 197 LINE",
"276 266 LINE",
"250 268 LINE",
"276 209 LINE",
"235 228 OFFCURVE",
"217 247 OFFCURVE",
"192 268 CURVE SMOOTH",
"171 285 OFFCURVE",
"149 311 OFFCURVE",
"132 311 CURVE SMOOTH",
"119 311 OFFCURVE",
"109 308 OFFCURVE",
"103 301 CURVE"
);
}
);
width = 655;
}
);
note = u1D068;
unicode = 1D068;
category = Letter;
},
{
glyphname = u1D069;
lastChange = "2018-08-24 12:55:27 +0000";
layers = (
{
layerId = "2208DBFF-11B0-48D9-BA6B-B988DFB8211A";
paths = (
{
closed = 1;
nodes = (
"188 260 LINE",
"210 196 OFFCURVE",
"232 154 OFFCURVE",
"331 113 CURVE SMOOTH",
"380 93 OFFCURVE",
"431 75 OFFCURVE",
"484 64 CURVE",
"484 70 LINE",
"385 107 OFFCURVE",
"353 129 OFFCURVE",
"323 151 CURVE SMOOTH",
"304 165 OFFCURVE",
"262 215 OFFCURVE",
"254 230 CURVE SMOOTH",
"245 247 OFFCURVE",
"236 260 OFFCURVE",
"220 260 CURVE SMOOTH"
);
},
{
closed = 1;
nodes = (
"103 260 LINE",
"112 225 OFFCURVE",
"144 193 OFFCURVE",
"158 175 CURVE",
"208 170 LINE",
"188 193 OFFCURVE",
"175 214 OFFCURVE",
"167 232 CURVE SMOOTH",
"159 250 OFFCURVE",
"148 260 OFFCURVE",
"132 260 CURVE SMOOTH"
);
},
{
closed = 1;
nodes = (
"354 188 OFFCURVE",
"395 173 OFFCURVE",
"438 173 CURVE SMOOTH",
"458 173 OFFCURVE",
"478 181 OFFCURVE",
"478 200 CURVE SMOOTH",
"478 206 OFFCURVE",
"471 224 OFFCURVE",
"457 255 CURVE SMOOTH",
"452 266 LINE",
"452 270 OFFCURVE",
"454 271 OFFCURVE",
"458 271 CURVE SMOOTH",
"466 271 OFFCURVE",
"474 266 OFFCURVE",
"478 266 CURVE SMOOTH",
"482 266 OFFCURVE",
"487 270 OFFCURVE",
"487 276 CURVE SMOOTH",
"487 283 OFFCURVE",
"479 287 OFFCURVE",
"463 287 CURVE SMOOTH",
"418 287 LINE SMOOTH",
"399 287 OFFCURVE",
"390 280 OFFCURVE",
"390 266 CURVE",
"415 208 LINE",
"415 202 OFFCURVE",
"407 199 OFFCURVE",
"391 199 CURVE SMOOTH",
"368 199 OFFCURVE",
"353 201 OFFCURVE",
"344 204 CURVE",
"344 199 LINE"
);
}
);
width = 590;
}
);
note = u1D069;
unicode = 1D069;
category = Letter;
},
{
glyphname = u1D06A;
lastChange = "2018-08-24 12:55:27 +0000";
layers = (
{
layerId = "2208DBFF-11B0-48D9-BA6B-B988DFB8211A";
paths = (
{
closed = 1;
nodes = (
"120 -5 OFFCURVE",
"137 -8 OFFCURVE",
"154 -8 CURVE SMOOTH",
"206 -8 OFFCURVE",
"268 6 OFFCURVE",
"348 48 CURVE SMOOTH",
"387 68 LINE SMOOTH",
"415 82 OFFCURVE",
"435 89 OFFCURVE",
"449 89 CURVE SMOOTH",
"453 89 OFFCURVE",
"465 85 OFFCURVE",
"484 77 CURVE",
"427 35 LINE SMOOTH",
"418 29 OFFCURVE",
"406 21 OFFCURVE",
"397 15 CURVE SMOOTH",
"387 8 OFFCURVE",
"382 3 OFFCURVE",
"382 -1 CURVE SMOOTH",
"382 -12 OFFCURVE",
"391 -17 OFFCURVE",
"408 -17 CURVE SMOOTH",
"418 -17 OFFCURVE",
"433 -12 OFFCURVE",
"449 0 CURVE SMOOTH",
"521 55 LINE",
"557 40 OFFCURVE",
"599 23 OFFCURVE",
"632 23 CURVE SMOOTH",
"667 23 OFFCURVE",
"684 33 OFFCURVE",
"684 53 CURVE SMOOTH",
"684 70 OFFCURVE",
"674 84 OFFCURVE",
"655 84 CURVE SMOOTH",
"645 84 OFFCURVE",
"636 79 OFFCURVE",
"629 70 CURVE",
"638 64 OFFCURVE",
"642 58 OFFCURVE",
"642 52 CURVE SMOOTH",
"642 46 OFFCURVE",
"636 43 OFFCURVE",
"625 43 CURVE SMOOTH",
"603 43 OFFCURVE",
"568 57 OFFCURVE",
"521 83 CURVE SMOOTH",
"473 110 OFFCURVE",
"441 124 OFFCURVE",
"425 124 CURVE SMOOTH",
"396 124 OFFCURVE",
"362 108 OFFCURVE",
"329 85 CURVE SMOOTH",
"287 56 OFFCURVE",
"242 27 OFFCURVE",
"197 16 CURVE SMOOTH",
"161 7 OFFCURVE",
"130 1 OFFCURVE",
"103 1 CURVE",
"103 -2 LINE"
);
}
);
width = 787;
}
);
note = u1D06A;
unicode = 1D06A;
category = Letter;
},
{
glyphname = u1D06B;
lastChange = "2018-08-24 12:55:27 +0000";
layers = (
{
layerId = "2208DBFF-11B0-48D9-BA6B-B988DFB8211A";
paths = (
{
closed = 1;
nodes = (
"144 108 LINE",
"250 108 OFFCURVE",
"347 148 OFFCURVE",
"406 215 CURVE",
"418 202 OFFCURVE",
"425 185 OFFCURVE",
"425 164 CURVE SMOOTH",
"425 141 OFFCURVE",
"411 122 OFFCURVE",
"382 107 CURVE SMOOTH",
"361 96 LINE",
"431 96 OFFCURVE",
"467 132 OFFCURVE",
"467 173 CURVE SMOOTH",
"467 200 OFFCURVE",
"453 223 OFFCURVE",
"426 240 CURVE",
"459 291 OFFCURVE",
"473 305 OFFCURVE",
"510 323 CURVE",
"510 329 LINE",
"458 329 LINE SMOOTH",
"431 329 OFFCURVE",
"409 314 OFFCURVE",
"394 284 CURVE SMOOTH",
"383 262 LINE",
"350 277 OFFCURVE",
"313 293 OFFCURVE",
"273 308 CURVE SMOOTH",
"247 318 LINE",
"279 333 OFFCURVE",
"311 344 OFFCURVE",
"343 352 CURVE SMOOTH",
"375 360 OFFCURVE",
"391 366 OFFCURVE",
"391 372 CURVE SMOOTH",
"391 375 OFFCURVE",
"372 386 OFFCURVE",
"362 386 CURVE SMOOTH",
"345 386 OFFCURVE",
"249 355 OFFCURVE",
"196 318 CURVE",
"196 312 LINE",
"226 303 OFFCURVE",
"255 293 OFFCURVE",
"286 281 CURVE SMOOTH",
"312 271 OFFCURVE",
"322 267 OFFCURVE",
"352 253 CURVE SMOOTH",
"356 252 OFFCURVE",
"367 246 OFFCURVE",
"370 242 CURVE",
"306 152 OFFCURVE",
"223 120 OFFCURVE",
"103 110 CURVE"
);
}
);
width = 613;
}
);
note = u1D06B;
unicode = 1D06B;
category = Letter;
},
{
glyphname = u1D06C;
lastChange = "2018-08-24 12:55:27 +0000";
layers = (
{
layerId = "2208DBFF-11B0-48D9-BA6B-B988DFB8211A";
paths = (
{
closed = 1;
nodes = (
"504 166 LINE",
"523 217 OFFCURVE",
"552 251 OFFCURVE",
"589 266 CURVE",
"589 269 LINE",
"538 269 LINE SMOOTH",
"507 269 OFFCURVE",
"486 252 OFFCURVE",
"472 219 CURVE SMOOTH",
"449 166 LINE",
"245 170 LINE",
"253 177 OFFCURVE",
"258 186 OFFCURVE",
"258 197 CURVE SMOOTH",
"258 204 OFFCURVE",
"254 211 OFFCURVE",
"246 220 CURVE SMOOTH",
"238 229 OFFCURVE",
"222 232 OFFCURVE",
"197 232 CURVE SMOOTH",
"153 232 OFFCURVE",
"134 223 OFFCURVE",
"121 211 CURVE SMOOTH",
"115 205 OFFCURVE",
"108 192 OFFCURVE",
"103 173 CURVE",
"149 173 LINE",
"156 202 OFFCURVE",
"171 216 OFFCURVE",
"196 216 CURVE SMOOTH",
"213 216 OFFCURVE",
"222 209 OFFCURVE",
"222 196 CURVE SMOOTH",
"222 183 OFFCURVE",
"214 168 OFFCURVE",
"197 152 CURVE",
"439 145 LINE",
"402 75 OFFCURVE",
"362 53 OFFCURVE",
"196 41 CURVE",
"196 34 LINE",
"213 33 OFFCURVE",
"231 32 OFFCURVE",
"248 32 CURVE SMOOTH",
"348 32 OFFCURVE",
"442 52 OFFCURVE",
"494 144 CURVE",
"728 137 LINE",
"728 163 LINE"
);
}
);
width = 833;
}
);
note = u1D06C;
unicode = 1D06C;
category = Letter;
},
{
glyphname = u1D06D;
lastChange = "2018-08-24 12:55:27 +0000";
layers = (
{
layerId = "2208DBFF-11B0-48D9-BA6B-B988DFB8211A";
paths = (
{
closed = 1;
nodes = (
"353 250 OFFCURVE",
"342 250 OFFCURVE",
"335 249 CURVE SMOOTH",
"327 248 OFFCURVE",
"323 243 OFFCURVE",
"323 236 CURVE SMOOTH",
"323 233 OFFCURVE",
"327 229 OFFCURVE",
"335 224 CURVE SMOOTH",
"347 216 OFFCURVE",
"367 204 OFFCURVE",
"395 189 CURVE SMOOTH",
"408 182 OFFCURVE",
"420 175 OFFCURVE",
"433 166 CURVE",
"245 170 LINE",
"253 177 OFFCURVE",
"258 186 OFFCURVE",
"258 197 CURVE SMOOTH",
"258 204 OFFCURVE",
"254 211 OFFCURVE",
"246 220 CURVE SMOOTH",
"238 229 OFFCURVE",
"222 232 OFFCURVE",
"197 232 CURVE SMOOTH",
"153 232 OFFCURVE",
"134 223 OFFCURVE",
"121 211 CURVE SMOOTH",
"115 205 OFFCURVE",
"108 192 OFFCURVE",
"103 173 CURVE",
"149 173 LINE",
"156 202 OFFCURVE",
"171 216 OFFCURVE",
"196 216 CURVE SMOOTH",
"213 216 OFFCURVE",
"222 209 OFFCURVE",
"222 196 CURVE SMOOTH",
"222 183 OFFCURVE",
"214 168 OFFCURVE",
"197 152 CURVE",
"466 144 LINE",
"483 126 OFFCURVE",
"491 106 OFFCURVE",
"491 85 CURVE SMOOTH",
"491 50 OFFCURVE",
"450 16 OFFCURVE",
"391 0 CURVE",
"408 -4 LINE",
"426 -7 LINE",
"494 -7 OFFCURVE",
"542 30 OFFCURVE",
"542 79 CURVE SMOOTH",
"542 98 OFFCURVE",
"529 120 OFFCURVE",
"504 144 CURVE",
"728 137 LINE",
"728 163 LINE",
"474 166 LINE",
"443 185 OFFCURVE",
"410 203 OFFCURVE",
"373 218 CURVE",
"528 216 LINE",
"522 239 OFFCURVE",
"499 250 OFFCURVE",
"458 250 CURVE SMOOTH",
"365 250 LINE SMOOTH"
);
}
);
width = 833;
}
);
note = u1D06D;
unicode = 1D06D;
category = Letter;
},
{
glyphname = u1D06E;
lastChange = "2018-08-24 12:55:27 +0000";
layers = (
{
layerId = "2208DBFF-11B0-48D9-BA6B-B988DFB8211A";
paths = (
{
closed = 1;
nodes = (
"166 133 OFFCURVE",
"300 158 OFFCURVE",
"373 158 CURVE",
"404 138 OFFCURVE",
"422 121 OFFCURVE",
"422 85 CURVE SMOOTH",
"422 53 OFFCURVE",
"382 18 OFFCURVE",
"322 0 CURVE",
"341 -5 OFFCURVE",
"350 -7 OFFCURVE",
"355 -7 CURVE SMOOTH",
"420 -7 OFFCURVE",
"474 27 OFFCURVE",
"474 79 CURVE SMOOTH",
"474 105 OFFCURVE",
"454 131 OFFCURVE",
"412 158 CURVE",
"472 154 OFFCURVE",
"505 118 OFFCURVE",
"551 101 CURVE SMOOTH",
"573 93 OFFCURVE",
"605 86 OFFCURVE",
"647 86 CURVE SMOOTH",
"696 86 OFFCURVE",
"771 110 OFFCURVE",
"812 138 CURVE",
"809 149 LINE",
"760 124 OFFCURVE",
"694 110 OFFCURVE",
"653 110 CURVE SMOOTH",
"580 110 OFFCURVE",
"558 150 OFFCURVE",
"501 171 CURVE SMOOTH",
"475 181 OFFCURVE",
"435 188 OFFCURVE",
"383 188 CURVE SMOOTH",
"365 188 LINE",
"302 218 LINE",
"458 216 LINE",
"452 239 OFFCURVE",
"429 250 OFFCURVE",
"388 250 CURVE SMOOTH",
"294 250 LINE SMOOTH",
"281 250 OFFCURVE",
"271 250 OFFCURVE",
"264 249 CURVE SMOOTH",
"256 248 OFFCURVE",
"252 243 OFFCURVE",
"252 236 CURVE SMOOTH",
"252 229 OFFCURVE",
"271 217 OFFCURVE",
"306 198 CURVE SMOOTH",
"330 185 LINE",
"288 178 OFFCURVE",
"238 169 OFFCURVE",
"179 157 CURVE",
"176 177 LINE",
"180 200 LINE",
"148 200 OFFCURVE",
"129 191 OFFCURVE",
"121 174 CURVE",
"122 152 LINE SMOOTH",
"123 136 OFFCURVE",
"116 123 OFFCURVE",
"103 113 CURVE"
);
}
);
width = 916;
}
);
note = u1D06E;
unicode = 1D06E;
category = Letter;
},
{
glyphname = u1D06F;
lastChange = "2018-08-24 12:55:27 +0000";
layers = (
{
layerId = "2208DBFF-11B0-48D9-BA6B-B988DFB8211A";
paths = (
{
closed = 1;
nodes = (
"113 34 LINE",
"143 30 OFFCURVE",
"170 28 OFFCURVE",
"195 28 CURVE SMOOTH",
"259 28 OFFCURVE",
"343 38 OFFCURVE",
"396 110 CURVE",
"435 71 OFFCURVE",
"478 60 OFFCURVE",
"547 60 CURVE SMOOTH",
"601 60 OFFCURVE",
"644 68 OFFCURVE",
"676 84 CURVE",
"674 95 LINE",
"643 85 OFFCURVE",
"601 80 OFFCURVE",
"547 80 CURVE SMOOTH",
"498 80 OFFCURVE",
"448 106 OFFCURVE",
"416 145 CURVE",
"433 185 OFFCURVE",
"449 212 OFFCURVE",
"462 226 CURVE SMOOTH",
"475 239 OFFCURVE",
"490 248 OFFCURVE",
"506 252 CURVE",
"506 258 LINE",
"455 258 LINE SMOOTH",
"419 258 OFFCURVE",
"397 239 OFFCURVE",
"377 175 CURVE",
"344 192 OFFCURVE",
"312 198 OFFCURVE",
"241 198 CURVE SMOOTH",
"223 198 OFFCURVE",
"205 197 OFFCURVE",
"187 196 CURVE",
"187 213 OFFCURVE",
"190 228 OFFCURVE",
"197 242 CURVE",
"171 244 LINE SMOOTH",
"155 245 OFFCURVE",
"139 237 OFFCURVE",
"132 228 CURVE",
"132 216 LINE SMOOTH",
"132 206 OFFCURVE",
"124 181 OFFCURVE",
"103 170 CURVE",
"156 175 OFFCURVE",
"194 178 OFFCURVE",
"216 178 CURVE SMOOTH",
"249 178 OFFCURVE",
"316 178 OFFCURVE",
"362 145 CURVE",
"321 61 OFFCURVE",
"287 43 OFFCURVE",
"113 41 CURVE"
);
}
);
width = 779;
}
);
note = u1D06F;
unicode = 1D06F;
category = Letter;
},
{
glyphname = u1D070;
lastChange = "2018-08-24 12:55:27 +0000";
layers = (
{
layerId = "2208DBFF-11B0-48D9-BA6B-B988DFB8211A";
paths = (
{
closed = 1;
nodes = (
"468 391 OFFCURVE",
"458 391 OFFCURVE",
"450 390 CURVE SMOOTH",
"443 389 OFFCURVE",
"439 385 OFFCURVE",
"439 380 CURVE SMOOTH",
"439 374 OFFCURVE",
"448 362 OFFCURVE",
"466 346 CURVE",
"445 345 OFFCURVE",
"414 338 OFFCURVE",
"374 325 CURVE",
"394 365 OFFCURVE",
"404 391 OFFCURVE",
"404 404 CURVE SMOOTH",
"404 411 OFFCURVE",
"398 415 OFFCURVE",
"388 415 CURVE SMOOTH",
"383 415 OFFCURVE",
"373 413 OFFCURVE",
"365 412 CURVE SMOOTH",
"300 401 OFFCURVE",
"256 396 OFFCURVE",
"226 396 CURVE SMOOTH",
"199 396 OFFCURVE",
"177 398 OFFCURVE",
"160 402 CURVE SMOOTH",
"142 406 OFFCURVE",
"129 408 OFFCURVE",
"121 408 CURVE SMOOTH",
"109 408 OFFCURVE",
"103 406 OFFCURVE",
"103 401 CURVE SMOOTH",
"103 395 OFFCURVE",
"115 388 OFFCURVE",
"136 383 CURVE SMOOTH",
"159 378 OFFCURVE",
"188 374 OFFCURVE",
"226 374 CURVE SMOOTH",
"268 374 OFFCURVE",
"307 379 OFFCURVE",
"344 388 CURVE",
"338 376 OFFCURVE",
"329 360 OFFCURVE",
"319 344 CURVE SMOOTH",
"309 327 OFFCURVE",
"304 309 OFFCURVE",
"304 288 CURVE",
"312 286 OFFCURVE",
"321 284 OFFCURVE",
"331 284 CURVE SMOOTH",
"341 284 OFFCURVE",
"350 285 OFFCURVE",
"360 287 CURVE",
"387 300 OFFCURVE",
"442 319 OFFCURVE",
"476 319 CURVE SMOOTH",
"496 319 LINE",
"510 306 LINE SMOOTH",
"543 275 OFFCURVE",
"584 254 OFFCURVE",
"584 199 CURVE SMOOTH",
"584 168 OFFCURVE",
"550 138 OFFCURVE",
"485 118 CURVE",
"494 115 OFFCURVE",
"505 113 OFFCURVE",
"520 113 CURVE SMOOTH",
"582 113 OFFCURVE",
"636 149 OFFCURVE",
"636 199 CURVE SMOOTH",
"636 236 OFFCURVE",
"596 273 OFFCURVE",
"553 308 CURVE",
"567 303 OFFCURVE",
"581 297 OFFCURVE",
"595 290 CURVE SMOOTH",
"662 257 OFFCURVE",
"683 250 OFFCURVE",
"718 250 CURVE SMOOTH",
"737 250 OFFCURVE",
"750 262 OFFCURVE",
"750 282 CURVE SMOOTH",
"750 299 OFFCURVE",
"742 308 OFFCURVE",
"726 308 CURVE SMOOTH",
"713 308 OFFCURVE",
"706 301 OFFCURVE",
"706 287 CURVE SMOOTH",
"706 280 OFFCURVE",
"703 276 OFFCURVE",
"697 276 CURVE SMOOTH",
"689 276 OFFCURVE",
"679 279 OFFCURVE",
"667 285 CURVE SMOOTH",
"625 306 LINE SMOOTH",
"595 321 OFFCURVE",
"556 337 OFFCURVE",
"509 344 CURVE",
"490 362 LINE",
"646 360 LINE",
"640 381 OFFCURVE",
"616 391 OFFCURVE",
"574 391 CURVE SMOOTH",
"481 391 LINE SMOOTH"
);
}
);
width = 854;
}
);
note = u1D070;
unicode = 1D070;
category = Letter;
},
{
glyphname = u1D071;
lastChange = "2018-08-24 12:55:27 +0000";
layers = (
{
layerId = "2208DBFF-11B0-48D9-BA6B-B988DFB8211A";
paths = (
{
closed = 1;
nodes = (
"266 74 LINE",
"307 73 LINE SMOOTH",
"311 73 OFFCURVE",
"315 73 OFFCURVE",
"319 73 CURVE SMOOTH",
"447 73 OFFCURVE",
"538 121 OFFCURVE",
"578 215 CURVE",
"612 198 LINE SMOOTH",
"651 178 OFFCURVE",
"685 166 OFFCURVE",
"718 166 CURVE SMOOTH",
"737 166 OFFCURVE",
"750 180 OFFCURVE",
"750 199 CURVE SMOOTH",
"750 216 OFFCURVE",
"742 224 OFFCURVE",
"726 224 CURVE SMOOTH",
"713 224 OFFCURVE",
"706 217 OFFCURVE",
"706 204 CURVE SMOOTH",
"706 197 OFFCURVE",
"703 193 OFFCURVE",
"697 193 CURVE SMOOTH",
"686 193 OFFCURVE",
"672 199 OFFCURVE",
"654 208 CURVE SMOOTH",
"636 217 OFFCURVE",
"614 228 OFFCURVE",
"589 239 CURVE",
"607 275 OFFCURVE",
"631 298 OFFCURVE",
"660 308 CURVE",
"660 311 LINE",
"607 311 LINE SMOOTH",
"577 311 OFFCURVE",
"554 293 OFFCURVE",
"539 257 CURVE",
"516 260 OFFCURVE",
"494 262 OFFCURVE",
"475 262 CURVE SMOOTH",
"443 262 OFFCURVE",
"409 255 OFFCURVE",
"374 242 CURVE",
"388 266 OFFCURVE",
"404 310 OFFCURVE",
"404 322 CURVE SMOOTH",
"404 328 OFFCURVE",
"398 331 OFFCURVE",
"388 331 CURVE SMOOTH",
"382 331 OFFCURVE",
"376 330 OFFCURVE",
"365 328 CURVE SMOOTH",
"346 325 OFFCURVE",
"327 322 OFFCURVE",
"301 318 CURVE SMOOTH",
"272 314 OFFCURVE",
"242 312 OFFCURVE",
"226 312 CURVE SMOOTH",
"191 312 OFFCURVE",
"177 315 OFFCURVE",
"160 319 CURVE SMOOTH",
"143 323 OFFCURVE",
"129 325 OFFCURVE",
"121 325 CURVE SMOOTH",
"109 325 OFFCURVE",
"103 323 OFFCURVE",
"103 318 CURVE SMOOTH",
"103 313 OFFCURVE",
"111 306 OFFCURVE",
"128 301 CURVE SMOOTH",
"144 296 OFFCURVE",
"177 293 OFFCURVE",
"226 293 CURVE SMOOTH",
"266 293 OFFCURVE",
"305 297 OFFCURVE",
"344 304 CURVE",
"337 291 OFFCURVE",
"328 276 OFFCURVE",
"319 260 CURVE SMOOTH",
"309 242 OFFCURVE",
"304 225 OFFCURVE",
"304 206 CURVE",
"312 202 OFFCURVE",
"321 200 OFFCURVE",
"332 200 CURVE SMOOTH",
"346 200 OFFCURVE",
"367 206 OFFCURVE",
"395 218 CURVE SMOOTH",
"423 230 OFFCURVE",
"450 236 OFFCURVE",
"476 236 CURVE SMOOTH",
"501 236 OFFCURVE",
"520 234 OFFCURVE",
"530 230 CURVE",
"491 142 OFFCURVE",
"460 118 OFFCURVE",
"403 102 CURVE SMOOTH",
"369 92 OFFCURVE",
"332 86 OFFCURVE",
"266 80 CURVE"
);
}
);
width = 854;
}
);
note = u1D071;
unicode = 1D071;
category = Letter;
},
{
glyphname = u1D072;
lastChange = "2018-08-24 12:55:27 +0000";
layers = (
{
layerId = "2208DBFF-11B0-48D9-BA6B-B988DFB8211A";
paths = (
{
closed = 1;
nodes = (
"425 127 LINE",
"403 72 LINE",
"456 66 LINE",
"484 127 LINE",
"553 128 LINE",
"516 43 LINE",
"569 37 LINE",
"614 138 LINE",
"581 152 LINE",
"494 149 LINE",
"516 196 LINE",
"478 208 LINE",
"103 199 LINE",
"113 180 LINE",
"452 185 LINE",
"434 149 LINE",
"190 144 LINE",
"199 124 LINE"
);
}
);
width = 719;
}
);
note = u1D072;
unicode = 1D072;
category = Letter;
},
{
glyphname = u1D073;
lastChange = "2018-08-24 12:55:27 +0000";
layers = (
{
layerId = "2208DBFF-11B0-48D9-BA6B-B988DFB8211A";
paths = (
{
closed = 1;
nodes = (
"365 45 OFFCURVE",
"372 43 OFFCURVE",
"385 40 CURVE SMOOTH",
"398 37 OFFCURVE",
"414 35 OFFCURVE",
"432 35 CURVE SMOOTH",
"464 35 OFFCURVE",
"486 48 OFFCURVE",
"494 75 CURVE SMOOTH",
"504 107 LINE",
"588 107 LINE",
"541 8 LINE",
"595 1 LINE",
"649 118 LINE",
"613 131 LINE",
"510 128 LINE",
"514 142 LINE SMOOTH",
"520 163 OFFCURVE",
"525 175 OFFCURVE",
"537 178 CURVE SMOOTH",
"548 181 OFFCURVE",
"553 183 OFFCURVE",
"553 187 CURVE SMOOTH",
"553 191 OFFCURVE",
"548 193 OFFCURVE",
"539 193 CURVE SMOOTH",
"502 193 LINE SMOOTH",
"486 193 OFFCURVE",
"475 188 OFFCURVE",
"468 180 CURVE",
"425 177 OFFCURVE",
"376 174 OFFCURVE",
"330 174 CURVE SMOOTH",
"305 174 OFFCURVE",
"285 177 OFFCURVE",
"271 183 CURVE SMOOTH",
"257 189 OFFCURVE",
"250 197 OFFCURVE",
"250 206 CURVE SMOOTH",
"250 208 OFFCURVE",
"253 213 OFFCURVE",
"259 218 CURVE",
"257 219 OFFCURVE",
"254 220 OFFCURVE",
"248 222 CURVE SMOOTH",
"240 225 OFFCURVE",
"233 226 OFFCURVE",
"226 226 CURVE SMOOTH",
"208 226 OFFCURVE",
"190 217 OFFCURVE",
"190 199 CURVE SMOOTH",
"190 187 OFFCURVE",
"200 176 OFFCURVE",
"219 167 CURVE SMOOTH",
"238 158 OFFCURVE",
"269 154 OFFCURVE",
"312 154 CURVE SMOOTH",
"373 154 OFFCURVE",
"422 157 OFFCURVE",
"458 163 CURVE",
"446 127 LINE",
"239 122 LINE",
"247 103 LINE",
"439 106 LINE",
"433 81 LINE SMOOTH",
"429 64 OFFCURVE",
"420 59 OFFCURVE",
"403 59 CURVE SMOOTH",
"378 59 OFFCURVE",
"365 56 OFFCURVE",
"365 49 CURVE SMOOTH"
);
},
{
closed = 1;
nodes = (
"131 235 LINE",
"114 224 OFFCURVE",
"106 207 OFFCURVE",
"106 184 CURVE SMOOTH",
"106 174 LINE",
"145 174 LINE",
"162 181 OFFCURVE",
"171 197 OFFCURVE",
"171 224 CURVE",
"170 235 LINE"
);
}
);
width = 754;
}
);
note = u1D073;
unicode = 1D073;
category = Letter;
},
{
glyphname = u1D074;
lastChange = "2018-08-24 12:55:27 +0000";
layers = (
{
layerId = "2208DBFF-11B0-48D9-BA6B-B988DFB8211A";
paths = (
{
closed = 1;
nodes = (
"412 46 OFFCURVE",
"434 42 OFFCURVE",
"476 42 CURVE SMOOTH",
"509 42 OFFCURVE",
"531 55 OFFCURVE",
"539 80 CURVE SMOOTH",
"550 113 LINE",
"631 114 LINE",
"593 34 LINE",
"647 28 LINE",
"692 124 LINE",
"656 137 LINE",
"556 136 LINE",
"560 153 LINE SMOOTH",
"563 165 OFFCURVE",
"565 177 OFFCURVE",
"572 180 CURVE SMOOTH",
"583 185 OFFCURVE",
"599 186 OFFCURVE",
"599 193 CURVE SMOOTH",
"599 197 OFFCURVE",
"594 199 OFFCURVE",
"584 199 CURVE SMOOTH",
"547 199 LINE SMOOTH",
"530 199 OFFCURVE",
"520 193 OFFCURVE",
"516 182 CURVE",
"245 182 LINE",
"253 188 OFFCURVE",
"258 197 OFFCURVE",
"258 209 CURVE SMOOTH",
"258 232 OFFCURVE",
"236 245 OFFCURVE",
"197 245 CURVE SMOOTH",
"155 245 OFFCURVE",
"134 234 OFFCURVE",
"122 222 CURVE SMOOTH",
"115 215 OFFCURVE",
"109 204 OFFCURVE",
"103 185 CURVE",
"149 185 LINE",
"156 214 OFFCURVE",
"171 228 OFFCURVE",
"196 228 CURVE SMOOTH",
"213 228 OFFCURVE",
"222 221 OFFCURVE",
"222 208 CURVE SMOOTH",
"222 199 OFFCURVE",
"218 188 OFFCURVE",
"209 178 CURVE SMOOTH",
"197 164 LINE",
"502 164 LINE",
"491 132 LINE",
"283 128 LINE",
"293 110 LINE",
"485 113 LINE",
"476 83 LINE SMOOTH",
"472 71 OFFCURVE",
"464 64 OFFCURVE",
"448 64 CURVE SMOOTH",
"424 64 OFFCURVE",
"412 61 OFFCURVE",
"412 53 CURVE SMOOTH"
);
}
);
width = 797;
}
);
note = u1D074;
unicode = 1D074;
category = Letter;
},
{
glyphname = u1D075;
lastChange = "2018-08-24 12:55:27 +0000";
layers = (
{
layerId = "2208DBFF-11B0-48D9-BA6B-B988DFB8211A";
paths = (
{
closed = 1;
nodes = (
"163 59 OFFCURVE",
"168 64 OFFCURVE",
"178 67 CURVE SMOOTH",
"188 70 OFFCURVE",
"204 72 OFFCURVE",
"224 72 CURVE SMOOTH",
"248 72 OFFCURVE",
"274 69 OFFCURVE",
"302 64 CURVE",
"301 49 LINE",
"307 39 OFFCURVE",
"315 34 OFFCURVE",
"325 34 CURVE SMOOTH",
"334 34 OFFCURVE",
"341 39 OFFCURVE",
"344 49 CURVE",
"346 55 LINE",
"370 52 LINE",
"370 29 OFFCURVE",
"378 18 OFFCURVE",
"393 18 CURVE SMOOTH",
"405 18 OFFCURVE",
"413 22 OFFCURVE",
"416 31 CURVE",
"415 38 LINE",
"415 43 LINE",
"504 27 OFFCURVE",
"566 19 OFFCURVE",
"602 19 CURVE SMOOTH",
"667 19 OFFCURVE",
"704 40 OFFCURVE",
"714 80 CURVE",
"757 80 OFFCURVE",
"790 82 OFFCURVE",
"811 84 CURVE",
"809 62 LINE",
"813 55 OFFCURVE",
"819 50 OFFCURVE",
"830 50 CURVE SMOOTH",
"841 50 OFFCURVE",
"849 54 OFFCURVE",
"852 62 CURVE",
"854 85 LINE",
"881 86 LINE",
"884 62 LINE",
"887 54 OFFCURVE",
"896 50 OFFCURVE",
"908 50 CURVE SMOOTH",
"918 50 OFFCURVE",
"925 55 OFFCURVE",
"930 62 CURVE",
"926 70 OFFCURVE",
"924 80 OFFCURVE",
"924 92 CURVE",
"984 95 LINE SMOOTH",
"1018 97 OFFCURVE",
"1051 91 OFFCURVE",
"1065 83 CURVE SMOOTH",
"1079 75 OFFCURVE",
"1086 66 OFFCURVE",
"1086 59 CURVE SMOOTH",
"1086 47 OFFCURVE",
"1074 41 OFFCURVE",
"1062 37 CURVE SMOOTH",
"1044 31 LINE SMOOTH",
"1039 29 OFFCURVE",
"1037 26 OFFCURVE",
"1037 24 CURVE SMOOTH",
"1037 16 OFFCURVE",
"1051 12 OFFCURVE",
"1080 12 CURVE SMOOTH",
"1109 12 OFFCURVE",
"1139 28 OFFCURVE",
"1139 55 CURVE SMOOTH",
"1139 95 OFFCURVE",
"1089 115 OFFCURVE",
"988 115 CURVE SMOOTH",
"966 115 OFFCURVE",
"945 114 OFFCURVE",
"924 113 CURVE",
"924 125 OFFCURVE",
"926 136 OFFCURVE",
"930 145 CURVE",
"921 146 LINE",
"901 146 OFFCURVE",
"889 141 OFFCURVE",
"884 132 CURVE",
"881 107 LINE",
"854 106 LINE",
"854 121 LINE SMOOTH",
"854 138 OFFCURVE",
"842 146 OFFCURVE",
"819 146 CURVE",
"809 145 LINE",
"810 138 OFFCURVE",
"811 130 OFFCURVE",
"811 123 CURVE SMOOTH",
"811 103 LINE",
"714 101 LINE",
"702 171 OFFCURVE",
"634 222 OFFCURVE",
"570 222 CURVE SMOOTH",
"522 222 OFFCURVE",
"487 202 OFFCURVE",
"487 167 CURVE SMOOTH",
"487 124 OFFCURVE",
"595 80 OFFCURVE",
"683 80 CURVE",
"676 51 OFFCURVE",
"647 37 OFFCURVE",
"599 37 CURVE SMOOTH",
"568 37 OFFCURVE",
"506 47 OFFCURVE",
"413 66 CURVE",
"416 114 LINE",
"407 115 LINE",
"383 115 OFFCURVE",
"370 111 OFFCURVE",
"370 74 CURVE",
"346 79 LINE",
"346 101 LINE",
"344 118 LINE",
"340 126 OFFCURVE",
"329 131 OFFCURVE",
"311 133 CURVE",
"301 131 LINE",
"302 124 OFFCURVE",
"302 117 OFFCURVE",
"302 110 CURVE SMOOTH",
"302 89 LINE",
"247 98 OFFCURVE",
"215 102 OFFCURVE",
"208 102 CURVE SMOOTH",
"177 102 OFFCURVE",
"151 98 OFFCURVE",
"132 89 CURVE SMOOTH",
"113 80 OFFCURVE",
"103 70 OFFCURVE",
"103 59 CURVE SMOOTH",
"103 48 OFFCURVE",
"122 44 OFFCURVE",
"128 44 CURVE",
"149 47 LINE",
"163 50 LINE"
);
},
{
closed = 1;
nodes = (
"527 187 OFFCURVE",
"542 196 OFFCURVE",
"571 196 CURVE SMOOTH",
"620 196 OFFCURVE",
"673 145 OFFCURVE",
"684 101 CURVE",
"639 103 OFFCURVE",
"601 110 OFFCURVE",
"571 123 CURVE SMOOTH",
"542 135 OFFCURVE",
"527 151 OFFCURVE",
"527 170 CURVE SMOOTH"
);
}
);
width = 1243;
}
);
note = u1D075;
unicode = 1D075;
category = Letter;
},
{
glyphname = u1D076;
lastChange = "2018-08-24 12:55:27 +0000";
layers = (
{
layerId = "2208DBFF-11B0-48D9-BA6B-B988DFB8211A";
paths = (
{
closed = 1;
nodes = (
"272 145 OFFCURVE",
"230 143 OFFCURVE",
"180 138 CURVE SMOOTH",
"148 135 OFFCURVE",
"128 133 OFFCURVE",
"118 130 CURVE SMOOTH",
"108 127 OFFCURVE",
"103 125 OFFCURVE",
"103 124 CURVE SMOOTH",
"103 120 OFFCURVE",
"112 117 OFFCURVE",
"124 118 CURVE SMOOTH",
"304 127 LINE",
"304 76 OFFCURVE",
"321 50 OFFCURVE",
"354 50 CURVE SMOOTH",
"387 50 OFFCURVE",
"404 76 OFFCURVE",
"404 127 CURVE",
"442 125 OFFCURVE",
"474 120 OFFCURVE",
"498 111 CURVE SMOOTH",
"521 102 OFFCURVE",
"533 90 OFFCURVE",
"533 77 CURVE SMOOTH",
"533 68 OFFCURVE",
"527 59 OFFCURVE",
"516 52 CURVE",
"527 45 OFFCURVE",
"540 42 OFFCURVE",
"552 42 CURVE SMOOTH",
"563 42 OFFCURVE",
"581 52 OFFCURVE",
"581 72 CURVE SMOOTH",
"581 92 OFFCURVE",
"565 109 OFFCURVE",
"533 123 CURVE SMOOTH",
"501 137 OFFCURVE",
"458 144 OFFCURVE",
"403 145 CURVE",
"396 193 OFFCURVE",
"379 218 OFFCURVE",
"354 218 CURVE SMOOTH",
"330 218 OFFCURVE",
"311 190 OFFCURVE",
"304 145 CURVE"
);
},
{
closed = 1;
nodes = (
"380 95 OFFCURVE",
"371 79 OFFCURVE",
"354 79 CURVE SMOOTH",
"338 79 OFFCURVE",
"330 95 OFFCURVE",
"330 128 CURVE",
"380 128 LINE"
);
},
{
closed = 1;
nodes = (
"332 179 OFFCURVE",
"339 196 OFFCURVE",
"354 196 CURVE SMOOTH",
"365 196 OFFCURVE",
"374 179 OFFCURVE",
"380 146 CURVE",
"330 146 LINE"
);
}
);
width = 684;
}
);
note = u1D076;
unicode = 1D076;
category = Letter;
},
{
glyphname = u1D077;
lastChange = "2018-08-24 12:55:27 +0000";
layers = (
{
layerId = "2208DBFF-11B0-48D9-BA6B-B988DFB8211A";
paths = (
{
closed = 1;
nodes = (
"516 193 OFFCURVE",
"521 184 OFFCURVE",
"521 173 CURVE SMOOTH",
"521 142 OFFCURVE",
"477 136 OFFCURVE",
"422 136 CURVE",
"418 185 OFFCURVE",
"397 218 OFFCURVE",
"372 218 CURVE SMOOTH",
"344 218 OFFCURVE",
"324 188 OFFCURVE",
"322 137 CURVE",
"227 138 LINE SMOOTH",
"197 138 OFFCURVE",
"167 137 OFFCURVE",
"139 133 CURVE SMOOTH",
"103 128 LINE",
"103 122 LINE",
"133 121 LINE",
"185 121 LINE",
"322 114 LINE",
"323 71 OFFCURVE",
"340 50 OFFCURVE",
"372 50 CURVE SMOOTH",
"399 50 OFFCURVE",
"416 71 OFFCURVE",
"422 113 CURVE",
"477 113 OFFCURVE",
"517 118 OFFCURVE",
"542 127 CURVE SMOOTH",
"566 136 OFFCURVE",
"578 151 OFFCURVE",
"578 174 CURVE SMOOTH",
"578 198 OFFCURVE",
"566 210 OFFCURVE",
"541 210 CURVE SMOOTH",
"528 210 OFFCURVE",
"517 207 OFFCURVE",
"506 199 CURVE"
);
},
{
closed = 1;
nodes = (
"346 158 OFFCURVE",
"349 173 OFFCURVE",
"355 183 CURVE SMOOTH",
"360 191 OFFCURVE",
"367 196 OFFCURVE",
"372 196 CURVE SMOOTH",
"377 196 OFFCURVE",
"383 191 OFFCURVE",
"388 182 CURVE SMOOTH",
"393 173 OFFCURVE",
"396 157 OFFCURVE",
"396 136 CURVE",
"346 137 LINE"
);
},
{
closed = 1;
nodes = (
"392 90 OFFCURVE",
"384 79 OFFCURVE",
"372 79 CURVE SMOOTH",
"360 79 OFFCURVE",
"352 91 OFFCURVE",
"346 114 CURVE",
"351 113 OFFCURVE",
"356 113 OFFCURVE",
"361 113 CURVE SMOOTH",
"395 113 LINE"
);
}
);
width = 683;
}
);
note = u1D077;
unicode = 1D077;
category = Letter;
},
{
glyphname = u1D078;
lastChange = "2018-08-24 12:55:27 +0000";
layers = (
{
layerId = "2208DBFF-11B0-48D9-BA6B-B988DFB8211A";
paths = (
{
closed = 1;
nodes = (
"222 124 LINE",
"222 75 OFFCURVE",
"238 50 OFFCURVE",
"271 50 CURVE SMOOTH",
"305 50 OFFCURVE",
"322 75 OFFCURVE",
"322 124 CURVE",
"388 124 LINE",
"377 122 OFFCURVE",
"362 110 OFFCURVE",
"362 94 CURVE SMOOTH",
"362 69 OFFCURVE",
"397 50 OFFCURVE",
"449 50 CURVE SMOOTH",
"512 50 OFFCURVE",
"665 68 OFFCURVE",
"665 90 CURVE SMOOTH",
"665 98 OFFCURVE",
"660 98 OFFCURVE",
"658 98 CURVE SMOOTH",
"656 98 OFFCURVE",
"648 96 OFFCURVE",
"641 95 CURVE SMOOTH",
"562 80 OFFCURVE",
"509 72 OFFCURVE",
"496 72 CURVE SMOOTH",
"454 72 OFFCURVE",
"430 77 OFFCURVE",
"430 102 CURVE SMOOTH",
"430 116 OFFCURVE",
"443 128 OFFCURVE",
"468 137 CURVE",
"468 144 LINE",
"322 144 LINE",
"318 188 OFFCURVE",
"296 218 OFFCURVE",
"271 218 CURVE SMOOTH",
"244 218 OFFCURVE",
"226 188 OFFCURVE",
"222 144 CURVE",
"110 144 LINE",
"103 124 LINE"
);
},
{
closed = 1;
nodes = (
"250 179 OFFCURVE",
"258 196 OFFCURVE",
"271 196 CURVE SMOOTH",
"275 196 OFFCURVE",
"281 192 OFFCURVE",
"286 184 CURVE SMOOTH",
"292 175 OFFCURVE",
"294 162 OFFCURVE",
"296 144 CURVE",
"247 144 LINE"
);
},
{
closed = 1;
nodes = (
"294 94 OFFCURVE",
"286 79 OFFCURVE",
"271 79 CURVE SMOOTH",
"255 79 OFFCURVE",
"247 94 OFFCURVE",
"247 124 CURVE",
"296 124 LINE"
);
}
);
width = 770;
}
);
note = u1D078;
unicode = 1D078;
category = Letter;
},
{
glyphname = u1D079;
lastChange = "2018-08-24 12:55:27 +0000";
layers = (
{
layerId = "2208DBFF-11B0-48D9-BA6B-B988DFB8211A";
paths = (
{
closed = 1;
nodes = (
"589 136 OFFCURVE",
"571 166 OFFCURVE",
"547 166 CURVE SMOOTH",
"520 166 OFFCURVE",
"500 136 OFFCURVE",
"498 89 CURVE",
"466 89 LINE SMOOTH",
"431 89 OFFCURVE",
"413 95 OFFCURVE",
"413 107 CURVE SMOOTH",
"413 120 OFFCURVE",
"422 130 OFFCURVE",
"439 137 CURVE",
"439 144 LINE",
"288 144 LINE",
"283 187 OFFCURVE",
"262 217 OFFCURVE",
"240 217 CURVE SMOOTH",
"216 217 OFFCURVE",
"196 187 OFFCURVE",
"190 144 CURVE",
"110 144 LINE",
"103 124 LINE",
"190 124 LINE",
"190 71 OFFCURVE",
"216 55 OFFCURVE",
"240 55 CURVE SMOOTH",
"260 55 OFFCURVE",
"287 71 OFFCURVE",
"288 124 CURVE",
"360 124 LINE",
"344 121 OFFCURVE",
"336 113 OFFCURVE",
"336 101 CURVE SMOOTH",
"336 81 OFFCURVE",
"367 71 OFFCURVE",
"430 71 CURVE SMOOTH",
"498 71 LINE",
"500 25 OFFCURVE",
"516 2 OFFCURVE",
"547 2 CURVE SMOOTH",
"576 2 OFFCURVE",
"592 25 OFFCURVE",
"595 71 CURVE",
"737 71 LINE",
"727 89 LINE",
"595 89 LINE"
);
},
{
closed = 1;
nodes = (
"521 112 OFFCURVE",
"531 142 OFFCURVE",
"547 142 CURVE SMOOTH",
"562 142 OFFCURVE",
"569 115 OFFCURVE",
"570 89 CURVE",
"521 89 LINE"
);
},
{
closed = 1;
nodes = (
"217 177 OFFCURVE",
"225 193 OFFCURVE",
"240 193 CURVE SMOOTH",
"252 193 OFFCURVE",
"259 177 OFFCURVE",
"262 144 CURVE",
"216 144 LINE"
);
},
{
closed = 1;
nodes = (
"260 98 OFFCURVE",
"252 85 OFFCURVE",
"240 85 CURVE SMOOTH",
"225 85 OFFCURVE",
"217 98 OFFCURVE",
"216 124 CURVE",
"262 124 LINE"
);
},
{
closed = 1;
nodes = (
"568 46 OFFCURVE",
"561 34 OFFCURVE",
"547 34 CURVE SMOOTH",
"534 34 OFFCURVE",
"525 46 OFFCURVE",
"521 71 CURVE",
"570 71 LINE"
);
}
);
width = 841;
}
);
note = u1D079;
unicode = 1D079;
category = Letter;
},
{
glyphname = u1D07A;
lastChange = "2018-08-24 12:55:27 +0000";
layers = (
{
layerId = "2208DBFF-11B0-48D9-BA6B-B988DFB8211A";
paths = (
{
closed = 1;
nodes = (
"110 92 LINE",
"167 95 OFFCURVE",
"210 117 OFFCURVE",
"210 156 CURVE SMOOTH",
"210 177 OFFCURVE",
"196 188 OFFCURVE",
"167 188 CURVE SMOOTH",
"143 188 OFFCURVE",
"131 181 OFFCURVE",
"131 166 CURVE SMOOTH",
"131 156 OFFCURVE",
"141 150 OFFCURVE",
"152 149 CURVE SMOOTH",
"167 147 LINE SMOOTH",
"171 146 OFFCURVE",
"173 145 OFFCURVE",
"173 142 CURVE SMOOTH",
"173 124 OFFCURVE",
"149 111 OFFCURVE",
"103 103 CURVE"
);
},
{
closed = 1;
nodes = (
"110 197 LINE",
"177 200 OFFCURVE",
"210 221 OFFCURVE",
"210 260 CURVE SMOOTH",
"210 283 OFFCURVE",
"196 294 OFFCURVE",
"167 294 CURVE SMOOTH",
"143 294 OFFCURVE",
"131 286 OFFCURVE",
"131 271 CURVE SMOOTH",
"131 263 OFFCURVE",
"138 258 OFFCURVE",
"152 255 CURVE SMOOTH",
"166 252 OFFCURVE",
"173 250 OFFCURVE",
"173 247 CURVE SMOOTH",
"173 230 OFFCURVE",
"149 217 OFFCURVE",
"103 209 CURVE"
);
},
{
closed = 1;
nodes = (
"110 302 LINE",
"177 310 OFFCURVE",
"210 332 OFFCURVE",
"210 366 CURVE SMOOTH",
"210 389 OFFCURVE",
"196 401 OFFCURVE",
"167 401 CURVE SMOOTH",
"143 401 OFFCURVE",
"131 393 OFFCURVE",
"131 377 CURVE SMOOTH",
"131 368 OFFCURVE",
"138 361 OFFCURVE",
"152 359 CURVE SMOOTH",
"166 357 OFFCURVE",
"173 356 OFFCURVE",
"173 352 CURVE SMOOTH",
"173 336 OFFCURVE",
"149 323 OFFCURVE",
"103 314 CURVE"
);
}
);
width = 314;
}
);
note = u1D07A;
unicode = 1D07A;
category = Letter;
},
{
glyphname = u1D07B;
lastChange = "2018-08-24 12:55:27 +0000";
layers = (
{
layerId = "2208DBFF-11B0-48D9-BA6B-B988DFB8211A";
paths = (
{
closed = 1;
nodes = (
"354 100 OFFCURVE",
"371 84 OFFCURVE",
"406 84 CURVE SMOOTH",
"442 84 OFFCURVE",
"467 102 OFFCURVE",
"475 121 CURVE",
"511 112 OFFCURVE",
"543 102 OFFCURVE",
"571 91 CURVE SMOOTH",
"600 80 OFFCURVE",
"625 74 OFFCURVE",
"646 74 CURVE SMOOTH",
"676 74 OFFCURVE",
"691 84 OFFCURVE",
"691 103 CURVE SMOOTH",
"691 115 LINE SMOOTH",
"691 124 OFFCURVE",
"685 128 OFFCURVE",
"674 128 CURVE SMOOTH",
"649 128 LINE SMOOTH",
"635 128 OFFCURVE",
"634 122 OFFCURVE",
"634 110 CURVE SMOOTH",
"634 100 OFFCURVE",
"629 95 OFFCURVE",
"619 95 CURVE",
"605 100 LINE SMOOTH",
"561 116 OFFCURVE",
"518 128 OFFCURVE",
"481 137 CURVE",
"483 144 OFFCURVE",
"484 148 OFFCURVE",
"484 154 CURVE SMOOTH",
"483 189 OFFCURVE",
"464 206 OFFCURVE",
"425 206 CURVE SMOOTH",
"394 206 OFFCURVE",
"361 182 OFFCURVE",
"353 149 CURVE",
"309 146 OFFCURVE",
"262 136 OFFCURVE",
"210 123 CURVE SMOOTH",
"179 115 LINE",
"177 130 LINE",
"180 146 LINE",
"148 146 OFFCURVE",
"128 138 OFFCURVE",
"121 121 CURVE",
"122 97 LINE SMOOTH",
"123 82 OFFCURVE",
"116 68 OFFCURVE",
"103 59 CURVE",
"209 95 OFFCURVE",
"290 122 OFFCURVE",
"352 131 CURVE"
);
},
{
closed = 1;
nodes = (
"383 152 LINE",
"380 152 LINE",
"387 177 OFFCURVE",
"402 190 OFFCURVE",
"425 190 CURVE SMOOTH",
"446 190 OFFCURVE",
"456 179 OFFCURVE",
"456 156 CURVE SMOOTH",
"456 152 OFFCURVE",
"456 148 OFFCURVE",
"455 144 CURVE"
);
},
{
closed = 1;
nodes = (
"383 132 LINE SMOOTH",
"408 132 OFFCURVE",
"430 130 OFFCURVE",
"449 127 CURVE",
"442 109 OFFCURVE",
"425 96 OFFCURVE",
"406 96 CURVE SMOOTH",
"387 96 OFFCURVE",
"377 108 OFFCURVE",
"377 132 CURVE"
);
}
);
width = 794;
}
);
note = u1D07B;
unicode = 1D07B;
category = Letter;
},
{
glyphname = u1D07C;
lastChange = "2018-08-24 12:55:27 +0000";
layers = (
{
layerId = "2208DBFF-11B0-48D9-BA6B-B988DFB8211A";
paths = (
{
closed = 1;
nodes = (
"103 222 LINE",
"178 159 OFFCURVE",
"250 128 OFFCURVE",
"322 128 CURVE SMOOTH",
"389 128 OFFCURVE",
"475 168 OFFCURVE",
"535 224 CURVE",
"535 251 LINE",
"461 188 OFFCURVE",
"390 157 OFFCURVE",
"322 157 CURVE SMOOTH",
"256 157 OFFCURVE",
"183 188 OFFCURVE",
"103 250 CURVE"
);
}
);
width = 640;
}
);
note = u1D07C;
unicode = 1D07C;
category = Letter;
},
{
glyphname = u1D07D;
lastChange = "2018-08-24 12:55:27 +0000";
layers = (
{
layerId = "2208DBFF-11B0-48D9-BA6B-B988DFB8211A";
paths = (
{
closed = 1;
nodes = (
"192 568 OFFCURVE",
"235 582 OFFCURVE",
"296 582 CURVE SMOOTH",
"337 582 OFFCURVE",
"375 572 OFFCURVE",
"409 553 CURVE SMOOTH",
"426 544 OFFCURVE",
"452 523 OFFCURVE",
"490 490 CURVE",
"490 517 LINE",
"436 580 OFFCURVE",
"371 612 OFFCURVE",
"296 612 CURVE SMOOTH",
"221 612 OFFCURVE",
"156 580 OFFCURVE",
"103 517 CURVE",
"103 490 LINE"
);
}
);
width = 593;
}
);
note = u1D07D;
unicode = 1D07D;
category = Letter;
},
{
glyphname = u1D07E;
lastChange = "2018-08-24 12:55:27 +0000";
layers = (
{
layerId = "2208DBFF-11B0-48D9-BA6B-B988DFB8211A";
paths = (
{
closed = 1;
nodes = (
"236 510 LINE SMOOTH",
"236 498 OFFCURVE",
"244 491 OFFCURVE",
"259 491 CURVE SMOOTH",
"302 491 LINE",
"302 530 LINE",
"452 530 LINE",
"444 547 LINE",
"302 541 LINE",
"302 552 LINE SMOOTH",
"302 571 OFFCURVE",
"292 581 OFFCURVE",
"274 581 CURVE SMOOTH",
"236 581 LINE",
"236 542 LINE",
"103 542 LINE",
"114 526 LINE",
"236 533 LINE"
);
}
);
width = 556;
}
);
note = u1D07E;
unicode = 1D07E;
category = Letter;
},
{
glyphname = u1D07F;
lastChange = "2018-08-24 12:55:27 +0000";
layers = (
{
layerId = "2208DBFF-11B0-48D9-BA6B-B988DFB8211A";
paths = (
{
closed = 1;
nodes = (
"103 498 LINE",
"185 456 OFFCURVE",
"241 434 OFFCURVE",
"271 434 CURVE SMOOTH",
"306 434 OFFCURVE",
"323 445 OFFCURVE",
"323 466 CURVE",
"319 481 LINE",
"268 502 LINE",
"270 491 LINE",
"270 475 OFFCURVE",
"258 467 OFFCURVE",
"235 467 CURVE SMOOTH",
"212 467 OFFCURVE",
"169 479 OFFCURVE",
"106 502 CURVE"
);
}
);
width = 426;
}
);
note = u1D07F;
unicode = 1D07F;
category = Letter;
},
{
glyphname = u1D080;
lastChange = "2018-08-24 12:55:27 +0000";
layers = (
{
layerId = "2208DBFF-11B0-48D9-BA6B-B988DFB8211A";
paths = (
{
closed = 1;
nodes = (
"236 128 OFFCURVE",
"262 163 OFFCURVE",
"262 173 CURVE SMOOTH",
"262 175 OFFCURVE",
"239 188 OFFCURVE",
"226 188 CURVE SMOOTH",
"212 188 OFFCURVE",
"185 155 OFFCURVE",
"185 146 CURVE SMOOTH",
"185 138 OFFCURVE",
"207 128 OFFCURVE",
"222 128 CURVE SMOOTH"
);
},
{
closed = 1;
nodes = (
"155 163 OFFCURVE",
"182 197 OFFCURVE",
"182 206 CURVE SMOOTH",
"182 208 OFFCURVE",
"157 222 OFFCURVE",
"145 222 CURVE SMOOTH",
"131 222 OFFCURVE",
"103 187 OFFCURVE",
"103 180 CURVE SMOOTH",
"103 173 OFFCURVE",
"127 163 OFFCURVE",
"142 163 CURVE SMOOTH"
);
}
);
width = 366;
}
);
note = u1D080;
unicode = 1D080;
category = Letter;
},
{
glyphname = u1D081;
lastChange = "2018-08-24 12:55:27 +0000";
layers = (
{
layerId = "2208DBFF-11B0-48D9-BA6B-B988DFB8211A";
paths = (
{
closed = 1;
nodes = (
"118 112 OFFCURVE",
"105 93 OFFCURVE",
"105 90 CURVE SMOOTH",
"105 81 OFFCURVE",
"124 69 OFFCURVE",
"128 69 CURVE SMOOTH",
"131 69 OFFCURVE",
"137 74 OFFCURVE",
"145 85 CURVE SMOOTH",
"170 121 LINE",
"176 116 OFFCURVE",
"186 112 OFFCURVE",
"199 110 CURVE",
"182 89 OFFCURVE",
"172 76 OFFCURVE",
"170 72 CURVE SMOOTH",
"168 68 OFFCURVE",
"167 64 OFFCURVE",
"167 62 CURVE SMOOTH",
"167 59 OFFCURVE",
"169 56 OFFCURVE",
"173 52 CURVE SMOOTH",
"178 46 OFFCURVE",
"187 40 OFFCURVE",
"190 40 CURVE SMOOTH",
"193 40 OFFCURVE",
"201 46 OFFCURVE",
"209 58 CURVE SMOOTH",
"242 107 LINE",
"310 118 OFFCURVE",
"417 185 OFFCURVE",
"468 247 CURVE",
"466 251 LINE",
"371 176 OFFCURVE",
"295 138 OFFCURVE",
"240 138 CURVE SMOOTH",
"205 138 OFFCURVE",
"185 165 OFFCURVE",
"185 193 CURVE SMOOTH",
"185 209 LINE",
"132 209 LINE",
"132 199 LINE SMOOTH",
"132 177 OFFCURVE",
"136 159 OFFCURVE",
"144 146 CURVE"
);
}
);
width = 571;
}
);
note = u1D081;
unicode = 1D081;
category = Letter;
},
{
glyphname = u1D082;
lastChange = "2018-08-24 12:55:27 +0000";
layers = (
{
layerId = "2208DBFF-11B0-48D9-BA6B-B988DFB8211A";
paths = (
{
closed = 1;
nodes = (
"257 330 OFFCURVE",
"245 321 OFFCURVE",
"239 304 CURVE",
"224 330 OFFCURVE",
"193 343 OFFCURVE",
"149 343 CURVE SMOOTH",
"118 343 OFFCURVE",
"103 332 OFFCURVE",
"103 311 CURVE SMOOTH",
"103 295 OFFCURVE",
"112 287 OFFCURVE",
"131 287 CURVE SMOOTH",
"140 287 OFFCURVE",
"148 289 OFFCURVE",
"154 293 CURVE SMOOTH",
"159 298 OFFCURVE",
"167 300 OFFCURVE",
"175 300 CURVE SMOOTH",
"196 300 OFFCURVE",
"210 289 OFFCURVE",
"210 271 CURVE SMOOTH",
"210 252 OFFCURVE",
"198 239 OFFCURVE",
"174 230 CURVE",
"198 227 LINE",
"222 227 OFFCURVE",
"238 237 OFFCURVE",
"245 257 CURVE",
"266 230 OFFCURVE",
"329 217 OFFCURVE",
"433 217 CURVE SMOOTH",
"517 217 OFFCURVE",
"582 231 OFFCURVE",
"605 242 CURVE",
"605 247 LINE",
"551 240 OFFCURVE",
"493 236 OFFCURVE",
"432 236 CURVE SMOOTH",
"389 236 OFFCURVE",
"354 241 OFFCURVE",
"323 250 CURVE SMOOTH",
"293 259 OFFCURVE",
"278 269 OFFCURVE",
"278 280 CURVE SMOOTH",
"278 293 OFFCURVE",
"290 293 OFFCURVE",
"298 293 CURVE SMOOTH",
"311 293 LINE",
"304 312 OFFCURVE",
"292 324 OFFCURVE",
"276 330 CURVE"
);
}
);
width = 708;
}
);
note = u1D082;
unicode = 1D082;
category = Letter;
},
{
glyphname = u1D083;
lastChange = "2018-08-24 12:55:27 +0000";
layers = (
{
layerId = "2208DBFF-11B0-48D9-BA6B-B988DFB8211A";
paths = (
{
closed = 1;
nodes = (
"154 200 OFFCURVE",
"173 242 OFFCURVE",
"173 259 CURVE SMOOTH",
"173 266 OFFCURVE",
"159 269 OFFCURVE",
"132 269 CURVE SMOOTH",
"123 269 OFFCURVE",
"103 229 OFFCURVE",
"103 216 CURVE SMOOTH",
"103 206 OFFCURVE",
"127 200 OFFCURVE",
"142 200 CURVE SMOOTH"
);
},
{
closed = 1;
nodes = (
"209 269 LINE",
"195 267 OFFCURVE",
"188 259 OFFCURVE",
"188 245 CURVE SMOOTH",
"188 213 OFFCURVE",
"229 197 OFFCURVE",
"311 197 CURVE SMOOTH",
"339 197 OFFCURVE",
"370 201 OFFCURVE",
"404 208 CURVE",
"404 215 LINE",
"380 213 OFFCURVE",
"367 212 OFFCURVE",
"349 212 CURVE SMOOTH",
"281 212 OFFCURVE",
"247 225 OFFCURVE",
"247 250 CURVE SMOOTH",
"247 256 OFFCURVE",
"250 262 OFFCURVE",
"257 269 CURVE"
);
}
);
width = 509;
}
);
note = u1D083;
unicode = 1D083;
category = Letter;
},
{
glyphname = u1D084;
lastChange = "2018-08-24 12:55:27 +0000";
layers = (
{
layerId = "2208DBFF-11B0-48D9-BA6B-B988DFB8211A";
paths = (
{
closed = 1;
nodes = (
"144 257 LINE",
"300 257 LINE",
"304 216 LINE",
"373 204 LINE",
"365 257 LINE",
"476 257 LINE",
"434 271 LINE",
"103 271 LINE"
);
}
);
width = 581;
}
);
note = u1D084;
unicode = 1D084;
category = Letter;
},
{
glyphname = u1D085;
lastChange = "2018-08-24 12:55:27 +0000";
layers = (
{
layerId = "2208DBFF-11B0-48D9-BA6B-B988DFB8211A";
paths = (
{
closed = 1;
nodes = (
"155 209 OFFCURVE",
"170 243 OFFCURVE",
"170 257 CURVE SMOOTH",
"170 263 OFFCURVE",
"146 268 OFFCURVE",
"131 268 CURVE SMOOTH",
"121 268 OFFCURVE",
"103 238 OFFCURVE",
"103 224 CURVE SMOOTH",
"103 214 OFFCURVE",
"127 209 OFFCURVE",
"142 209 CURVE SMOOTH"
);
}
);
width = 274;
}
);
note = u1D085;
unicode = 1D085;
category = Letter;
},
{
glyphname = u1D086;
lastChange = "2018-08-24 12:55:27 +0000";
layers = (
{
layerId = "2208DBFF-11B0-48D9-BA6B-B988DFB8211A";
paths = (
{
closed = 1;
nodes = (
"155 209 OFFCURVE",
"170 243 OFFCURVE",
"170 257 CURVE SMOOTH",
"170 263 OFFCURVE",
"146 268 OFFCURVE",
"131 268 CURVE SMOOTH",
"121 268 OFFCURVE",
"103 238 OFFCURVE",
"103 224 CURVE SMOOTH",
"103 214 OFFCURVE",
"127 209 OFFCURVE",
"142 209 CURVE SMOOTH"
);
},
{
closed = 1;
nodes = (
"250 209 OFFCURVE",
"266 240 OFFCURVE",
"266 257 CURVE SMOOTH",
"266 263 OFFCURVE",
"242 268 OFFCURVE",
"226 268 CURVE SMOOTH",
"217 268 OFFCURVE",
"199 238 OFFCURVE",
"199 224 CURVE SMOOTH",
"199 214 OFFCURVE",
"222 209 OFFCURVE",
"236 209 CURVE SMOOTH"
);
}
);
width = 370;
}
);
note = u1D086;
unicode = 1D086;
category = Letter;
},
{
glyphname = u1D087;
lastChange = "2018-08-24 12:55:27 +0000";
layers = (
{
layerId = "2208DBFF-11B0-48D9-BA6B-B988DFB8211A";
paths = (
{
closed = 1;
nodes = (
"155 209 OFFCURVE",
"170 243 OFFCURVE",
"170 257 CURVE SMOOTH",
"170 263 OFFCURVE",
"146 268 OFFCURVE",
"131 268 CURVE SMOOTH",
"121 268 OFFCURVE",
"103 238 OFFCURVE",
"103 224 CURVE SMOOTH",
"103 214 OFFCURVE",
"127 209 OFFCURVE",
"142 209 CURVE SMOOTH"
);
},
{
closed = 1;
nodes = (
"250 209 OFFCURVE",
"266 240 OFFCURVE",
"266 257 CURVE SMOOTH",
"266 263 OFFCURVE",
"242 268 OFFCURVE",
"226 268 CURVE SMOOTH",
"217 268 OFFCURVE",
"199 238 OFFCURVE",
"199 224 CURVE SMOOTH",
"199 214 OFFCURVE",
"222 209 OFFCURVE",
"236 209 CURVE SMOOTH"
);
},
{
closed = 1;
nodes = (
"344 209 OFFCURVE",
"361 240 OFFCURVE",
"361 257 CURVE SMOOTH",
"361 263 OFFCURVE",
"338 268 OFFCURVE",
"322 268 CURVE SMOOTH",
"313 268 OFFCURVE",
"294 240 OFFCURVE",
"294 224 CURVE SMOOTH",
"294 214 OFFCURVE",
"317 209 OFFCURVE",
"331 209 CURVE SMOOTH"
);
}
);
width = 466;
}
);
note = u1D087;
unicode = 1D087;
category = Letter;
},
{
glyphname = u1D088;
lastChange = "2018-08-24 12:55:27 +0000";
layers = (
{
layerId = "2208DBFF-11B0-48D9-BA6B-B988DFB8211A";
paths = (
{
closed = 1;
nodes = (
"155 209 OFFCURVE",
"170 243 OFFCURVE",
"170 257 CURVE SMOOTH",
"170 263 OFFCURVE",
"146 268 OFFCURVE",
"131 268 CURVE SMOOTH",
"121 268 OFFCURVE",
"103 238 OFFCURVE",
"103 224 CURVE SMOOTH",
"103 214 OFFCURVE",
"127 209 OFFCURVE",
"142 209 CURVE SMOOTH"
);
},
{
closed = 1;
nodes = (
"250 209 OFFCURVE",
"266 240 OFFCURVE",
"266 257 CURVE SMOOTH",
"266 263 OFFCURVE",
"242 268 OFFCURVE",
"226 268 CURVE SMOOTH",
"217 268 OFFCURVE",
"199 238 OFFCURVE",
"199 224 CURVE SMOOTH",
"199 214 OFFCURVE",
"222 209 OFFCURVE",
"236 209 CURVE SMOOTH"
);
},
{
closed = 1;
nodes = (
"344 209 OFFCURVE",
"361 240 OFFCURVE",
"361 257 CURVE SMOOTH",
"361 263 OFFCURVE",
"338 268 OFFCURVE",
"322 268 CURVE SMOOTH",
"313 268 OFFCURVE",
"294 240 OFFCURVE",
"294 224 CURVE SMOOTH",
"294 214 OFFCURVE",
"317 209 OFFCURVE",
"331 209 CURVE SMOOTH"
);
},
{
closed = 1;
nodes = (
"439 209 OFFCURVE",
"456 237 OFFCURVE",
"456 257 CURVE SMOOTH",
"456 263 OFFCURVE",
"434 268 OFFCURVE",
"416 268 CURVE SMOOTH",
"406 268 OFFCURVE",
"390 237 OFFCURVE",
"390 224 CURVE SMOOTH",
"390 214 OFFCURVE",
"413 209 OFFCURVE",
"426 209 CURVE SMOOTH"
);
}
);
width = 560;
}
);
note = u1D088;
unicode = 1D088;
category = Letter;
},
{
glyphname = u1D089;
lastChange = "2018-08-24 12:55:27 +0000";
layers = (
{
layerId = "2208DBFF-11B0-48D9-BA6B-B988DFB8211A";
paths = (
{
closed = 1;
nodes = (
"114 612 LINE",
"137 635 OFFCURVE",
"158 656 OFFCURVE",
"199 656 CURVE SMOOTH",
"236 656 OFFCURVE",
"261 646 OFFCURVE",
"288 612 CURVE",
"296 619 LINE",
"271 662 OFFCURVE",
"239 683 OFFCURVE",
"199 683 CURVE SMOOTH",
"163 683 OFFCURVE",
"130 664 OFFCURVE",
"103 624 CURVE"
);
},
{
closed = 1;
nodes = (
"187 629 OFFCURVE",
"180 622 OFFCURVE",
"180 607 CURVE SMOOTH",
"180 594 OFFCURVE",
"187 588 OFFCURVE",
"200 588 CURVE SMOOTH",
"215 588 OFFCURVE",
"222 594 OFFCURVE",
"222 607 CURVE SMOOTH",
"222 622 OFFCURVE",
"215 629 OFFCURVE",
"200 629 CURVE SMOOTH"
);
}
);
width = 401;
}
);
note = u1D089;
unicode = 1D089;
category = Letter;
},
{
glyphname = u1D08A;
lastChange = "2018-08-24 12:55:27 +0000";
layers = (
{
layerId = "2208DBFF-11B0-48D9-BA6B-B988DFB8211A";
paths = (
{
closed = 1;
nodes = (
"138 325 OFFCURVE",
"183 278 OFFCURVE",
"277 238 CURVE SMOOTH",
"323 218 OFFCURVE",
"393 196 OFFCURVE",
"485 173 CURVE",
"485 175 LINE",
"317 224 OFFCURVE",
"216 290 OFFCURVE",
"174 403 CURVE SMOOTH",
"167 422 OFFCURVE",
"152 432 OFFCURVE",
"132 432 CURVE SMOOTH",
"125 432 OFFCURVE",
"115 430 OFFCURVE",
"103 426 CURVE"
);
},
{
closed = 1;
nodes = (
"276 354 OFFCURVE",
"293 385 OFFCURVE",
"293 401 CURVE SMOOTH",
"293 407 OFFCURVE",
"270 413 OFFCURVE",
"252 413 CURVE SMOOTH",
"242 413 OFFCURVE",
"226 380 OFFCURVE",
"226 370 CURVE SMOOTH",
"226 359 OFFCURVE",
"250 354 OFFCURVE",
"262 354 CURVE SMOOTH"
);
}
);
width = 589;
}
);
note = u1D08A;
unicode = 1D08A;
category = Letter;
},
{
glyphname = u1D08B;
lastChange = "2018-08-24 12:55:27 +0000";
layers = (
{
layerId = "2208DBFF-11B0-48D9-BA6B-B988DFB8211A";
paths = (
{
closed = 1;
nodes = (
"138 325 OFFCURVE",
"183 278 OFFCURVE",
"277 238 CURVE SMOOTH",
"323 218 OFFCURVE",
"393 196 OFFCURVE",
"485 173 CURVE",
"485 175 LINE",
"317 224 OFFCURVE",
"216 290 OFFCURVE",
"174 403 CURVE SMOOTH",
"167 422 OFFCURVE",
"152 432 OFFCURVE",
"132 432 CURVE SMOOTH",
"125 432 OFFCURVE",
"115 430 OFFCURVE",
"103 426 CURVE"
);
},
{
closed = 1;
nodes = (
"276 354 OFFCURVE",
"293 385 OFFCURVE",
"293 401 CURVE SMOOTH",
"293 407 OFFCURVE",
"270 413 OFFCURVE",
"252 413 CURVE SMOOTH",
"242 413 OFFCURVE",
"226 380 OFFCURVE",
"226 370 CURVE SMOOTH",
"226 359 OFFCURVE",
"250 354 OFFCURVE",
"262 354 CURVE SMOOTH"
);
},
{
closed = 1;
nodes = (
"371 354 OFFCURVE",
"388 387 OFFCURVE",
"388 401 CURVE SMOOTH",
"388 407 OFFCURVE",
"365 413 OFFCURVE",
"348 413 CURVE SMOOTH",
"337 413 OFFCURVE",
"322 380 OFFCURVE",
"322 370 CURVE SMOOTH",
"322 359 OFFCURVE",
"344 354 OFFCURVE",
"360 354 CURVE SMOOTH"
);
}
);
width = 589;
}
);
note = u1D08B;
unicode = 1D08B;
category = Letter;
},
{
glyphname = u1D08C;
lastChange = "2018-08-24 12:55:27 +0000";
layers = (
{
layerId = "2208DBFF-11B0-48D9-BA6B-B988DFB8211A";
paths = (
{
closed = 1;
nodes = (
"138 325 OFFCURVE",
"183 278 OFFCURVE",
"277 238 CURVE SMOOTH",
"323 218 OFFCURVE",
"393 196 OFFCURVE",
"485 173 CURVE",
"485 175 LINE",
"317 224 OFFCURVE",
"216 290 OFFCURVE",
"174 403 CURVE SMOOTH",
"167 422 OFFCURVE",
"152 432 OFFCURVE",
"132 432 CURVE SMOOTH",
"125 432 OFFCURVE",
"115 430 OFFCURVE",
"103 426 CURVE"
);
},
{
closed = 1;
nodes = (
"276 354 OFFCURVE",
"293 385 OFFCURVE",
"293 401 CURVE SMOOTH",
"293 407 OFFCURVE",
"270 413 OFFCURVE",
"252 413 CURVE SMOOTH",
"242 413 OFFCURVE",
"226 380 OFFCURVE",
"226 370 CURVE SMOOTH",
"226 359 OFFCURVE",
"250 354 OFFCURVE",
"262 354 CURVE SMOOTH"
);
},
{
closed = 1;
nodes = (
"371 354 OFFCURVE",
"388 387 OFFCURVE",
"388 401 CURVE SMOOTH",
"388 407 OFFCURVE",
"365 413 OFFCURVE",
"348 413 CURVE SMOOTH",
"337 413 OFFCURVE",
"322 380 OFFCURVE",
"322 370 CURVE SMOOTH",
"322 359 OFFCURVE",
"344 354 OFFCURVE",
"360 354 CURVE SMOOTH"
);
},
{
closed = 1;
nodes = (
"467 354 OFFCURVE",
"484 385 OFFCURVE",
"484 401 CURVE SMOOTH",
"484 407 OFFCURVE",
"460 413 OFFCURVE",
"444 413 CURVE SMOOTH",
"435 413 OFFCURVE",
"416 384 OFFCURVE",
"416 370 CURVE SMOOTH",
"416 359 OFFCURVE",
"439 354 OFFCURVE",
"455 354 CURVE SMOOTH"
);
}
);
width = 589;
}
);
note = u1D08C;
unicode = 1D08C;
category = Letter;
},
{
glyphname = u1D08D;
lastChange = "2018-08-24 12:55:27 +0000";
layers = (
{
layerId = "2208DBFF-11B0-48D9-BA6B-B988DFB8211A";
paths = (
{
closed = 1;
nodes = (
"138 325 OFFCURVE",
"183 278 OFFCURVE",
"277 238 CURVE SMOOTH",
"323 218 OFFCURVE",
"393 196 OFFCURVE",
"485 173 CURVE",
"485 175 LINE",
"317 224 OFFCURVE",
"216 290 OFFCURVE",
"174 403 CURVE SMOOTH",
"167 422 OFFCURVE",
"152 432 OFFCURVE",
"132 432 CURVE SMOOTH",
"125 432 OFFCURVE",
"115 430 OFFCURVE",
"103 426 CURVE"
);
},
{
closed = 1;
nodes = (
"276 354 OFFCURVE",
"293 385 OFFCURVE",
"293 401 CURVE SMOOTH",
"293 407 OFFCURVE",
"270 413 OFFCURVE",
"252 413 CURVE SMOOTH",
"242 413 OFFCURVE",
"226 380 OFFCURVE",
"226 370 CURVE SMOOTH",
"226 359 OFFCURVE",
"250 354 OFFCURVE",
"262 354 CURVE SMOOTH"
);
},
{
closed = 1;
nodes = (
"371 354 OFFCURVE",
"388 387 OFFCURVE",
"388 401 CURVE SMOOTH",
"388 407 OFFCURVE",
"365 413 OFFCURVE",
"348 413 CURVE SMOOTH",
"337 413 OFFCURVE",
"322 380 OFFCURVE",
"322 370 CURVE SMOOTH",
"322 359 OFFCURVE",
"344 354 OFFCURVE",
"360 354 CURVE SMOOTH"
);
},
{
closed = 1;
nodes = (
"467 354 OFFCURVE",
"484 385 OFFCURVE",
"484 401 CURVE SMOOTH",
"484 407 OFFCURVE",
"460 413 OFFCURVE",
"444 413 CURVE SMOOTH",
"435 413 OFFCURVE",
"416 384 OFFCURVE",
"416 370 CURVE SMOOTH",
"416 359 OFFCURVE",
"439 354 OFFCURVE",
"455 354 CURVE SMOOTH"
);
},
{
closed = 1;
nodes = (
"563 354 OFFCURVE",
"578 384 OFFCURVE",
"578 401 CURVE SMOOTH",
"578 407 OFFCURVE",
"556 413 OFFCURVE",
"539 413 CURVE SMOOTH",
"530 413 OFFCURVE",
"511 384 OFFCURVE",
"511 370 CURVE SMOOTH",
"511 359 OFFCURVE",
"536 354 OFFCURVE",
"550 354 CURVE SMOOTH"
);
}
);
width = 683;
}
);
note = u1D08D;
unicode = 1D08D;
category = Letter;
},
{
glyphname = u1D08E;
lastChange = "2018-08-24 12:55:27 +0000";
layers = (
{
layerId = "2208DBFF-11B0-48D9-BA6B-B988DFB8211A";
paths = (
{
closed = 1;
nodes = (
"317 224 OFFCURVE",
"216 290 OFFCURVE",
"174 403 CURVE SMOOTH",
"167 422 OFFCURVE",
"152 432 OFFCURVE",
"132 432 CURVE SMOOTH",
"125 432 OFFCURVE",
"115 430 OFFCURVE",
"103 426 CURVE",
"138 325 OFFCURVE",
"183 278 OFFCURVE",
"277 238 CURVE SMOOTH",
"323 218 OFFCURVE",
"393 196 OFFCURVE",
"485 173 CURVE",
"485 175 LINE"
);
},
{
closed = 1;
nodes = (
"218 490 LINE",
"230 490 LINE",
"247 449 LINE SMOOTH",
"250 442 OFFCURVE",
"256 439 OFFCURVE",
"266 439 CURVE SMOOTH",
"288 439 LINE SMOOTH",
"294 439 OFFCURVE",
"297 440 OFFCURVE",
"297 444 CURVE",
"280 487 LINE",
"403 485 LINE",
"403 502 LINE",
"218 502 LINE"
);
},
{
closed = 1;
nodes = (
"276 354 OFFCURVE",
"293 385 OFFCURVE",
"293 401 CURVE SMOOTH",
"293 407 OFFCURVE",
"270 413 OFFCURVE",
"252 413 CURVE SMOOTH",
"242 413 OFFCURVE",
"226 380 OFFCURVE",
"226 370 CURVE SMOOTH",
"226 359 OFFCURVE",
"250 354 OFFCURVE",
"262 354 CURVE SMOOTH"
);
}
);
width = 589;
}
);
note = u1D08E;
unicode = 1D08E;
category = Letter;
},
{
glyphname = u1D08F;
lastChange = "2018-08-24 12:55:27 +0000";
layers = (
{
layerId = "2208DBFF-11B0-48D9-BA6B-B988DFB8211A";
paths = (
{
closed = 1;
nodes = (
"103 490 LINE",
"114 490 LINE",
"127 458 OFFCURVE",
"135 442 OFFCURVE",
"137 441 CURVE SMOOTH",
"139 439 OFFCURVE",
"143 439 OFFCURVE",
"149 439 CURVE SMOOTH",
"173 439 LINE SMOOTH",
"176 439 OFFCURVE",
"179 440 OFFCURVE",
"179 442 CURVE",
"179 443 LINE",
"164 487 LINE",
"287 485 LINE",
"287 502 LINE",
"103 502 LINE"
);
}
);
width = 390;
}
);
note = u1D08F;
unicode = 1D08F;
category = Letter;
},
{
glyphname = u1D090;
lastChange = "2018-08-24 12:55:27 +0000";
layers = (
{
layerId = "2208DBFF-11B0-48D9-BA6B-B988DFB8211A";
paths = (
{
closed = 1;
nodes = (
"167 490 LINE",
"179 490 LINE",
"195 450 LINE SMOOTH",
"199 439 OFFCURVE",
"201 439 OFFCURVE",
"212 439 CURVE SMOOTH",
"236 439 LINE SMOOTH",
"241 439 OFFCURVE",
"244 440 OFFCURVE",
"244 442 CURVE",
"244 443 LINE",
"228 487 LINE",
"352 485 LINE",
"352 502 LINE",
"167 502 LINE"
);
},
{
closed = 1;
nodes = (
"113 510 OFFCURVE",
"103 502 OFFCURVE",
"103 494 CURVE SMOOTH",
"103 484 OFFCURVE",
"113 476 OFFCURVE",
"121 476 CURVE SMOOTH",
"127 476 OFFCURVE",
"137 484 OFFCURVE",
"137 494 CURVE SMOOTH",
"137 502 OFFCURVE",
"127 510 OFFCURVE",
"121 510 CURVE SMOOTH"
);
}
);
width = 455;
}
);
note = u1D090;
unicode = 1D090;
category = Letter;
},
{
glyphname = u1D091;
lastChange = "2018-08-24 12:55:27 +0000";
layers = (
{
layerId = "2208DBFF-11B0-48D9-BA6B-B988DFB8211A";
paths = (
{
closed = 1;
nodes = (
"103 490 LINE",
"114 490 LINE",
"127 458 OFFCURVE",
"135 442 OFFCURVE",
"137 441 CURVE SMOOTH",
"139 439 OFFCURVE",
"143 439 OFFCURVE",
"149 439 CURVE SMOOTH",
"173 439 LINE SMOOTH",
"176 439 OFFCURVE",
"179 440 OFFCURVE",
"179 442 CURVE",
"179 443 LINE",
"164 487 LINE",
"287 485 LINE",
"287 502 LINE",
"103 502 LINE"
);
},
{
closed = 1;
nodes = (
"325 510 OFFCURVE",
"318 502 OFFCURVE",
"318 494 CURVE SMOOTH",
"318 484 OFFCURVE",
"325 476 OFFCURVE",
"334 476 CURVE SMOOTH",
"343 476 OFFCURVE",
"352 484 OFFCURVE",
"352 494 CURVE SMOOTH",
"352 502 OFFCURVE",
"343 510 OFFCURVE",
"334 510 CURVE SMOOTH"
);
}
);
width = 455;
}
);
note = u1D091;
unicode = 1D091;
category = Letter;
},
